<?xml version="1.0" standalone="no"?>
<!DOCTYPE svg PUBLIC "-//W3C//DTD SVG 1.1//EN" "http://www.w3.org/Graphics/SVG/1.1/DTD/svg11.dtd" >
<svg xmlns="http://www.w3.org/2000/svg">
<metadata></metadata>
<defs>
<font id="efflorescebold_italic" horiz-adv-x="1107" >
<font-face units-per-em="2048" ascent="1522" descent="-526" />
<missing-glyph horiz-adv-x="518" />
<glyph horiz-adv-x="2048" />
<glyph horiz-adv-x="2048" />
<glyph unicode="&#xd;" horiz-adv-x="518" />
<glyph unicode=" "  horiz-adv-x="518" />
<glyph unicode="&#x09;" horiz-adv-x="518" />
<glyph unicode="&#xa0;" horiz-adv-x="518" />
<glyph unicode="!" horiz-adv-x="509" d="M117 63q0 63 43 112.5t106 49.5q43 0 73 -28.5t30 -75.5q0 -33 -12.5 -62.5t-32 -52t-46 -36t-57.5 -13.5q-47 0 -75.5 29.5t-28.5 76.5zM240 307q2 18 12 89t24.5 170.5t30 212t28.5 215t22.5 180t9.5 106.5v33q-2 10 -2 19v16q0 66 55 106.5t133 40.5q55 0 92 -27.5 t37 -76.5q0 -16 -11.5 -44t-29.5 -73t-43 -111.5t-51 -161.5q-4 -8 -20.5 -61t-38 -128t-46 -160t-46 -159.5t-37 -126t-17.5 -59.5h-102z" />
<glyph unicode="&#x22;" horiz-adv-x="550" d="M311 1130q14 111 20.5 167.5t6.5 62.5q0 12 -3 42t-3 44q0 57 34.5 100t90.5 43q82 0 82 -84q0 -16 -12.5 -52t-32 -86t-41 -111.5t-39.5 -125.5h-103zM537 1130q14 111 19 167.5t5 62.5q0 12 -2 42t-2 44q0 57 34 100t89 43q84 0 84 -84q0 -16 -12.5 -52t-31 -86 t-41 -110.5t-40.5 -126.5h-102z" />
<glyph unicode="#" horiz-adv-x="708" d="M244 905l41 107h116l33 96h-117l41 111h115l86 247h109l-88 -247h77l86 247h111l-88 -247h119l-39 -111h-121l-33 -96h119l-37 -107h-119l-84 -239h-110l86 239h-76l-86 -239h-109l84 239h-116zM508 1012h78l35 96h-80z" />
<glyph unicode="$" horiz-adv-x="804" d="M150 360q0 35 22.5 63t52.5 28q18 0 33.5 -22.5t30 -52.5t31 -58.5t40.5 -41.5l95 437q-96 59 -131 115.5t-35 127.5q0 139 80 236.5t215 130.5l28 133h70l-25 -121q10 4 22.5 4h25.5h18l25 117h69l-26 -131q31 -8 58.5 -24.5t50 -38t35.5 -45t13 -48.5 q0 -33 -23.5 -63.5t-56.5 -30.5q-16 0 -29.5 17.5t-25.5 40t-24.5 44t-24.5 27.5l-88 -407q158 -104 158 -256q0 -141 -77 -241.5t-216 -141.5l-21 -105h-71l22 92q-16 -2 -32.5 -3t-32.5 -1l-21 -88h-72l23 99q-33 8 -66.5 29.5t-60.5 51t-43 63.5t-16 64zM430 264 q33 2 66 10l73 344q-10 12 -23.5 24.5t-29.5 27.5zM465 1036q0 -59 41 -88l49 232q-41 -14 -65.5 -56.5t-24.5 -87.5zM561 887q14 -20 57 -45l78 377q-39 -4 -65 -13zM573 303q16 4 32 21.5t27 40t18 49t7 49.5q0 57 -32 84z" />
<glyph unicode="%" horiz-adv-x="1062" d="M313 1122q0 74 27 142.5t73 121t110.5 84t138.5 31.5q86 0 125.5 -52t39.5 -138q0 -53 -16 -109l178 289h107l-373 -614q90 78 211 77q162 0 162 -188q0 -74 -27 -141.5t-73 -119.5t-109.5 -83t-136.5 -31q-166 0 -166 182q0 51 12 101l-156 -252h-98l369 610 q-96 -94 -230 -94q-168 0 -168 184zM444 1137q0 -115 88 -115q39 0 70 28.5t52.5 69.5t32.5 84t11 74q0 139 -96 139q-33 0 -61.5 -29.5t-50 -72.5t-34 -91t-12.5 -87zM713 573q0 -115 88 -114q35 0 64.5 27.5t52 67.5t35 84t12.5 79q0 139 -95 139q-33 0 -61.5 -29.5 t-50 -72.5t-33.5 -92.5t-12 -88.5z" />
<glyph unicode="&#x26;" horiz-adv-x="968" d="M125 266q0 68 19.5 134.5t55.5 123t84 100.5t103 64q-78 66 -78 207q0 96 37 184t100.5 154.5t147.5 106.5t180 40q49 0 94 -10t78 -28.5t52.5 -44t19.5 -56.5q0 -39 -28.5 -67.5t-65.5 -28.5q-29 0 -43.5 18.5t-24.5 40t-21.5 40t-35.5 18.5q-59 0 -111.5 -35 t-91.5 -90.5t-62.5 -125t-23.5 -139.5q0 -74 38 -125t101 -51q39 0 80 19.5t77 53.5t65.5 79t46.5 98l53 -14q-8 -41 -20.5 -99.5t-32.5 -136.5h133l-21 -96h-135q-10 -74 -31 -176q-16 -68 -25.5 -109t-15.5 -62.5t-8 -29.5t-2 -10q0 -66 17.5 -100.5t58.5 -34.5 q39 0 119 41l16 -99q-123 -45 -182 -45q-123 0 -185 86q-152 -100 -268 -100q-61 0 -110.5 22.5t-83 63.5t-52 97.5t-18.5 121.5zM360 248q0 -158 119 -158q57 0 139 47q-14 31 -14 78q0 16 9.5 66.5t21.5 110t25.5 117.5t21.5 91h-55q-53 0 -101.5 -30.5t-85.5 -80 t-58.5 -113t-21.5 -128.5z" />
<glyph unicode="'" horiz-adv-x="411" d="M207 1122q145 168 145 230q0 39 -94 39q84 145 170 145q45 0 70.5 -30.5t25.5 -75.5q0 -160 -317 -308z" />
<glyph unicode="(" horiz-adv-x="550" d="M131 133q0 27 2 53.5t8 51.5l193 901q37 180 147.5 293.5t268.5 136.5l2 -74q-45 -10 -91.5 -42t-86 -80t-69.5 -105.5t-40 -116.5l-191 -901q-10 -41 -13 -79t-3 -73q0 -94 37 -136t129 -42h22l-34 -65q-53 -16 -88 -17q-43 0 -79 22.5t-61.5 62.5t-39 94.5t-13.5 115.5 z" />
<glyph unicode=")" horiz-adv-x="641" d="M213 -98q47 8 93 40.5t85 80t68.5 105.5t42.5 118l190 899q10 43 13.5 81t3.5 72q0 96 -39 137.5t-129 41.5h-23l39 63q23 10 42 15.5t42 5.5q43 0 78 -22.5t61.5 -62.5t41 -94.5t14.5 -117.5q0 -29 -4.5 -55.5t-8.5 -51.5l-190 -897q-41 -184 -149.5 -298t-268.5 -132z " />
<glyph unicode="*" horiz-adv-x="673" d="M297 975l16 176l205 -57l-78 196l170 35l13 -211l161 135l86 -149l-196 -76l178 -113l-117 -129l-133 166l-51 -207l-160 72l117 178z" />
<glyph unicode="+" horiz-adv-x="636" d="M213 655l20 93h195l47 223h103l-50 -223h201l-20 -93h-199l-51 -237h-101l50 237h-195z" />
<glyph unicode="," horiz-adv-x="391" d="M12 -190q145 170 146 233q0 39 -92 39q90 143 170 143q43 0 69.5 -30.5t26.5 -73.5q0 -162 -320 -311z" />
<glyph unicode="-" horiz-adv-x="626" d="M219 631l31 151h479l-31 -151h-479z" />
<glyph unicode="." horiz-adv-x="389" d="M94 63q0 63 43 112.5t107 49.5q47 0 75.5 -28.5t28.5 -75.5q0 -33 -12 -62.5t-31.5 -52t-46.5 -36t-57 -13.5q-47 0 -77 29.5t-30 76.5z" />
<glyph unicode="/" horiz-adv-x="745" d="M39 -27l827 1444h133l-835 -1444h-125z" />
<glyph unicode="0" horiz-adv-x="1103" d="M164 330q0 162 56 301t151.5 242.5t222.5 162t268 58.5q160 0 242 -96.5t82 -278.5q0 -154 -54.5 -291t-148.5 -239.5t-221 -162t-270 -59.5q-160 0 -244 92.5t-84 270.5zM379 346q0 -266 209 -266q80 0 149.5 56.5t121.5 142.5t83 190t31 203q0 59 -15.5 114.5t-43 98.5 t-68.5 68.5t-90 25.5q-86 0 -156 -64.5t-119 -161t-75.5 -206t-26.5 -201.5z" />
<glyph unicode="1" horiz-adv-x="507" d="M117 -25l16 80h10q47 0 52 19l157 735q8 33 17 59q6 23 11 44.5t5 27.5q0 16 -20 16q-8 0 -138 -36l23 100l442 129l-24 -102l-62 -19q0 -14 -4 -34.5t-10 -53.5l-184 -870q0 -14 36 -15h13l-17 -80h-323z" />
<glyph unicode="2" horiz-adv-x="794" d="M-29 -25q172 145 276.5 238.5t145.5 138.5q135 137 202 253t67 208q0 63 -29 106.5t-76 43.5q-31 0 -56.5 -29t-51 -62.5t-50 -61.5t-51.5 -28q-63 0 -63 68q0 43 34.5 85t87 74.5t114 53t116.5 20.5q106 0 175 -61t69 -168q-1 -299 -525 -676q18 4 37 4h39h365l-92 -207 h-734z" />
<glyph unicode="3" horiz-adv-x="722" d="M57 -307q0 33 37 51q96 31 176 79t136.5 109.5t87 132t30.5 144.5q0 80 -33.5 132t-99.5 52q-33 0 -84 -14l23 104q291 74 291 330q0 152 -119 152q-35 0 -63.5 -28t-55.5 -60.5t-51.5 -60.5t-48.5 -28q-66 0 -66 70q0 43 35 83t88 71.5t116.5 51t123.5 19.5 q109 0 176 -56t67 -165q0 -49 -16 -101t-46 -103.5t-71 -94.5t-88 -74q121 -59 121 -215q0 -61 -30.5 -129.5t-82 -137t-118 -131t-136 -111t-139.5 -77t-125 -28.5q-35 0 -35 33z" />
<glyph unicode="4" horiz-adv-x="823" d="M-29 -25q221 233 460 514t505 617l-203 -948q-4 -25 -9 -46.5t-11 -41.5h94l-16 -95h-99q-2 -27 -17.5 -96t-39.5 -186h-213q16 94 63 282h-514zM217 68q14 2 86 2h203q10 78 34.5 192t59.5 268q-160 -215 -383 -462z" />
<glyph unicode="5" horiz-adv-x="681" d="M147 -268q0 23 12.5 35t67.5 32q59 23 110.5 69t88.5 105.5t58.5 128t21.5 138.5q0 51 -20.5 115.5t-62.5 126t-104.5 113.5t-144.5 79l260 368h434l-98 -204h-309q-20 0 -36.5 1t-33.5 3l-10 -23q63 -33 120.5 -88t101.5 -122.5t69.5 -141.5t25.5 -143q0 -82 -31.5 -170 t-95.5 -174q-37 -51 -89 -101.5t-105 -90.5t-105.5 -64.5t-89.5 -24.5q-35 0 -35 33z" />
<glyph unicode="6" horiz-adv-x="817" d="M143 299q0 197 58.5 376t158 324.5t230.5 250t274 151.5l-6 -107q-84 -31 -147.5 -69.5t-115.5 -102t-96 -156t-89 -227.5q111 98 219 99q51 0 94 -21.5t74.5 -60.5t49 -90.5t17.5 -110.5q0 -117 -34.5 -223.5t-96 -188.5t-144.5 -130t-179 -48q-266 0 -267 334zM328 287 q0 -217 123 -217q45 0 83.5 34.5t67.5 90t46.5 125t17.5 141.5q0 86 -38 146.5t-104 60.5q-76 0 -155 -95q-41 -135 -41 -286z" />
<glyph unicode="7" horiz-adv-x="790" d="M143 -303q16 33 64.5 123t111 207.5t133 249t133 247t108.5 202.5t63 116q-16 -2 -39 -3t-53 -1h-439l82 204h549q27 0 68 3.5t96 11.5q-39 -63 -65.5 -109.5t-43.5 -79.5l-632 -1171h-136z" />
<glyph unicode="8" horiz-adv-x="866" d="M125 274q0 72 23.5 145t66.5 137.5t103.5 118.5t132.5 91q-127 96 -127 262q0 84 32.5 159t89 130t132 88t159.5 33q119 0 198 -62.5t79 -165.5q0 -53 -19.5 -107t-55.5 -105.5t-86.5 -94.5t-111.5 -74q168 -125 168 -327q0 -111 -36.5 -208t-101 -170t-153 -115 t-190.5 -42q-68 0 -124 22.5t-96 62.5t-61.5 96.5t-21.5 125.5zM291 270q0 -195 158 -194q55 0 106 29.5t92 77.5t65.5 109t24.5 122q0 195 -202 299q-53 -35 -98.5 -85t-78 -108.5t-50 -123t-17.5 -126.5zM504 1153q0 -76 45 -149.5t119 -122.5q82 55 136 140t54 169 q0 139 -149 139q-205 0 -205 -176z" />
<glyph unicode="9" horiz-adv-x="806" d="M164 -291q0 20 11 37.5t38 28.5q70 27 129 63.5t109.5 91t92.5 130t81 182.5q-100 -78 -195 -78q-119 0 -187.5 80t-68.5 219q0 113 35 218t96.5 187t144 130.5t181.5 48.5q264 0 264 -326q0 -162 -47 -327t-134 -308t-214 -252.5t-287 -163.5q-2 -2 -14 -2q-35 0 -35 41 zM373 555q0 -221 162 -221q61 0 96 39t51 97t20.5 126t4.5 125q0 221 -121 221q-45 0 -84 -34t-67.5 -89t-45 -124.5t-16.5 -139.5z" />
<glyph unicode=":" horiz-adv-x="362" d="M78 63q0 63 43 112.5t106 49.5q47 0 76 -28.5t29 -75.5q0 -33 -12.5 -62.5t-32 -52t-46 -36t-57.5 -13.5q-47 0 -76.5 29.5t-29.5 76.5zM199 625q0 31 11 60.5t31.5 53t47 36.5t57.5 13q47 0 76 -30.5t29 -77.5q0 -63 -43 -111.5t-107 -48.5q-45 0 -73.5 29t-28.5 76z " />
<glyph unicode=";" horiz-adv-x="364" d="M12 -190q145 170 146 233q0 39 -92 39q90 143 167 143q45 0 72 -30.5t27 -73.5q0 -162 -320 -311zM199 625q0 31 11 60.5t31.5 53t47 36.5t57.5 13q47 0 76 -30.5t29 -77.5q0 -33 -12.5 -61.5t-32 -50t-46 -35t-57.5 -13.5q-47 0 -75.5 29t-28.5 76z" />
<glyph unicode="&#x3c;" horiz-adv-x="536" d="M195 674l288 260l248 65l-342 -307l172 -252l-174 -49z" />
<glyph unicode="=" horiz-adv-x="602" d="M195 551l24 113h445l-23 -113h-446zM233 727l25 115h444l-26 -115h-443z" />
<glyph unicode="&#x3e;" horiz-adv-x="595" d="M135 365l344 309l-172 250l174 47l193 -279l-291 -260z" />
<glyph unicode="?" horiz-adv-x="755" d="M274 63q0 63 42 112.5t108 49.5q45 0 72.5 -28.5t27.5 -75.5q0 -66 -43 -115t-104 -49q-47 0 -75 29.5t-28 76.5zM307 532.5v20.5q0 45 31 95t78 102.5t101 106.5t101.5 106.5t78 101.5t30.5 94q0 63 -35 101t-94 38q-100 0 -229 -141l-58 92q160 168 381 168 q117 0 183.5 -61t66.5 -180q0 -131 -129 -287q-6 -8 -63.5 -66.5t-171.5 -171.5q-129 -129 -129 -200q0 -33 36 -177l-104 -32l-72 272q-2 10 -2 18.5z" />
<glyph unicode="@" horiz-adv-x="1239" d="M154 451q0 137 59 261t156.5 218t219.5 150.5t245 56.5q82 0 148.5 -27t113.5 -74t73.5 -114.5t26.5 -149.5q0 -27 -4 -48t-6 -46q-12 -61 -44 -120.5t-75 -107t-94 -76t-101 -28.5q-59 0 -98 62q-84 -100 -211 -101q-129 0 -129 113q0 55 24.5 93t62.5 65.5t81 46t81 38 t62.5 42t24.5 57.5q0 18 -21.5 28.5t-37.5 10.5q-66 0 -123 -107l-58 99q133 121 244 120q61 0 98 -35.5t37 -95.5q0 -10 -1 -22t-3 -23l-51 -241q-2 -2 -2 -9q0 -20 27 -20q51 0 91 64.5t40 193.5q0 125 -63.5 208t-174.5 83q-80 0 -153.5 -44t-132 -116t-93.5 -163 t-35 -185q0 -72 20.5 -132.5t58.5 -105.5t91.5 -70.5t120.5 -25.5q51 0 148 29l-21 -97q-102 -39 -203 -38q-92 0 -168.5 27.5t-133 77.5t-87 121t-30.5 157zM602 483q0 -20 9.5 -35.5t23.5 -15.5q33 0 50 10.5t25.5 32t12.5 52t14 71.5q-76 -33 -105.5 -60.5t-29.5 -54.5z " />
<glyph unicode="A" d="M6 -29l17 82q66 0 79 27l633 1261l-8 74q53 -4 83 -6t34 -2t28.5 2t71.5 4l103 -1339q6 -20 77 -21l-18 -82q-78 4 -119 5t-49 1t-52 -1t-124 -5l16 82q14 0 21 -2h18q10 0 17 8q-6 47 -10.5 104.5t-8.5 129.5h-493q-27 -55 -54.5 -111.5t-58.5 -115.5v-3q0 -8 24 -10h35 l-18 -82q-59 4 -91 5t-36 1t-34 -1t-83 -5zM371 389h436q-6 14 -8 35.5t-4 52.5l-21 266q-4 66 -15 167.5t-18 240.5q-33 -86 -125 -274.5t-245 -487.5z" />
<glyph unicode="B" horiz-adv-x="878" d="M18 -25l17 80q63 0 76 31l258 1221q0 26 -56 26h-4l19 82h434q113 0 175 -79t62 -206q0 -129 -57 -229t-168 -168q31 -14 56.5 -44t43 -68.5t26.5 -83.5t9 -91q0 -44 -8 -71q-20 -94 -69.5 -169t-122 -126t-165.5 -78t-200 -27h-326zM313 76q0 -6 11 -6h49 q63 0 121.5 35.5t103.5 93t70.5 130t25.5 146.5q0 178 -147 178q-27 0 -107 -6q-2 -14 -6 -33.5t-8 -40.5l-82 -391q-2 -10 -8 -34.5t-21 -65.5zM459 741q39 0 112 7q33 2 67 26.5t62.5 62t51 84t32.5 89.5q4 20 6.5 42.5t2.5 45.5q0 102 -42 161.5t-112 59.5h-57 q-4 -25 -6.5 -44.5t-6.5 -35.5l-86 -410z" />
<glyph unicode="C" horiz-adv-x="1026" d="M172 391q0 229 57.5 418.5t155.5 325t232.5 210t287.5 74.5q37 0 64.5 -9t52.5 -27.5t49.5 -46t54.5 -64.5q4 0 13 39h69l-51 -328h-67q-2 70 -20.5 130.5t-49.5 105.5t-72 69.5t-90 24.5q-53 0 -108.5 -35t-105.5 -96.5t-93 -143.5t-75 -177t-50 -197.5t-18 -204.5 q0 -383 188 -383q63 0 129 31.5t121 84t96 118t57 130.5h74l-90 -327h-76l8 18q-92 -78 -193 -121t-204 -43q-346 0 -346 424z" />
<glyph unicode="D" horiz-adv-x="983" d="M4 -25l16 80q66 0 76 31l260 1221q0 27 -47 26h-12l16 82h486q152 0 231.5 -129t79.5 -352q0 -114 -23 -227q-41 -195 -104 -333t-153.5 -226.5t-212 -130.5t-277.5 -42h-336zM301 76q0 -6 10 -6h125q66 0 131.5 50t123 136t103 202t74.5 249q20 94 21 202 q0 195 -69.5 302.5t-194.5 107.5h-56q-4 -25 -8 -46.5t-6 -39.5l-217 -1024q-14 -37 -37 -131v-2z" />
<glyph unicode="E" horiz-adv-x="868" d="M14 -25l17 80q70 0 75 31l259 1225q0 14 -7.5 18t-50.5 4l17 82h702l-33 -241h-61q-2 145 -35 145h-319q-4 -27 -8.5 -53.5t-10.5 -55.5l-84 -399q-2 -18 -9 -34.5t-9 -33.5h284q33 0 50 111h71l-45 -319h-72q4 27 6.5 44t2.5 25q0 45 -23 45h-295q-4 -35 -12 -69 l-84 -406q-4 -14 -17.5 -42t-13.5 -56q0 -8 13 -8l395 2q29 0 94 145h63l-67 -240h-793z" />
<glyph unicode="F" horiz-adv-x="817" d="M20 -25l19 80q35 0 52.5 11.5t24.5 32t11 48t12 60.5l234 1104q-28 22 -57 22h-3l19 82h708l-32 -241h-68q-2 145 -25 145h-325q-6 -47 -33 -190.5t-86 -385.5h272q31 0 48 111h77l-45 -319h-78q4 31 6.5 52t2.5 40q0 23 -15 22h-293q-4 -23 -22 -97.5t-38.5 -164.5 t-38 -177t-17.5 -134q0 -20 49 -21h12l-16 -80h-355z" />
<glyph unicode="G" horiz-adv-x="1056" d="M156 379q0 76 8 157.5t31 174.5q37 166 96 298t144 224t193.5 142t243.5 50q100 0 166 -69l52 -74q29 29 81 29l-69 -328h-78q12 55 12 90q0 49 -15 94t-41 79t-61.5 54.5t-76.5 20.5q-78 0 -157 -72.5t-143.5 -195.5t-105.5 -287t-41 -344q0 -356 158 -356q49 0 95 28.5 t86 78.5t71 117.5t47 145.5q4 20 6 35.5t2 22.5q0 22 -54 22h-5l18 78h332l-16 -78q-66 -2 -78 -39l-17 -61q-23 -121 -38 -196t-15 -107q0 -16 3 -36t7 -48l-108 -62q-23 68 -23 123q0 6 1 11t1 14q-147 -160 -383 -160q-166 0 -247.5 109.5t-81.5 314.5z" />
<glyph unicode="H" horiz-adv-x="1042" d="M27 -27l18 80q70 4 78 37l258 1225q0 8 -18.5 14t-40.5 6l20 82q147 -6 166 -6q14 0 184 6l-18 -82q-66 -4 -76 -39l-6 -32q-6 -33 -17.5 -84.5t-24.5 -113.5t-26.5 -121.5t-25 -109t-17.5 -71.5h412q0 2 8 40t20.5 93t28 122.5t27.5 127t20.5 105.5t8.5 61q0 22 -55 22 h-5l17 82q156 -6 174 -6q14 0 180 6l-19 -82q-70 -2 -75 -39l-260 -1224q0 -18 49 -19q2 0 4 1t6 1l-16 -82q-74 2 -116 3t-50 1q-10 0 -56.5 -1t-132.5 -3l19 80q66 2 75 37q27 135 52 250q10 49 20 99t20.5 94.5t19.5 80t15 54.5h-413q0 -2 -8.5 -40t-21.5 -96.5 t-28.5 -128t-29 -135t-21.5 -118t-8 -74.5q0 -20 45 -21h12l-18 -82q-76 2 -118 3t-50 1t-54 -1t-132 -3z" />
<glyph unicode="I" horiz-adv-x="395" d="M20 -29l19 82q68 0 78 37l258 1227q0 18 -60 18l19 82q143 -6 160 -6q12 0 194 6l-20 -82q-68 -4 -78 -39l-256 -1226q0 -16 57 -17l-16 -82q-80 4 -122 5t-48 1q-8 0 -53.5 -1t-131.5 -5z" />
<glyph unicode="J" horiz-adv-x="612" d="M-139 -76q0 39 25.5 67.5t60.5 28.5q29 0 44 -22.5t28.5 -48t32 -48t52.5 -22.5q78 0 133.5 53.5t75.5 145.5l170 794l64 302q4 20 16 59t12 82q0 8 -16 14t-41 6l17 82q86 -4 125.5 -7t41.5 -3t47.5 3t139.5 7l-19 -82q-70 -4 -77 -39l-238 -1132q-18 -80 -63.5 -151.5 t-107.5 -124t-138 -83t-158 -30.5q-43 0 -83 12t-72.5 33.5t-52 48.5t-19.5 55z" />
<glyph unicode="K" horiz-adv-x="968" d="M14 -27l17 80q66 2 75 37l263 1225q0 20 -62 20l21 82q147 -6 164 -6q16 0 186 6l-16 -82q-61 -4 -76 -39l-6 -28q-5 -27 -15 -72t-21.5 -99.5t-22.5 -105.5t-20 -94t-14 -63q125 94 240 219t225 280h-39l17 84q111 -6 125 -6q10 0 133 6l-17 -82q-88 -2 -124 -49 q-111 -147 -201 -257.5t-162 -170.5l-33 -31q6 -12 24.5 -67t42 -132t49.5 -165t49.5 -166t39.5 -134.5t21 -70.5q12 -35 81 -39l-16 -80q-88 2 -134 3t-56 1t-56.5 -1t-130.5 -3l17 80q53 2 53 21q0 4 -21.5 80.5t-62.5 226.5l-88 311l-12 -10q-2 -16 -12.5 -59t-24 -99.5 t-28.5 -121t-28.5 -126t-21.5 -114.5t-8 -86q0 -23 57 -23l-16 -80q-78 2 -122 3t-52 1t-53.5 -1t-127.5 -3z" />
<glyph unicode="L" horiz-adv-x="841" d="M25 -25l18 80q66 0 76 35l258 1223q0 10 -12.5 16t-47.5 6l19 82q154 -6 172 -6q12 0 182 6l-18 -82q-70 -4 -78 -39l-232 -1085q0 -2 -34 -135l2 -6h321q53 0 121 145h82l-102 -240h-727z" />
<glyph unicode="M" horiz-adv-x="1157" d="M-4 -27l16 80q35 2 53.5 15.5t27.5 35t13.5 49t12.5 56.5l260 1104q-20 20 -60 20l21 84q63 -6 117 -6q29 0 58.5 2t66.5 6l57 -495q16 -147 23.5 -268t11.5 -226q10 25 49 99.5t91 176t111.5 215t112 215t92 178.5t52.5 103q86 -6 102 -6q6 0 127 6l-18 -84 q-70 0 -76 -37l-227 -1222q0 -20 51 -21q2 0 4 1t6 1l-16 -82q-76 2 -118 3t-52 1t-56.5 -1t-128.5 -3l17 80q29 2 43 4t22 12.5t12.5 32t12.5 62.5l35 178q16 92 38.5 227.5t61.5 317.5q-14 -29 -54 -109t-93.5 -184.5t-111.5 -221t-110.5 -220t-91.5 -181t-51 -104.5 q0 14 -7 93t-18.5 190.5t-25 238.5t-24.5 237.5t-19 188.5t-8 90l-199 -831q0 -20 61 -21l-18 -80q-53 2 -83 3t-38 1t-42 -1t-93 -3z" />
<glyph unicode="N" horiz-adv-x="1032" d="M4 -27l19 80q66 2 75 37l260 1227q0 16 -59 18l16 82q59 -4 92 -7t39 -3q8 0 37 3t82 7l295 -799l55 -165q4 18 17.5 82.5t32 154.5t40 191.5t40 190.5t32 153.5t15.5 81.5v6q0 20 -50 20h-10l21 84q106 -6 121 -6q12 0 135 6l-17 -82q-68 -2 -75 -39l-316 -1437 q-35 113 -84 248t-115 294q-6 14 -28.5 68.5t-51 129.5t-61.5 159t-60.5 155.5t-46 120.5t-20.5 58q-16 -43 -49 -210t-98 -464q-35 -147 -50.5 -231.5t-15.5 -110.5q0 -20 49 -21h11l-17 -82q-55 2 -86 3t-37 1t-40.5 -1t-96.5 -3z" />
<glyph unicode="O" horiz-adv-x="1056" d="M158 319q0 76 14 173.5t41 224.5q70 348 227.5 530.5t436.5 182.5q307 -1 307 -400q-2 -68 -10.5 -143.5t-24.5 -163.5q-43 -199 -101.5 -343t-141.5 -238.5t-193.5 -139.5t-253.5 -45q-301 0 -301 362zM395 340q0 -276 129 -277q162 0 273 256q31 70 57.5 166.5 t47 198.5t32.5 199.5t12 169.5q0 268 -129 268q-121 0 -218 -163t-161 -466q-20 -98 -31.5 -185t-11.5 -167z" />
<glyph unicode="P" horiz-adv-x="878" d="M16 -27l17 80q68 2 80 37l258 1223q0 10 -13.5 15t-48.5 5l19 82h489q106 0 171 -82t65 -215q-16 -274 -166 -409.5t-389 -135.5h-70q-4 -33 -20.5 -117.5t-49.5 -232.5q-29 -133 -28 -147q0 -23 57 -23l-16 -80q-78 2 -120 3t-50 1q-10 0 -55.5 -1t-129.5 -3zM451 668 h81q47 0 98.5 31.5t94.5 88t71.5 134.5t28.5 170q0 109 -45 168t-123 59h-69q-6 -47 -36 -183.5t-77 -365.5q-8 -29 -13 -53.5t-11 -48.5z" />
<glyph unicode="Q" horiz-adv-x="1075" d="M158 324q0 47 8 115.5t23.5 148.5t36 164t45 160.5t51 141t53.5 105.5q78 117 205 190.5t292 73.5q305 0 306 -393q0 -92 -15.5 -200.5t-50.5 -233.5q-55 -211 -127 -334t-174 -188q45 -18 105.5 -61.5t114.5 -89.5t92 -81t36 -35q101 -73 202 -73h3q16 0 73.5 10.5 t159.5 30.5q-260 -145 -368 -146q-72 0 -136.5 21.5t-131.5 70.5q-20 14 -65.5 59.5t-94.5 92.5t-94 85t-66 40q-45 -16 -86 -26.5t-80 -10.5q-317 0 -317 363zM393 346q0 -272 131 -272q57 0 110.5 41t99.5 112.5t85 166.5t65.5 204t42 222t15.5 224q0 268 -129 269 q-123 0 -219 -161t-160 -460q-41 -195 -41 -346z" />
<glyph unicode="R" horiz-adv-x="950" d="M29 -27l20 80q68 4 76 37l258 1227q0 16 -59 16l18 82h487q102 0 163 -84t61 -215q0 -59 -17.5 -122.5t-49.5 -120t-76 -104.5t-95 -77q96 -55 96 -194q0 -37 -7 -82t-17 -92q-12 -47 -27.5 -101.5t-15.5 -99.5q0 -59 88 -74l-17 -74q-123 0 -202.5 49.5t-79.5 139.5 q0 20 6 43l59 282q2 6 2 25q0 51 -27.5 92t-64.5 41h-151l-115 -573q0 -6 9 -9.5t20.5 -4.5t20.5 -3t9 -4l-18 -80q-72 2 -113 3t-51 1t-57 -1t-133 -3zM481 739h137q41 0 78 33t66 84t45 114t16 122q0 109 -41 168t-112 59h-70q-10 -66 -36.5 -211t-82.5 -369z" />
<glyph unicode="S" horiz-adv-x="774" d="M102 76l33 229h84q-10 -57 -10 -76q0 -153 160 -153h2q45 0 83 26.5t65.5 71.5t43 101.5t15.5 115.5q0 86 -46.5 158t-100.5 140.5t-100 141t-46 158.5t35.5 166t96 141.5t139.5 98.5t165 37q139 0 213 -91l-39 -264h-84q8 53 12 87t4 55q0 55 -23.5 73.5t-80.5 18.5 q-41 0 -79 -24.5t-66.5 -65.5t-46 -93.5t-17.5 -105.5q0 -80 46 -149.5t101.5 -140t101.5 -145.5t46 -165q0 -86 -34 -170t-93 -150.5t-139 -107.5t-172 -41q-74 0 -139.5 39t-129.5 84z" />
<glyph unicode="T" horiz-adv-x="864" d="M258 -25l16 80q68 0 78 35l238 1120q4 27 8 53.5t18 55.5h-182q-31 0 -63 -145h-80l80 280h78q-2 -8 -4.5 -17.5t-4.5 -21.5h588q25 0 33 39h82l-80 -280h-78q16 78 19.5 108.5t15.5 36.5h-195q-2 -31 -8 -62.5t-10 -56.5l-238 -1124q0 -10 12.5 -15.5t47.5 -5.5l-19 -80 h-352z" />
<glyph unicode="U" horiz-adv-x="964" d="M161 300q3 36 13 77l201 936q0 10 -13.5 16t-48.5 6l19 82q43 -6 69.5 -9t47 -3h40h46.5q25 0 59.5 2t89.5 10l-16 -82q-70 -4 -78 -39l-197 -923q-12 -59 -12 -113q0 -184 164 -184q39 0 76.5 23.5t71.5 63.5t59.5 90t38.5 103l200 961q0 18 -59 18l18 82q45 -8 76 -9 t53 -1q-2 0 23.5 2t60.5 3t68 3t43 2l-19 -82q-31 -2 -45 -3t-21 -13t-13.5 -43t-18.5 -90l-215 -1002q-10 -49 -15 -77.5t-5 -32.5q0 -20 47 -21h12l-18 -82q-8 0 -25.5 2t-36 3t-36 3.5t-27.5 2.5q-23 0 -54.5 -4.5t-74.5 -12.5q0 8 5 29.5t13 62.5q-100 -96 -283 -96 q-286 0 -286 270q0 33 3 69z" />
<glyph unicode="V" horiz-adv-x="1153" d="M299 1333l16 84q160 -6 177 -6q18 0 178 6l-17 -84h-26q-29 0 -29 -18l90 -1057q16 37 45 98.5t74 149.5l407 809q4 12 5 12q0 6 -33 6h-25l17 84q119 -6 131 -6q6 0 36.5 2t86.5 6l-17 -84q-68 -2 -90 -45l-637 -1317h-207l-100 1334q-2 26 -76 26h-6z" />
<glyph unicode="W" horiz-adv-x="1593" d="M303 1333l16 84q160 -6 177 -6q14 0 178 6l-17 -84h-28q-29 0 -29 -24l72 -801q6 -80 8 -143.5t10 -106.5q14 33 63.5 134.5t135.5 273.5l-45 641q-2 26 -75 26h-5l16 84q156 -6 170 -6h363q6 0 36.5 2t86.5 6l-19 -84q-66 -2 -88 -45l-225 -467q10 -94 21.5 -235.5 t23.5 -329.5q18 35 48 97.5t75 150.5l403 809q6 8 6 12q0 6 -30 6h-29l20 84q119 -6 132 -6q6 0 35.5 2t84.5 6l-18 -84q-66 0 -86 -45l-639 -1317h-209l-33 451l-217 -451h-209l-100 1334q-2 26 -75 26h-5zM1061 1311q0 -2 7 -72t13 -197q136 285 142 285q0 8 -13 8h-57 q-39 -3 -61 -3h-10q-22 1 -21 -21z" />
<glyph unicode="X" horiz-adv-x="827" d="M-2 -29l16 82q61 0 97 47l360 557l-80 650q0 26 -71 26h-5l19 84q156 -6 174 -6q16 0 180 6l-18 -82h-17q-41 0 -41 -14v-2q12 -63 20.5 -157.5t22.5 -221.5q43 63 104.5 157.5t139.5 225.5l2 4q0 8 -51 8l16 82q123 -6 135 -6q2 0 129 6l-20 -84q-66 0 -90 -41 l-338 -520l88 -711q2 -8 72 -8l-19 -80q-80 2 -124 3t-52 1t-52 -1t-122 -3l16 80h19q37 0 37 13l-33 249q-6 51 -10 93.5t-8 76.5q-2 -6 -22.5 -41.5t-50.5 -84t-64.5 -101.5t-63.5 -98t-48.5 -74t-19.5 -27q0 -6 54 -6l-19 -80q-55 2 -85 3t-34 1t-41 -1t-102 -5z" />
<glyph unicode="Y" horiz-adv-x="825" d="M229 -27l19 80q70 2 76 37l137 649l-103 584q-4 10 -51 10h-22l16 84q160 -6 178 -6q16 0 176 6l-16 -82q-61 -10 -61 -30q0 -2 8 -42t19 -95.5t22.5 -117t17.5 -104.5q43 61 99.5 154.5t129.5 222.5l3 4q0 8 -54 8l19 82q111 -6 121 -6q12 0 141 6l-17 -84 q-70 0 -96 -45q-6 -14 -39.5 -70.5t-75.5 -122t-82 -128t-57 -88.5q-16 -23 -23 -30t-12.5 -21.5t-11.5 -46t-22 -105.5l-107 -508q-8 -47 -14 -72.5t-6 -32.5q0 -8 41 -8h18l-16 -82q-76 2 -118 3t-50 1t-54.5 -1t-132.5 -3z" />
<glyph unicode="Z" horiz-adv-x="868" d="M0 -25q8 10 50 76t106.5 168.5t147.5 235.5t172 279.5t180.5 296t170.5 288.5h-354q-41 0 -98 -145h-74l78 266h78l-6 -25h665q-43 -59 -99 -142t-122 -190q-6 -12 -35 -59t-72 -117.5t-94 -159t-105 -177.5t-105.5 -176t-93.5 -155.5t-68.5 -114.5t-32.5 -54h403 q39 0 101 145h71l-69 -240h-795z" />
<glyph unicode="[" horiz-adv-x="473" d="M35 -152l366 1717h271l-21 -95h-141l-326 -1536h140l-17 -86h-272z" />
<glyph unicode="\" horiz-adv-x="667" d="M354 1415h146l63 -1440h-139z" />
<glyph unicode="]" horiz-adv-x="530" d="M170 -152l18 86h142l325 1536h-141l18 95h273l-365 -1717h-270z" />
<glyph unicode="^" horiz-adv-x="829" d="M258 1057l373 332h151l226 -332h-252l-135 186l-211 -186h-152z" />
<glyph unicode="_" horiz-adv-x="968" d="M-12 -287q51 10 89 18.5t64 12.5q31 6 52 10h671l6 -55l-133 -27q-29 -6 -47 -10t-24 -4h-674z" />
<glyph unicode="`" horiz-adv-x="929" d="M627 1573q0 33 27.5 56.5t66.5 23.5q20 0 50 -13.5t64.5 -34t72.5 -47t77 -53.5l-67 -73l-230 69q-61 18 -61 72z" />
<glyph unicode="a" horiz-adv-x="837" d="M115 338q0 150 36.5 288t105.5 245.5t165 172t213 64.5q20 0 50 -8t59.5 -17.5t51 -16.5t27.5 -7q94 0 160 53l-207 -997v-4q0 -12 15 -13l67 23l-20 -96l-119 -33q-35 -10 -61.5 -15.5t-45.5 -5.5q-72 0 -71 54v18q-90 -74 -211 -74q-104 0 -159.5 91.5t-55.5 277.5z M342 348q0 -43 7 -88t20.5 -83t33 -62.5t41.5 -24.5q18 0 44 21.5t49.5 52.5t40 62.5t20.5 54.5q4 18 4 29.5v19.5q0 6 -1 7t-1 5q0 2 3 15.5t13.5 57.5t29 129t50.5 230q0 2 6.5 23.5t14.5 49t14 52.5t6 35q0 55 -82 55q-63 0 -110 -35.5t-82 -93t-58.5 -128t-37 -142.5 t-19.5 -135.5t-6 -106.5z" />
<glyph unicode="b" horiz-adv-x="880" d="M70 -25l276 1307q-29 0 -42 9t-13 34t43 41q27 6 34 7t24.5 5t61.5 15.5t144 40.5q-12 -66 -32.5 -164.5t-51.5 -231.5q92 86 215 86q236 0 236 -301q0 -84 -14.5 -173t-41.5 -183q-72 -242 -190.5 -367t-265.5 -125q-33 0 -73 20.5t-74 44t-57.5 44t-21.5 20.5 q-10 0 -23.5 8.5t-25.5 8.5q-35 0 -108 -146zM346 238q0 -31 9.5 -59.5t24.5 -51.5t36.5 -37t46.5 -14q162 0 252 473q30 172 30 274q0 162 -96 162q-33 0 -64.5 -20.5t-59 -54t-48 -78t-28.5 -93.5q-14 -70 -36 -175t-55 -251q-12 -49 -12 -75z" />
<glyph unicode="c" horiz-adv-x="770" d="M160 344q0 162 51 304.5t132 247.5t184.5 166.5t207.5 61.5q156 0 221 -131l-153 -223q2 59 3 91t1 40q0 119 -68 119t-130 -63.5t-110 -162t-77 -220t-29 -238.5q0 -250 139 -250q98 0 216 158l77 -43q-172 -231 -379 -232q-135 0 -210.5 99.5t-75.5 275.5z" />
<glyph unicode="d" horiz-adv-x="882" d="M174 324q0 152 34 293t93 250.5t143 175t187 65.5q102 0 168 -84q4 23 8 46.5t9 53t14.5 67.5t21.5 91q-57 0 -57 43q0 18 16 27.5t53 17.5t96.5 21.5t143.5 42.5l-281 -1319v-4q0 -12 15 -13q6 0 16 4q8 4 21.5 8.5t29.5 10.5l-22 -96l-117 -33q-35 -10 -62.5 -15.5 t-44.5 -5.5q-37 0 -54 12.5t-17 45.5v14q-92 -74 -213 -74q-96 0 -148.5 94.5t-52.5 260.5zM406 356q0 -117 24.5 -191.5t61.5 -74.5t96 76q33 43 47 83t24.5 92t20.5 124t35 176q0 4 6 26.5t14 51.5t14.5 56.5t6.5 43.5q0 25 -10.5 54.5t-27 55t-39 43t-48.5 17.5 q-41 0 -81 -47t-73 -131t-52 -200.5t-19 -254.5z" />
<glyph unicode="e" horiz-adv-x="819" d="M141 342q0 137 44 277.5t123 252t185.5 182t229.5 70.5q51 0 97 -16t80 -46t53.5 -73t19.5 -96q0 -170 -115 -262q-23 -14 -90.5 -41t-145 -59.5t-147 -67.5t-98.5 -68q-6 -41 -6 -80q0 -106 41 -167.5t100 -61.5q121 0 244 158l84 -49q-90 -121 -186.5 -173.5 t-227.5 -52.5q-135 0 -210 97.5t-75 275.5zM395 561q23 10 67 27.5t111 42.5q59 20 99.5 43.5t64 55.5t32.5 72t9 93q0 115 -76 115q-43 0 -88 -34t-86 -94.5t-75.5 -142.5t-57.5 -178z" />
<glyph unicode="f" horiz-adv-x="548" d="M-76 -274q90 84 148.5 188t99.5 247.5t72.5 336t68.5 450.5h-86l21 94h84q27 180 109.5 269.5t232.5 89.5q106 0 149 -86l-125 -148q0 125 -39 125q-27 0 -45 -21.5t-30.5 -56t-21.5 -79.5t-17 -93h131l-19 -94h-133q-23 -231 -70.5 -435t-115.5 -370t-153 -288.5 t-179 -190.5z" />
<glyph unicode="g" horiz-adv-x="860" d="M135 270q0 154 39 303.5t107.5 269.5t162 193.5t201.5 73.5q39 0 78 -21.5t72.5 -47t60.5 -47t39 -21.5q49 0 109 100l-148 -786q-29 -145 -86 -260t-137 -195t-180.5 -123t-219.5 -43l-16 2l23 189q53 -78 94 -78q39 0 79 27.5t73.5 71.5t61 96.5t44.5 101.5 q-104 -106 -223 -107q-233 0 -234 301zM352 266q0 -160 97 -160q76 0 117.5 52.5t68.5 139.5t45 199.5t47 235.5q0 2 6 17.5t12.5 38t12.5 46t6 39.5q0 53 -40 93.5t-89 40.5q-39 0 -75 -34t-66.5 -92.5t-57 -133t-45 -157.5t-29 -167t-10.5 -158z" />
<glyph unicode="h" horiz-adv-x="843" d="M39 -27q12 25 33.5 62t38.5 98l16 94l203 953q4 18 9 42.5t11 59.5q-2 -2 -8 -2q-18 0 -33.5 13.5t-15.5 31.5q0 27 45 41q27 4 37 4t28.5 5t61.5 17.5t139 41.5l-80 -377q95 67 208 67h3q49 0 89 -19.5t69 -53t44 -77.5t15 -93q0 -39 -8 -66l-153 -731h34.5t44.5 2 l-16 -82q-25 -2 -101.5 -14.5t-211.5 -36.5l182 848q0 8 1 19t1 24q0 59 -28.5 98t-73.5 39q-55 0 -98.5 -54.5t-59.5 -131.5q-2 -12 -11.5 -58.5t-23.5 -110t-29.5 -139t-31 -145.5t-27.5 -126t-18 -85q-6 -27 -8.5 -45t-2.5 -33q0 -8 2 -28.5t7 -51.5l-129 4 q-23 -4 -59 -3h-27q-29 0 -68 -1z" />
<glyph unicode="i" horiz-adv-x="391" d="M80 -76q10 39 31.5 123t47 189.5t52.5 220t48.5 217t34.5 180.5t13 107q-61 0 -61 57q0 10 11 22.5t34 18.5q27 6 38 8t32.5 7t63.5 16.5t132 35.5l-221 -1048q43 6 57 6h25l-17 -74q-72 -10 -150.5 -30.5t-170.5 -55.5zM362 1280q0 63 42 112.5t106 49.5q47 0 74.5 -30 t27.5 -77q0 -63 -43 -112t-104 -49q-43 0 -73 29.5t-30 76.5z" />
<glyph unicode="j" horiz-adv-x="393" d="M-158 -303l68 211q37 -100 78 -101q16 0 37.5 28t43 70t41 93t29.5 100q4 27 18.5 95.5t33 156.5t38 186.5t37 186.5t29.5 155.5t14 94.5h-10q-16 0 -31.5 14t-15.5 33q0 18 43 39q29 6 41 7t33.5 5t63.5 15.5t130 39.5l-219 -1028q-18 -90 -64.5 -164.5t-113 -127 t-149.5 -81t-175 -28.5zM373 1280q0 63 42 112.5t105 49.5q47 0 76 -30t29 -77q0 -63 -42 -112t-108 -49q-45 0 -73.5 29.5t-28.5 76.5z" />
<glyph unicode="k" horiz-adv-x="858" d="M70 -27q20 45 37.5 99.5t33.5 120.5l232 1087h-6q-18 0 -35 13.5t-17 29.5q0 33 43 43q29 6 40.5 7t31 5t61 15.5t134.5 40.5l-103 -486q133 154 273 154q92 0 146 -58.5t54 -150.5q0 -61 -25.5 -127t-68.5 -121t-100.5 -95t-118.5 -52q16 -33 28.5 -71t18.5 -87 q4 -35 7 -75t9.5 -73.5t15.5 -57t25 -23.5q53 0 80 88q6 -20 10.5 -31.5t8.5 -18t8 -9.5t14 -9q-10 -27 -32.5 -57.5t-52 -57t-62.5 -45t-62 -18.5q-39 0 -66.5 11t-48 44t-34.5 94.5t-25 163.5q-6 70 -14 114t-17.5 68.5t-21.5 34t-31 9.5q-10 0 -16 -13l-66 -301 q-8 -43 -12 -77.5t-4 -57.5q0 -12 1 -29.5t5 -40.5h-60.5h-34.5t-21.5 1t-18.5 3q-18 -4 -48 -3h-24q-28 0 -71 -1zM442 616q41 14 78 15q66 0 101 -43q29 2 56.5 27.5t49 63.5t34.5 82t13 81q0 100 -65 100q-45 0 -88 -28.5t-78 -75.5t-61.5 -105.5t-39.5 -116.5z" />
<glyph unicode="l" horiz-adv-x="391" d="M84 -59l285 1341q-2 0 -4.5 -1t-4.5 -1q-16 0 -32.5 13.5t-16.5 29.5q0 27 45 43q27 6 38.5 7t31.5 5t63 15.5t136 40.5l-287 -1350l4 4q31 -2 48.5 -2h27.5l-17 -78q-86 -10 -163.5 -25.5t-153.5 -41.5z" />
<glyph unicode="m" horiz-adv-x="1179" d="M41 -27q18 31 31.5 50.5t22.5 41t17.5 50t18.5 78.5l164 780h-8q-16 0 -31.5 14t-15.5 31q0 20 43 41q25 4 35 5t31.5 6t65.5 17.5t136 38.5q-4 -20 -6 -34.5t-8 -26.5q82 59 168 59q121 0 155 -100q104 104 234 104q98 0 152 -62.5t54 -158.5q-2 -23 -4 -44t-6 -48 l-153 -731h33.5t46.5 2l-17 -80q-49 0 -128 -15.5t-187 -49.5l184 860q4 25 6 47t2 43q0 117 -55 117q-49 0 -80 -47.5t-53 -145.5l-135 -637q-4 -16 -9.5 -67.5t-13.5 -137.5q-42 3 -66 3q-11 0 -19 -1q-22 -2 -40 2l-153 -4q29 53 50 107.5t34 112.5l129 608q4 29 7 53.5 t3 50.5q0 98 -49 99q-43 0 -89 -54.5t-63 -150.5l-127 -621q-10 -55 -14 -91t-6 -58q0 -16 6 -56q-35 1 -61 1h-24q-32 -1 -46 3q-23 -4 -61 -3h-28q-31 0 -73 -1z" />
<glyph unicode="n" horiz-adv-x="841" d="M41 -27q61 100 86 220l164 778q-55 0 -55 49q0 20 43 39q29 4 38 5t27 5t61.5 16.5t141.5 40.5q-6 -23 -10.5 -39t-8.5 -30q89 65 192 65h3q109 0 172 -63.5t63 -167.5q0 -37 -8 -76l-153 -731h35.5t44.5 2l-17 -80q-141 0 -315 -67l182 862q4 16 6 33.5t2 35.5 q0 127 -88 127q-31 0 -60.5 -15t-54 -41t-40 -58.5t-17.5 -65.5q0 -6 -8 -47t-20.5 -101.5t-28 -133t-29.5 -141t-26.5 -127t-18.5 -89.5q-10 -43 -15 -82t-5 -73v-25.5t4 -24.5l-133 4z" />
<glyph unicode="o" horiz-adv-x="901" d="M152 272q0 61 14 150.5t35.5 179.5t46 170t47.5 121q31 59 82 106.5t111.5 79t127 49t127.5 17.5q258 0 258 -326q0 -162 -55 -358q-74 -260 -198.5 -384t-337.5 -124q-258 0 -258 319zM373 279q0 -211 121 -211q31 0 63 8q27 10 53.5 48t51 95t47 127t38 143.5 t24.5 145.5t9 133q0 256 -131 256q-35 0 -63.5 -17.5t-55 -57.5t-50 -108.5t-48.5 -168.5q-33 -129 -46 -226.5t-13 -166.5z" />
<glyph unicode="p" horiz-adv-x="862" d="M-14 -324q25 43 37 68t23 59.5t23.5 91t34.5 164.5q-61 51 -61 131l47 72q8 -51 43 -80l164 791h-8q-16 0 -32.5 14t-16.5 33q0 20 45 39q29 6 39 7t30.5 5t63.5 15.5t135 39.5l-21 -79q81 69 209 69h4q47 0 86 -30.5t66 -84t41 -123t14 -147.5q0 -158 -41 -297 t-114.5 -243.5t-177 -165t-228.5 -60.5q-20 0 -42.5 2t-43.5 6q-37 -182 -37 -297q-42 3 -73 3h-14q-34 -1 -44 4q-25 0 -57.5 -2.5t-93.5 -4.5zM319 78q12 -2 25.5 -3t30.5 -1q74 0 137 51t110.5 139t74 207t26.5 252v33q0 123 -22.5 181t-63.5 58q-80 0 -121 -94t-65 -250 q-4 -27 -32 -172t-100 -401z" />
<glyph unicode="q" horiz-adv-x="860" d="M135 270q0 154 39 304.5t107.5 269.5t162 192.5t201.5 73.5q37 0 75 -20.5t71.5 -45t60.5 -45t37 -20.5q49 0 110 94l-231 -1192q-20 -94 -20 -143q0 -14 1 -29.5t3 -32.5q-47 2 -75 2t-50 5q-31 0 -69 -3.5t-91 -3.5q47 84 71.5 182.5t47.5 200.5q-96 -90 -217 -90 q-233 0 -234 301zM352 266q0 -160 97 -160q76 0 117.5 52.5t68.5 139.5t45 199.5t47 235.5q0 2 6 17.5t12.5 38t12.5 46t6 39.5q0 53 -40 93.5t-89 40.5q-39 0 -75 -34t-66.5 -92.5t-57 -133t-45 -157.5t-29 -167t-10.5 -158z" />
<glyph unicode="r" horiz-adv-x="604" d="M39 -27q31 49 49 98.5t33 100.5l170 801h-12q-14 0 -30 14t-16 31q0 29 41 41q29 4 40.5 5t31 5t61.5 16.5t134 40.5l-29 -141q111 145 231 145q31 0 59.5 -15t59.5 -44l-166 -225q0 121 -47 121q-20 0 -47 -25q-41 -35 -70.5 -78t-52 -98t-39 -126t-32.5 -161l-70 -319 q-10 -41 -14.5 -72t-4.5 -53q0 -8 1.5 -23.5t3.5 -38.5q-39 3 -66 3q-13 0 -24 -1q-31 -2 -44 2q-24 -4 -60 -3h-26q-28 0 -65 -1z" />
<glyph unicode="s" horiz-adv-x="741" d="M66 59l145 295q8 -66 15 -117t21.5 -85.5t38 -52t64.5 -17.5q33 0 64.5 19.5t56.5 50t40 67.5t15 72q0 80 -77 133q-45 31 -86 58.5t-73 60t-50.5 72.5t-18.5 100q0 84 35 159.5t92.5 134t133 93.5t159.5 35q157 -1 233 -95q-16 -35 -42.5 -91t-63.5 -128 q-23 63 -36 101.5t-26.5 57.5t-30 24.5t-42.5 5.5q-39 0 -71 -18.5t-55.5 -47t-36.5 -66.5t-13 -75q0 -76 80 -133q45 -31 86 -59.5t72.5 -60.5t51 -71t19.5 -94q0 -80 -36 -157.5t-94 -139t-134 -99.5t-158 -38q-106 0 -278 106z" />
<glyph unicode="t" horiz-adv-x="497" d="M141 193q0 23 3 45t8 47l133 628q4 14 6 27.5t6 26.5h-72l23 114h80q26 126 26 165q0 6 -1 26t-3 53q86 12 283 115q-18 -41 -31.5 -82t-25 -85t-21.5 -91t-25 -101h175l-27 -114h-166l-10 -72l-140 -649q-6 -29 -6 -72q0 -96 43 -96q29 0 115 88l37 -117 q-92 -96 -197 -96q-96 0 -154.5 66.5t-58.5 173.5z" />
<glyph unicode="u" horiz-adv-x="860" d="M133 199q0 16 2 34.5t6 42.5l150 697h-12q-16 0 -32 15.5t-16 31.5q0 20 43 39q27 6 39.5 7t33 5t62.5 15.5t132 39.5l-176 -835q-4 -20 -6.5 -40t-2.5 -38q0 -125 88 -125q63 0 111.5 52.5t65.5 133.5l114 584q14 70 20.5 125t8.5 98q0 8 -1 16.5t-1 18.5q55 -4 85 -7 t40 -3q4 0 39 3t98 7q-16 -53 -32.5 -119.5t-37.5 -152.5l-155 -733q0 -12 12 -13q18 0 66 21l-19 -94q-61 -18 -124.5 -36t-106.5 -18q-27 0 -45.5 14.5t-18.5 39.5v6q-90 -66 -196 -66q-104 0 -169 62.5t-65 171.5z" />
<glyph unicode="v" horiz-adv-x="794" d="M229 1018q0 14 13.5 23.5t44 19.5t81 24.5t124.5 36.5q27 -172 38 -328.5t11 -310.5v-96q86 139 151.5 279.5t118.5 291.5q10 35 18.5 53.5t8.5 26.5q0 20 -31 35l10 45l172 -37q-59 -172 -139 -355t-195 -384q-37 -61 -95 -153.5t-144 -215.5h-62q0 96 -4 225.5 t-12 293.5q-25 434 -57 479q-51 20 -52 47z" />
<glyph unicode="w" horiz-adv-x="1169" d="M229 1018q0 16 30 29.5t72 24.5t86 23.5t75 26.5q29 -190 43 -324t14 -220q0 -39 -2 -86.5t-6 -102.5q20 33 46.5 88t55.5 120t56.5 133.5t50 129t36 104.5t13.5 62q0 12 -49 12l18 80h23q41 0 70.5 5t49.5 16q29 -152 44.5 -300.5t15.5 -301.5q0 -37 -1 -74t-3 -70 q27 45 64.5 123t84.5 197q106 256 107 313q0 10 -35 10l18 82q8 -2 49 -11.5t119 -23.5q-35 -133 -97.5 -288.5t-136 -308t-153.5 -288t-149 -225.5h-64q25 414 25 490q0 47 -3 93t-5 91q-129 -315 -375 -674h-62q0 154 -4 289t-13 257t-22.5 233.5t-31.5 218.5l-36 16 t-18 31z" />
<glyph unicode="x" horiz-adv-x="841" d="M59 53q0 123 138 187l51 -95q27 18 43 33t36.5 43.5t51.5 79.5t86 143l-115 508q-2 8 -15 13.5t-27.5 10.5t-26 14t-11.5 28q0 18 14.5 27.5t45 18.5t81 22.5t121.5 37.5l86 -376q184 346 330 346q96 -1 96 -103q0 -121 -137 -190l-57 104q-51 -29 -203 -293l119 -516 q4 -10 57 -10h25l18 -82q-72 -4 -145.5 -16.5t-145.5 -34.5l-79 360q-194 -364 -339 -364h-1q-96 0 -97 104z" />
<glyph unicode="y" horiz-adv-x="806" d="M-10 -276q0 121 139 188l53 -98q55 41 172 217q-2 211 -13 400.5t-34 359.5q0 2 -4 28.5t-9 57t-9 59.5t-4 35q-51 14 -52 47q0 14 14.5 23.5t45 19.5t81 23.5t122.5 37.5q8 -47 14 -116.5t11 -148.5t9 -161t8.5 -150.5t7.5 -119.5t5 -68q133 213 280 650q2 2 2 12 q0 16 -22 16h-6l16 82q29 -8 71 -16.5t101 -20.5q-84 -258 -245.5 -571t-407.5 -684q-139 -207 -250 -207q-96 0 -96 105z" />
<glyph unicode="z" horiz-adv-x="784" d="M29 -49q66 98 238.5 337.5t453.5 622.5q-39 -20 -88 -20q-16 0 -43 9t-54.5 21.5t-51 21.5t-31.5 9q-68 0 -113 -82l-84 35q119 223 264 223q37 0 72 -10t69.5 -21.5t67.5 -21.5t68 -10q79 0 200 63q-82 -121 -253 -359.5t-437 -600.5q39 20 88 20q16 0 43 -9t54.5 -21.5 t50 -21.5t32.5 -9q66 0 117 82l82 -35q-119 -223 -266 -223q-23 0 -62.5 8t-83 17.5t-81 17.5t-56.5 8q-86 0 -196 -51z" />
<glyph unicode="{" horiz-adv-x="624" d="M260 -250q0 57 18.5 139t40 168t40 168t18.5 140q0 111 -113 131l21 92q82 14 125 75.5t68.5 156.5t47 219t62.5 268q94 248 362 301l-20 -95q-82 -27 -126 -78t-67.5 -122.5t-35 -161.5t-25.5 -195q-14 -82 -36 -144t-52.5 -110.5t-73.5 -87.5t-100 -75 q109 -90 108 -252q0 -45 -18.5 -126t-42 -168t-42 -164t-18.5 -116q0 -109 113 -153l-18 -86q-236 51 -236 276z" />
<glyph unicode="|" horiz-adv-x="395" d="M76 -213l368 1745h121l-370 -1745h-119z" />
<glyph unicode="}" horiz-adv-x="688" d="M49 -526l21 94q82 27 126 78t66.5 122.5t33.5 161.5t26 195q14 82 35.5 144.5t53 110.5t73.5 87t102 74q-109 94 -109 254q0 45 18.5 125.5t42 167t42 164t18.5 116.5q0 109 -113 154l19 86q236 -51 235 -277q0 -59 -18.5 -140t-40 -167t-39.5 -168t-18 -139 q0 -111 112 -131l-20 -92q-82 -16 -125 -77t-68.5 -156t-48 -219t-61.5 -267q-96 -250 -363 -301z" />
<glyph unicode="&#xa1;" horiz-adv-x="509" d="M106 33q0 8 11.5 35.5t34.5 78.5q29 84 59.5 181.5t59 197t54 195.5t48 176t39 139.5t26.5 85.5h101l-31 -239q-16 -104 -31.5 -214t-27 -208.5t-17.5 -178t-6 -124.5q0 -20 1 -34.5t1 -29.5t-4 -35q-12 -59 -64.5 -92t-117.5 -33q-53 0 -94.5 27t-41.5 72zM406 1298 q0 41 14 73t36.5 54.5t51.5 33.5t59 11q92 0 92 -96q0 -30 -14 -67q-43 -102 -147 -103q-92 0 -92 94z" />
<glyph unicode="&#xa2;" horiz-adv-x="835" d="M250 745q0 94 34.5 182.5t95 159t140.5 118.5t172 65l31 149h113l-33 -145q86 -18 144.5 -51t58.5 -76q0 -33 -25 -51.5t-55 -18.5q-25 0 -38.5 15.5t-26.5 35t-30.5 37t-46.5 19.5l-135 -639q88 10 180 110l89 -34q-72 -72 -144 -113t-145 -57l-33 -148h-109l29 141 q-125 12 -195.5 92t-70.5 209zM481 745q0 -127 60 -176l125 582q-39 -25 -73 -71t-58.5 -101t-39 -115.5t-14.5 -118.5z" />
<glyph unicode="&#xa5;" horiz-adv-x="872" d="M135 184l33 158h209l18 90h-207l33 158h209l31 149l-103 584q-4 10 -51 10h-22l16 84q160 -6 176 -6q18 0 178 6l-16 -82q-61 -10 -61 -30q0 -2 8 -42t19 -95.5t22.5 -117t17.5 -104.5q43 61 99.5 154.5t129.5 222.5l3 4q-2 8 -54 8l19 82q111 -6 121 -6q12 0 141 6 l-17 -84q-70 0 -96 -45q-6 -14 -39.5 -70.5t-75.5 -122t-82 -128t-57 -88.5q-16 -23 -23 -30t-12.5 -21.5t-11.5 -46t-22 -105.5l-19 -86h209l-35 -158h-207l-20 -90h209l-35 -158h-207l-2 -16q-8 -47 -14 -72.5t-6 -32.5q0 -8 41 -8h18l-16 -82q-76 2 -118 3t-50 1 t-54.5 -1t-132.5 -3l19 80q70 2 76 37l20 94h-209z" />
<glyph unicode="&#xa8;" horiz-adv-x="856" d="M555 1341q0 61 40 105.5t97 44.5q41 0 70 -27.5t29 -72.5q0 -57 -41 -102.5t-99 -45.5q-45 0 -70.5 28.5t-25.5 69.5zM825 1341q0 61 42 105.5t98 44.5q43 0 70.5 -27.5t27.5 -72.5q0 -57 -40 -102.5t-99 -45.5q-43 0 -71 28.5t-28 69.5z" />
<glyph unicode="&#xa9;" horiz-adv-x="1267" d="M190 580q0 121 46.5 227t125 185t185 125t227.5 46q119 0 224.5 -45t185.5 -124t126 -185t46 -229q0 -119 -46 -224.5t-125 -185.5t-185.5 -127t-225.5 -47q-123 0 -229.5 47t-185 127t-124 185.5t-45.5 224.5zM244 580q0 -109 42 -205t113.5 -168t169 -113t205.5 -41 q106 0 202.5 42t168.5 114t113.5 167t41.5 204q0 106 -41.5 202.5t-113.5 169t-168 114.5t-203 42q-109 0 -206 -42t-168.5 -113.5t-113.5 -168t-42 -204.5zM393 551q0 4 4 23.5t13 60.5v45q0 14 4 27q104 285 401 284q43 0 87 -8t78 -22.5t55.5 -35.5t21.5 -46 q0 -37 -39 -37q-23 0 -45.5 17.5t-48 38t-53 37.5t-56.5 17q-74 0 -121 -45t-73.5 -108.5t-37 -129t-10.5 -106.5q0 -12 7.5 -38.5t9.5 -39.5q2 -53 22.5 -100t54 -83t80 -57.5t99.5 -21.5q45 0 98 28t84 62l16 -6q-4 -25 -33.5 -49.5t-70.5 -43.5t-87 -31.5t-81 -12.5 q-43 0 -90 9t-91 30.5t-83 55.5t-66 83q-2 14 -9 41t-16 56.5t-16.5 58t-7.5 47.5z" />
<glyph unicode="&#xab;" horiz-adv-x="774" d="M174 674l289 260l250 65l-342 -307l170 -252l-172 -49zM449 674l288 260l250 65l-344 -307l172 -252l-174 -49z" />
<glyph unicode="&#xad;" horiz-adv-x="626" d="M219 631l31 151h479l-31 -151h-479z" />
<glyph unicode="&#xae;" horiz-adv-x="663" d="M369 1090q0 61 24.5 117.5t66.5 98.5t97 66.5t117 24.5q63 0 120.5 -24.5t99.5 -66.5t66.5 -98.5t24.5 -117.5q0 -63 -24.5 -120t-66.5 -99t-99.5 -66.5t-120.5 -24.5q-61 0 -116.5 24.5t-97.5 66.5t-66.5 98.5t-24.5 120.5zM395 1090q0 -57 22.5 -108.5t60.5 -89.5 t89 -60.5t107 -22.5q57 0 108.5 22.5t89 60.5t60 89.5t22.5 108.5q0 55 -22.5 106t-60 89t-89 60.5t-108.5 22.5t-107.5 -22.5t-88.5 -60.5t-60.5 -89t-22.5 -106zM535 907v8q27 0 26 25v322q0 27 -24 26v8h176q98 0 98 -86q0 -70 -76 -96q41 -8 53.5 -37.5t16.5 -64.5 t9 -63.5t34 -33.5v-8q-72 0 -92 49l-19 101q-10 49 -49 49h-63v-166q0 -25 22 -25v-8h-112zM625 1124h69q56 0 56 72q0 86 -95 86h-30v-158z" />
<glyph unicode="&#xb4;" horiz-adv-x="477" d="M678 1325q45 27 93 51.5t91 44t77 31.5t52 12q72 0 72 -63q0 -66 -82 -88l-262 -72z" />
<glyph unicode="&#xb8;" horiz-adv-x="915" d="M449 -412l16 84q72 0 118 36t46 91q0 43 -76 43l98 205l107 19l-64 -144q55 -4 74.5 -36.5t19.5 -71.5q0 -47 -29.5 -88t-76.5 -72t-108.5 -48.5t-124.5 -17.5z" />
<glyph unicode="&#xbb;" horiz-adv-x="866" d="M117 365l342 309l-170 250l172 47l194 -279l-290 -260zM424 365l344 309l-174 250l176 47l191 -279l-289 -260z" />
<glyph unicode="&#xbf;" horiz-adv-x="755" d="M123 240q0 133 125 284l239 242q125 125 125 197q0 33 -32 178l102 30l72 -270q2 -10 2 -19.5v-17.5q0 -92 -107 -205q-55 -53 -111.5 -106t-100.5 -105.5t-71.5 -100.5t-27.5 -91q0 -63 34 -100t93 -37q96 0 229 139l58 -92q-158 -168 -377 -168q-119 0 -185.5 61.5 t-66.5 180.5zM539 1294q0 63 42 112.5t107 49.5q45 0 74 -28.5t29 -73.5q0 -63 -42 -114.5t-108 -51.5q-45 0 -73.5 29.5t-28.5 76.5z" />
<glyph unicode="&#xc0;" d="M6 -29l17 82q66 0 79 27l633 1261l-8 74q53 -4 83 -6t34 -2t28.5 2t71.5 4l103 -1339q6 -20 77 -21l-18 -82q-78 4 -119 5t-49 1t-52 -1t-124 -5l16 82q14 0 21 -2h18q10 0 17 8q-6 47 -10.5 104.5t-8.5 129.5h-493q-27 -55 -54.5 -111.5t-58.5 -115.5v-3q0 -8 24 -10h35 l-18 -82q-59 4 -91 5t-36 1t-34 -1t-83 -5zM371 389h436q-6 14 -8 35.5t-4 52.5l-21 266q-4 66 -15 167.5t-18 240.5q-33 -86 -125 -274.5t-245 -487.5zM766 1852q0 33 27.5 56.5t66.5 23.5q20 0 50 -13.5t64.5 -34t72.5 -47t77 -53.5l-67 -73l-230 69q-61 18 -61 72z" />
<glyph unicode="&#xc1;" d="M6 -29l17 82q66 0 79 27l633 1261l-8 74q53 -4 83 -6t34 -2t28.5 2t71.5 4l103 -1339q6 -20 77 -21l-18 -82q-78 4 -119 5t-49 1t-52 -1t-124 -5l16 82q14 0 21 -2h18q10 0 17 8q-6 47 -10.5 104.5t-8.5 129.5h-493q-27 -55 -54.5 -111.5t-58.5 -115.5v-3q0 -8 24 -10h35 l-18 -82q-59 4 -91 5t-36 1t-34 -1t-83 -5zM371 389h436q-6 14 -8 35.5t-4 52.5l-21 266q-4 66 -15 167.5t-18 240.5q-33 -86 -125 -274.5t-245 -487.5zM703 1604q45 27 93 51.5t91 44t77 31.5t52 12q72 0 72 -63q0 -66 -82 -88l-262 -72z" />
<glyph unicode="&#xc2;" d="M6 -29l17 82q66 0 79 27l633 1261l-8 74q53 -4 83 -6t34 -2t28.5 2t71.5 4l103 -1339q6 -20 77 -21l-18 -82q-78 4 -119 5t-49 1t-52 -1t-124 -5l16 82q14 0 21 -2h18q10 0 17 8q-6 47 -10.5 104.5t-8.5 129.5h-493q-27 -55 -54.5 -111.5t-58.5 -115.5v-3q0 -8 24 -10h35 l-18 -82q-59 4 -91 5t-36 1t-34 -1t-83 -5zM371 389h436q-6 14 -8 35.5t-4 52.5l-21 266q-4 66 -15 167.5t-18 240.5q-33 -86 -125 -274.5t-245 -487.5zM684 1582q0 27 19.5 49t52 41.5t74.5 39t87 40.5q68 -37 120 -70t52 -84q0 -66 -65 -66q-47 0 -125 88 q-113 -88 -160 -88q-55 0 -55 50z" />
<glyph unicode="&#xc3;" d="M6 -29l17 82q66 0 79 27l633 1261l-8 74q53 -4 83 -6t34 -2t28.5 2t71.5 4l103 -1339q6 -20 77 -21l-18 -82q-78 4 -119 5t-49 1t-52 -1t-124 -5l16 82q14 0 21 -2h18q10 0 17 8q-6 47 -10.5 104.5t-8.5 129.5h-493q-27 -55 -54.5 -111.5t-58.5 -115.5v-3q0 -8 24 -10h35 l-18 -82q-59 4 -91 5t-36 1t-34 -1t-83 -5zM371 389h436q-6 14 -8 35.5t-4 52.5l-21 266q-4 66 -15 167.5t-18 240.5q-33 -86 -125 -274.5t-245 -487.5zM630 1534q55 203 199 203q23 0 55.5 -15.5t63.5 -33.5t54 -33l22 -16q25 0 34 29.5t25 72.5h84q-29 -92 -82 -149.5 t-123 -57.5q-25 0 -54.5 15.5t-57 35t-47 35t-21.5 15.5q-23 0 -70 -101h-82z" />
<glyph unicode="&#xc4;" d="M6 -29l17 82q66 0 79 27l633 1261l-8 74q53 -4 83 -6t34 -2t28.5 2t71.5 4l103 -1339q6 -20 77 -21l-18 -82q-78 4 -119 5t-49 1t-52 -1t-124 -5l16 82q14 0 21 -2h18q10 0 17 8q-6 47 -10.5 104.5t-8.5 129.5h-493q-27 -55 -54.5 -111.5t-58.5 -115.5v-3q0 -8 24 -10h35 l-18 -82q-59 4 -91 5t-36 1t-34 -1t-83 -5zM371 389h436q-6 14 -8 35.5t-4 52.5l-21 266q-4 66 -15 167.5t-18 240.5q-33 -86 -125 -274.5t-245 -487.5zM647 1620q0 61 40 105.5t97 44.5q41 0 70 -27.5t29 -72.5q0 -57 -41 -102.5t-99 -45.5q-45 0 -70.5 28.5t-25.5 69.5z M917 1620q0 61 42 105.5t98 44.5q43 0 70.5 -27.5t27.5 -72.5q0 -57 -40 -102.5t-99 -45.5q-43 0 -71 28.5t-28 69.5z" />
<glyph unicode="&#xc5;" d="M6 -29l17 82q66 0 79 27l633 1261l-8 74q53 -4 83 -6t34 -2t28.5 2t71.5 4l103 -1339q6 -20 77 -21l-18 -82q-78 4 -119 5t-49 1t-52 -1t-124 -5l16 82q14 0 21 -2h18q10 0 17 8q-6 47 -10.5 104.5t-8.5 129.5h-493q-27 -55 -54.5 -111.5t-58.5 -115.5v-3q0 -8 24 -10h35 l-18 -82q-59 4 -91 5t-36 1t-34 -1t-83 -5zM371 389h436q-6 14 -8 35.5t-4 52.5l-21 266q-4 66 -15 167.5t-18 240.5q-33 -86 -125 -274.5t-245 -487.5zM723 1602q0 39 17.5 70.5t45 53t64.5 33t74 11.5q66 0 108.5 -34t42.5 -87q0 -37 -17.5 -66.5t-45 -52t-63.5 -35 t-75 -12.5q-68 0 -109.5 31t-41.5 88zM817 1612q0 -20 13.5 -31.5t48.5 -11.5q41 0 69.5 19.5t28.5 54.5q0 41 -62 41q-37 0 -67.5 -21.5t-30.5 -50.5z" />
<glyph unicode="&#xc6;" d="M12 -29l17 82q66 0 84 31l626 1255l-47 78q141 -6 232 -6q25 0 72.5 1t100 1t99.5 1t72 1l-35 -241h-68q-2 145 -24 145h-150l-157 -744h104q29 0 53 109h80l-67 -317h-80q14 59 14 100q0 14 -10 14h-117q-14 -53 -29.5 -110.5t-28 -111.5t-20.5 -102t-8 -85q0 -6 4 -6 q2 0 6 2t8 2h203q31 0 96 145h72l-70 -240h-520q-2 0 -25.5 -1t-74.5 -3l2 4h-10l16 80q63 0 72 33l84 393h-154q-211 -420 -211 -424t60 -4l-17 -82q-57 4 -89 5t-36 1q-6 0 -37.5 -1t-91.5 -5zM483 575h123l92 433z" />
<glyph unicode="&#xc7;" horiz-adv-x="1026" d="M172 391q0 229 57.5 418.5t155.5 325t232.5 210t287.5 74.5q37 0 64.5 -9t52.5 -27.5t49.5 -46t54.5 -64.5q4 0 13 39h69l-51 -328h-67q-2 70 -20.5 130.5t-49.5 105.5t-72 69.5t-90 24.5q-53 0 -108.5 -35t-105.5 -96.5t-93 -143.5t-75 -177t-50 -197.5t-18 -204.5 q0 -383 188 -383q63 0 129 31.5t121 84t96 118t57 130.5h74l-90 -327h-76l8 18q-145 -125 -313 -156l-22 -53q55 -4 74.5 -36.5t19.5 -71.5q0 -47 -30 -88t-77 -72t-107.5 -48.5t-123.5 -17.5l16 84q72 0 117 36t45 91q0 43 -76 43l60 125q-326 12 -326 424z" />
<glyph unicode="&#xc8;" horiz-adv-x="868" d="M14 -25l17 80q70 0 75 31l259 1225q0 14 -7.5 18t-50.5 4l17 82h702l-33 -241h-61q-2 145 -35 145h-319q-4 -27 -8.5 -53.5t-10.5 -55.5l-84 -399q-2 -18 -9 -34.5t-9 -33.5h284q33 0 50 111h71l-45 -319h-72q4 27 6.5 44t2.5 25q0 45 -23 45h-295q-4 -35 -12 -69 l-84 -406q-4 -14 -17.5 -42t-13.5 -56q0 -8 13 -8l395 2q29 0 94 145h63l-67 -240h-793zM645 1852q0 33 27.5 56.5t66.5 23.5q20 0 50 -13.5t64.5 -34t72.5 -47t77 -53.5l-67 -73l-230 69q-61 18 -61 72z" />
<glyph unicode="&#xc9;" horiz-adv-x="868" d="M14 -25l17 80q70 0 75 31l259 1225q0 14 -7.5 18t-50.5 4l17 82h702l-33 -241h-61q-2 145 -35 145h-319q-4 -27 -8.5 -53.5t-10.5 -55.5l-84 -399q-2 -18 -9 -34.5t-9 -33.5h284q33 0 50 111h71l-45 -319h-72q4 27 6.5 44t2.5 25q0 45 -23 45h-295q-4 -35 -12 -69 l-84 -406q-4 -14 -17.5 -42t-13.5 -56q0 -8 13 -8l395 2q29 0 94 145h63l-67 -240h-793zM590 1604q45 27 93 51.5t91 44t77 31.5t52 12q72 0 72 -63q0 -66 -82 -88l-262 -72z" />
<glyph unicode="&#xca;" horiz-adv-x="868" d="M14 -25l17 80q70 0 75 31l259 1225q0 14 -7.5 18t-50.5 4l17 82h702l-33 -241h-61q-2 145 -35 145h-319q-4 -27 -8.5 -53.5t-10.5 -55.5l-84 -399q-2 -18 -9 -34.5t-9 -33.5h284q33 0 50 111h71l-45 -319h-72q4 27 6.5 44t2.5 25q0 45 -23 45h-295q-4 -35 -12 -69 l-84 -406q-4 -14 -17.5 -42t-13.5 -56q0 -8 13 -8l395 2q29 0 94 145h63l-67 -240h-793zM574 1582q0 27 19.5 49t52 41.5t74.5 39t87 40.5q68 -37 120 -70t52 -84q0 -66 -65 -66q-47 0 -125 88q-113 -88 -160 -88q-55 0 -55 50z" />
<glyph unicode="&#xcb;" horiz-adv-x="868" d="M14 -25l17 80q70 0 75 31l259 1225q0 14 -7.5 18t-50.5 4l17 82h702l-33 -241h-61q-2 145 -35 145h-319q-4 -27 -8.5 -53.5t-10.5 -55.5l-84 -399q-2 -18 -9 -34.5t-9 -33.5h284q33 0 50 111h71l-45 -319h-72q4 27 6.5 44t2.5 25q0 45 -23 45h-295q-4 -35 -12 -69 l-84 -406q-4 -14 -17.5 -42t-13.5 -56q0 -8 13 -8l395 2q29 0 94 145h63l-67 -240h-793zM537 1620q0 61 40 105.5t97 44.5q41 0 70 -27.5t29 -72.5q0 -57 -41 -102.5t-99 -45.5q-45 0 -70.5 28.5t-25.5 69.5zM807 1620q0 61 42 105.5t98 44.5q43 0 70.5 -27.5t27.5 -72.5 q0 -57 -40 -102.5t-99 -45.5q-43 0 -71 28.5t-28 69.5z" />
<glyph unicode="&#xcc;" horiz-adv-x="395" d="M20 -29l19 82q68 0 78 37l258 1227q0 18 -60 18l19 82q143 -6 160 -6q12 0 194 6l-20 -82q-68 -4 -78 -39l-256 -1226q0 -16 57 -17l-16 -82q-80 4 -122 5t-48 1q-8 0 -53.5 -1t-131.5 -5zM418 1852q0 33 27.5 56.5t66.5 23.5q20 0 50 -13.5t64.5 -34t72.5 -47t77 -53.5 l-67 -73l-230 69q-61 18 -61 72z" />
<glyph unicode="&#xcd;" horiz-adv-x="395" d="M20 -29l19 82q68 0 78 37l258 1227q0 18 -60 18l19 82q143 -6 160 -6q12 0 194 6l-20 -82q-68 -4 -78 -39l-256 -1226q0 -16 57 -17l-16 -82q-80 4 -122 5t-48 1q-8 0 -53.5 -1t-131.5 -5zM352 1604q45 27 93 51.5t91 44t77 31.5t52 12q72 0 72 -63q0 -66 -82 -88 l-262 -72z" />
<glyph unicode="&#xce;" horiz-adv-x="395" d="M20 -29l19 82q68 0 78 37l258 1227q0 18 -60 18l19 82q143 -6 160 -6q12 0 194 6l-20 -82q-68 -4 -78 -39l-256 -1226q0 -16 57 -17l-16 -82q-80 4 -122 5t-48 1q-8 0 -53.5 -1t-131.5 -5zM336 1582q0 27 19.5 49t52 41.5t74.5 39t87 40.5q68 -37 120 -70t52 -84 q0 -66 -65 -66q-47 0 -125 88q-113 -88 -160 -88q-55 0 -55 50z" />
<glyph unicode="&#xcf;" horiz-adv-x="395" d="M20 -29l19 82q68 0 78 37l258 1227q0 18 -60 18l19 82q143 -6 160 -6q12 0 194 6l-20 -82q-68 -4 -78 -39l-256 -1226q0 -16 57 -17l-16 -82q-80 4 -122 5t-48 1q-8 0 -53.5 -1t-131.5 -5zM299 1620q0 61 40 105.5t97 44.5q41 0 70 -27.5t29 -72.5q0 -57 -41 -102.5 t-99 -45.5q-45 0 -70.5 28.5t-25.5 69.5zM569 1620q0 61 42 105.5t98 44.5q43 0 70.5 -27.5t27.5 -72.5q0 -57 -40 -102.5t-99 -45.5q-43 0 -71 28.5t-28 69.5z" />
<glyph unicode="&#xd1;" horiz-adv-x="1032" d="M4 -27l19 80q66 2 75 37l260 1227q0 16 -59 18l16 82q59 -4 92 -7t39 -3q8 0 37 3t82 7l295 -799l55 -165q4 18 17.5 82.5t32 154.5t40 191.5t40 190.5t32 153.5t15.5 81.5v6q0 20 -50 20h-10l21 84q106 -6 121 -6q12 0 135 6l-17 -82q-68 -2 -75 -39l-316 -1437 q-35 113 -84 248t-115 294q-6 14 -28.5 68.5t-51 129.5t-61.5 159t-60.5 155.5t-46 120.5t-20.5 58q-16 -43 -49 -210t-98 -464q-35 -147 -50.5 -231.5t-15.5 -110.5q0 -20 49 -21h11l-17 -82q-55 2 -86 3t-37 1t-40.5 -1t-96.5 -3zM593 1534q55 203 199 203 q23 0 55.5 -15.5t63.5 -33.5t54 -33l22 -16q25 0 34 29.5t25 72.5h84q-29 -92 -82 -149.5t-123 -57.5q-25 0 -54.5 15.5t-57 35t-47 35t-21.5 15.5q-23 0 -70 -101h-82z" />
<glyph unicode="&#xd2;" horiz-adv-x="1056" d="M158 319q0 76 14 173.5t41 224.5q70 348 227.5 530.5t436.5 182.5q307 -1 307 -400q-2 -68 -10.5 -143.5t-24.5 -163.5q-43 -199 -101.5 -343t-141.5 -238.5t-193.5 -139.5t-253.5 -45q-301 0 -301 362zM395 340q0 -276 129 -277q162 0 273 256q31 70 57.5 166.5 t47 198.5t32.5 199.5t12 169.5q0 268 -129 268q-121 0 -218 -163t-161 -466q-20 -98 -31.5 -185t-11.5 -167zM740 1852q0 33 27.5 56.5t66.5 23.5q20 0 50 -13.5t64.5 -34t72.5 -47t77 -53.5l-67 -73l-230 69q-61 18 -61 72z" />
<glyph unicode="&#xd3;" horiz-adv-x="1056" d="M158 319q0 76 14 173.5t41 224.5q70 348 227.5 530.5t436.5 182.5q307 -1 307 -400q-2 -68 -10.5 -143.5t-24.5 -163.5q-43 -199 -101.5 -343t-141.5 -238.5t-193.5 -139.5t-253.5 -45q-301 0 -301 362zM395 340q0 -276 129 -277q162 0 273 256q31 70 57.5 166.5 t47 198.5t32.5 199.5t12 169.5q0 268 -129 268q-121 0 -218 -163t-161 -466q-20 -98 -31.5 -185t-11.5 -167zM678 1604q45 27 93 51.5t91 44t77 31.5t52 12q72 0 72 -63q0 -66 -82 -88l-262 -72z" />
<glyph unicode="&#xd4;" horiz-adv-x="1056" d="M158 319q0 76 14 173.5t41 224.5q70 348 227.5 530.5t436.5 182.5q307 -1 307 -400q-2 -68 -10.5 -143.5t-24.5 -163.5q-43 -199 -101.5 -343t-141.5 -238.5t-193.5 -139.5t-253.5 -45q-301 0 -301 362zM395 340q0 -276 129 -277q162 0 273 256q31 70 57.5 166.5 t47 198.5t32.5 199.5t12 169.5q0 268 -129 268q-121 0 -218 -163t-161 -466q-20 -98 -31.5 -185t-11.5 -167zM660 1582q0 27 19.5 49t52 41.5t74.5 39t87 40.5q68 -37 120 -70t52 -84q0 -66 -65 -66q-47 0 -125 88q-113 -88 -160 -88q-55 0 -55 50z" />
<glyph unicode="&#xd5;" horiz-adv-x="1056" d="M158 319q0 76 14 173.5t41 224.5q70 348 227.5 530.5t436.5 182.5q307 -1 307 -400q-2 -68 -10.5 -143.5t-24.5 -163.5q-43 -199 -101.5 -343t-141.5 -238.5t-193.5 -139.5t-253.5 -45q-301 0 -301 362zM395 340q0 -276 129 -277q162 0 273 256q31 70 57.5 166.5 t47 198.5t32.5 199.5t12 169.5q0 268 -129 268q-121 0 -218 -163t-161 -466q-20 -98 -31.5 -185t-11.5 -167zM606 1534q55 203 199 203q23 0 55.5 -15.5t63.5 -33.5t54 -33l22 -16q25 0 34 29.5t25 72.5h84q-29 -92 -82 -149.5t-123 -57.5q-25 0 -54.5 15.5t-57 35t-47 35 t-21.5 15.5q-23 0 -70 -101h-82z" />
<glyph unicode="&#xd6;" horiz-adv-x="1056" d="M158 319q0 76 14 173.5t41 224.5q70 348 227.5 530.5t436.5 182.5q307 -1 307 -400q-2 -68 -10.5 -143.5t-24.5 -163.5q-43 -199 -101.5 -343t-141.5 -238.5t-193.5 -139.5t-253.5 -45q-301 0 -301 362zM395 340q0 -276 129 -277q162 0 273 256q31 70 57.5 166.5 t47 198.5t32.5 199.5t12 169.5q0 268 -129 268q-121 0 -218 -163t-161 -466q-20 -98 -31.5 -185t-11.5 -167zM623 1620q0 61 40 105.5t97 44.5q41 0 70 -27.5t29 -72.5q0 -57 -41 -102.5t-99 -45.5q-45 0 -70.5 28.5t-25.5 69.5zM893 1620q0 61 42 105.5t98 44.5 q43 0 70.5 -27.5t27.5 -72.5q0 -57 -40 -102.5t-99 -45.5q-43 0 -71 28.5t-28 69.5z" />
<glyph unicode="&#xd8;" horiz-adv-x="1112" d="M160 319q0 145 55 398q37 178 93.5 311t136 222t187 134.5t247.5 45.5q307 -1 307 -400q-4 -68 -11.5 -143.5t-23.5 -163.5q-43 -201 -103.5 -345.5t-143.5 -237.5t-192.5 -138t-250.5 -45q-301 0 -301 362zM399 305l533 905q-29 111 -113 111q-129 0 -221 -156.5 t-158 -472.5q-41 -193 -41 -352v-35zM426 143q25 -80 98 -80q84 0 159 86.5t131 223.5t92 309t42 344z" />
<glyph unicode="&#xd9;" horiz-adv-x="964" d="M158 233q0 31 3 67t13 77l201 936q0 10 -13.5 16t-48.5 6l19 82q43 -6 69.5 -9t47 -3h40h46.5q25 0 59.5 2t89.5 10l-16 -82q-70 -4 -78 -39l-197 -923q-12 -59 -12 -113q0 -184 164 -184q39 0 76.5 23.5t71.5 63.5t59.5 90t38.5 103l200 961q0 18 -59 18l18 82 q45 -8 76 -9t53 -1q-2 0 23.5 2t60.5 3t68 3t43 2l-19 -82q-31 -2 -45 -3t-21 -13t-13.5 -43t-18.5 -90l-215 -1002q-10 -49 -15 -77.5t-5 -32.5q0 -20 47 -21h12l-18 -82q-8 0 -25.5 2t-36 3t-36 3.5t-27.5 2.5q-23 0 -54.5 -4.5t-74.5 -12.5q0 8 5 29.5t13 62.5 q-100 -96 -283 -96q-287 0 -286 272zM695 1852q0 33 27.5 56.5t66.5 23.5q20 0 50 -13.5t64.5 -34t72.5 -47t77 -53.5l-67 -73l-230 69q-61 18 -61 72z" />
<glyph unicode="&#xda;" horiz-adv-x="964" d="M158 233q0 31 3 67t13 77l201 936q0 10 -13.5 16t-48.5 6l19 82q43 -6 69.5 -9t47 -3h40h46.5q25 0 59.5 2t89.5 10l-16 -82q-70 -4 -78 -39l-197 -923q-12 -59 -12 -113q0 -184 164 -184q39 0 76.5 23.5t71.5 63.5t59.5 90t38.5 103l200 961q0 18 -59 18l18 82 q45 -8 76 -9t53 -1q-2 0 23.5 2t60.5 3t68 3t43 2l-19 -82q-31 -2 -45 -3t-21 -13t-13.5 -43t-18.5 -90l-215 -1002q-10 -49 -15 -77.5t-5 -32.5q0 -20 47 -21h12l-18 -82q-8 0 -25.5 2t-36 3t-36 3.5t-27.5 2.5q-23 0 -54.5 -4.5t-74.5 -12.5q0 8 5 29.5t13 62.5 q-100 -96 -283 -96q-287 0 -286 272zM637 1604q45 27 93 51.5t91 44t77 31.5t52 12q72 0 72 -63q0 -66 -82 -88l-262 -72z" />
<glyph unicode="&#xdb;" horiz-adv-x="964" d="M158 233q0 31 3 67t13 77l201 936q0 10 -13.5 16t-48.5 6l19 82q43 -6 69.5 -9t47 -3h40h46.5q25 0 59.5 2t89.5 10l-16 -82q-70 -4 -78 -39l-197 -923q-12 -59 -12 -113q0 -184 164 -184q39 0 76.5 23.5t71.5 63.5t59.5 90t38.5 103l200 961q0 18 -59 18l18 82 q45 -8 76 -9t53 -1q-2 0 23.5 2t60.5 3t68 3t43 2l-19 -82q-31 -2 -45 -3t-21 -13t-13.5 -43t-18.5 -90l-215 -1002q-10 -49 -15 -77.5t-5 -32.5q0 -20 47 -21h12l-18 -82q-8 0 -25.5 2t-36 3t-36 3.5t-27.5 2.5q-23 0 -54.5 -4.5t-74.5 -12.5q0 8 5 29.5t13 62.5 q-100 -96 -283 -96q-287 0 -286 272zM615 1582q0 27 19.5 49t52 41.5t74.5 39t87 40.5q68 -37 120 -70t52 -84q0 -66 -65 -66q-47 0 -125 88q-113 -88 -160 -88q-55 0 -55 50z" />
<glyph unicode="&#xdc;" horiz-adv-x="964" d="M158 233q0 31 3 67t13 77l201 936q0 10 -13.5 16t-48.5 6l19 82q43 -6 69.5 -9t47 -3h40h46.5q25 0 59.5 2t89.5 10l-16 -82q-70 -4 -78 -39l-197 -923q-12 -59 -12 -113q0 -184 164 -184q39 0 76.5 23.5t71.5 63.5t59.5 90t38.5 103l200 961q0 18 -59 18l18 82 q45 -8 76 -9t53 -1q-2 0 23.5 2t60.5 3t68 3t43 2l-19 -82q-31 -2 -45 -3t-21 -13t-13.5 -43t-18.5 -90l-215 -1002q-10 -49 -15 -77.5t-5 -32.5q0 -20 47 -21h12l-18 -82q-8 0 -25.5 2t-36 3t-36 3.5t-27.5 2.5q-23 0 -54.5 -4.5t-74.5 -12.5q0 8 5 29.5t13 62.5 q-100 -96 -283 -96q-287 0 -286 272zM578 1620q0 61 40 105.5t97 44.5q41 0 70 -27.5t29 -72.5q0 -57 -41 -102.5t-99 -45.5q-45 0 -70.5 28.5t-25.5 69.5zM848 1620q0 61 42 105.5t98 44.5q43 0 70.5 -27.5t27.5 -72.5q0 -57 -40 -102.5t-99 -45.5q-43 0 -71 28.5t-28 69.5 z" />
<glyph unicode="&#xdd;" horiz-adv-x="825" d="M229 -27l19 80q70 2 76 37l137 649l-103 584q-4 10 -51 10h-22l16 84q160 -6 178 -6q16 0 176 6l-16 -82q-61 -10 -61 -30q0 -2 8 -42t19 -95.5t22.5 -117t17.5 -104.5q43 61 99.5 154.5t129.5 222.5l3 4q0 8 -54 8l19 82q111 -6 121 -6q12 0 141 6l-17 -84 q-70 0 -96 -45q-6 -14 -39.5 -70.5t-75.5 -122t-82 -128t-57 -88.5q-16 -23 -23 -30t-12.5 -21.5t-11.5 -46t-22 -105.5l-107 -508q-8 -47 -14 -72.5t-6 -32.5q0 -8 41 -8h18l-16 -82q-76 2 -118 3t-50 1t-54.5 -1t-132.5 -3zM567 1604q45 27 93 51.5t91 44t77 31.5t52 12 q72 0 72 -63q0 -66 -82 -88l-262 -72z" />
<glyph unicode="&#xde;" horiz-adv-x="518" />
<glyph unicode="&#xdf;" horiz-adv-x="868" d="M43 -27l16 82h31q20 0 25 19l217 1018q68 324 469 323q106 0 161.5 -72.5t55.5 -193.5q0 -152 -58.5 -264.5t-142.5 -165.5q74 -59 74 -211q0 -33 -2 -61.5t-10 -59.5q-18 -92 -58.5 -168t-97.5 -129t-128 -83t-153 -30l19 91q37 0 71.5 31.5t62.5 82.5t45 117t17 133 q0 186 -208 209l-121 -567q0 -18 22 -19h6q12 -31 13 -51q0 -10 -1 -16t-3 -15q-70 2 -109 3t-47 1t-50 -1t-116 -3zM465 694q332 150 332 428q0 78 -27 131.5t-72 53.5q-49 0 -88 -55.5t-55 -141.5z" />
<glyph unicode="&#xe0;" horiz-adv-x="837" d="M115 338q0 150 36.5 288t105.5 245.5t165 172t213 64.5q20 0 50 -8t59.5 -17.5t51 -16.5t27.5 -7q94 0 160 53l-207 -997v-4q0 -12 15 -13l67 23l-20 -96l-119 -33q-35 -10 -61.5 -15.5t-45.5 -5.5q-72 0 -71 54v18q-90 -74 -211 -74q-104 0 -159.5 91.5t-55.5 277.5z M342 348q0 -43 7 -88t20.5 -83t33 -62.5t41.5 -24.5q18 0 44 21.5t49.5 52.5t40 62.5t20.5 54.5q4 18 4 29.5v19.5q0 6 -1 7t-1 5q0 2 3 15.5t13.5 57.5t29 129t50.5 230q0 2 6.5 23.5t14.5 49t14 52.5t6 35q0 55 -82 55q-63 0 -110 -35.5t-82 -93t-58.5 -128t-37 -142.5 t-19.5 -135.5t-6 -106.5zM578 1573q0 33 27.5 56.5t66.5 23.5q20 0 50 -13.5t64.5 -34t72.5 -47t77 -53.5l-67 -73l-230 69q-61 18 -61 72z" />
<glyph unicode="&#xe1;" horiz-adv-x="837" d="M115 338q0 150 36.5 288t105.5 245.5t165 172t213 64.5q20 0 50 -8t59.5 -17.5t51 -16.5t27.5 -7q94 0 160 53l-207 -997v-4q0 -12 15 -13l67 23l-20 -96l-119 -33q-35 -10 -61.5 -15.5t-45.5 -5.5q-72 0 -71 54v18q-90 -74 -211 -74q-104 0 -159.5 91.5t-55.5 277.5z M342 348q0 -43 7 -88t20.5 -83t33 -62.5t41.5 -24.5q18 0 44 21.5t49.5 52.5t40 62.5t20.5 54.5q4 18 4 29.5v19.5q0 6 -1 7t-1 5q0 2 3 15.5t13.5 57.5t29 129t50.5 230q0 2 6.5 23.5t14.5 49t14 52.5t6 35q0 55 -82 55q-63 0 -110 -35.5t-82 -93t-58.5 -128t-37 -142.5 t-19.5 -135.5t-6 -106.5zM514 1325q45 27 93 51.5t91 44t77 31.5t52 12q72 0 72 -63q0 -66 -82 -88l-262 -72z" />
<glyph unicode="&#xe2;" horiz-adv-x="837" d="M115 338q0 150 36.5 288t105.5 245.5t165 172t213 64.5q20 0 50 -8t59.5 -17.5t51 -16.5t27.5 -7q94 0 160 53l-207 -997v-4q0 -12 15 -13l67 23l-20 -96l-119 -33q-35 -10 -61.5 -15.5t-45.5 -5.5q-72 0 -71 54v18q-90 -74 -211 -74q-104 0 -159.5 91.5t-55.5 277.5z M342 348q0 -43 7 -88t20.5 -83t33 -62.5t41.5 -24.5q18 0 44 21.5t49.5 52.5t40 62.5t20.5 54.5q4 18 4 29.5v19.5q0 6 -1 7t-1 5q0 2 3 15.5t13.5 57.5t29 129t50.5 230q0 2 6.5 23.5t14.5 49t14 52.5t6 35q0 55 -82 55q-63 0 -110 -35.5t-82 -93t-58.5 -128t-37 -142.5 t-19.5 -135.5t-6 -106.5zM498 1303q0 27 19.5 49t52 41.5t74.5 39t87 40.5q68 -37 120 -70t52 -84q0 -66 -65 -66q-47 0 -125 88q-113 -88 -160 -88q-55 0 -55 50z" />
<glyph unicode="&#xe3;" horiz-adv-x="837" d="M115 338q0 150 36.5 288t105.5 245.5t165 172t213 64.5q20 0 50 -8t59.5 -17.5t51 -16.5t27.5 -7q94 0 160 53l-207 -997v-4q0 -12 15 -13l67 23l-20 -96l-119 -33q-35 -10 -61.5 -15.5t-45.5 -5.5q-72 0 -71 54v18q-90 -74 -211 -74q-104 0 -159.5 91.5t-55.5 277.5z M342 348q0 -43 7 -88t20.5 -83t33 -62.5t41.5 -24.5q18 0 44 21.5t49.5 52.5t40 62.5t20.5 54.5q4 18 4 29.5v19.5q0 6 -1 7t-1 5q0 2 3 15.5t13.5 57.5t29 129t50.5 230q0 2 6.5 23.5t14.5 49t14 52.5t6 35q0 55 -82 55q-63 0 -110 -35.5t-82 -93t-58.5 -128t-37 -142.5 t-19.5 -135.5t-6 -106.5zM444 1255q55 203 199 203q23 0 55.5 -15.5t63.5 -33.5t54 -33l22 -16q25 0 34 29.5t25 72.5h84q-29 -92 -82 -149.5t-123 -57.5q-25 0 -54.5 15.5t-57 35t-47 35t-21.5 15.5q-23 0 -70 -101h-82z" />
<glyph unicode="&#xe4;" horiz-adv-x="837" d="M115 338q0 150 36.5 288t105.5 245.5t165 172t213 64.5q20 0 50 -8t59.5 -17.5t51 -16.5t27.5 -7q94 0 160 53l-207 -997v-4q0 -12 15 -13l67 23l-20 -96l-119 -33q-35 -10 -61.5 -15.5t-45.5 -5.5q-72 0 -71 54v18q-90 -74 -211 -74q-104 0 -159.5 91.5t-55.5 277.5z M342 348q0 -43 7 -88t20.5 -83t33 -62.5t41.5 -24.5q18 0 44 21.5t49.5 52.5t40 62.5t20.5 54.5q4 18 4 29.5v19.5q0 6 -1 7t-1 5q0 2 3 15.5t13.5 57.5t29 129t50.5 230q0 2 6.5 23.5t14.5 49t14 52.5t6 35q0 55 -82 55q-63 0 -110 -35.5t-82 -93t-58.5 -128t-37 -142.5 t-19.5 -135.5t-6 -106.5zM463 1341q0 61 40 105.5t97 44.5q41 0 70 -27.5t29 -72.5q0 -57 -41 -102.5t-99 -45.5q-45 0 -70.5 28.5t-25.5 69.5zM733 1341q0 61 42 105.5t98 44.5q43 0 70.5 -27.5t27.5 -72.5q0 -57 -40 -102.5t-99 -45.5q-43 0 -71 28.5t-28 69.5z" />
<glyph unicode="&#xe5;" horiz-adv-x="837" d="M115 338q0 150 36.5 288t105.5 245.5t165 172t213 64.5q20 0 50 -8t59.5 -17.5t51 -16.5t27.5 -7q94 0 160 53l-207 -997v-4q0 -12 15 -13l67 23l-20 -96l-119 -33q-35 -10 -61.5 -15.5t-45.5 -5.5q-72 0 -71 54v18q-90 -74 -211 -74q-104 0 -159.5 91.5t-55.5 277.5z M342 348q0 -43 7 -88t20.5 -83t33 -62.5t41.5 -24.5q18 0 44 21.5t49.5 52.5t40 62.5t20.5 54.5q4 18 4 29.5v19.5q0 6 -1 7t-1 5q0 2 3 15.5t13.5 57.5t29 129t50.5 230q0 2 6.5 23.5t14.5 49t14 52.5t6 35q0 55 -82 55q-63 0 -110 -35.5t-82 -93t-58.5 -128t-37 -142.5 t-19.5 -135.5t-6 -106.5zM537 1323q0 39 17.5 70.5t45 53t64.5 33t74 11.5q66 0 108.5 -34t42.5 -87q0 -37 -17.5 -66.5t-45 -52t-63.5 -35t-75 -12.5q-68 0 -109.5 31t-41.5 88zM631 1333q0 -20 13.5 -31.5t48.5 -11.5q41 0 69.5 19.5t28.5 54.5q0 41 -62 41 q-37 0 -67.5 -21.5t-30.5 -50.5z" />
<glyph unicode="&#xe6;" horiz-adv-x="1380" d="M133 217q0 111 51.5 193t114.5 122q20 12 77.5 30t123 40.5t124 49t81.5 57.5q25 113 24 147q0 63 -31.5 105.5t-85.5 42.5q-84 0 -188 -117l-94 55q164 182 377 182q162 0 223 -116q135 117 295 116q51 0 94 -20.5t73.5 -57t48 -85t17.5 -103.5q0 -80 -29.5 -141.5 t-87.5 -110.5q-39 -33 -71.5 -49t-77.5 -24.5t-113.5 -14.5t-181.5 -18q-23 -84 -23 -164q0 -246 142 -246q94 0 205 135l82 -51q-170 -195 -314 -194q-223 0 -284 231q-117 -229 -336 -229q-51 0 -94.5 18t-75 51t-49 75t-17.5 91zM358 229q0 -125 76 -125q41 0 73 21.5 t57.5 72t51 135.5t54.5 212q-76 -43 -134.5 -65.5t-97.5 -49.5t-59.5 -71t-20.5 -130zM915 618q55 6 120 17.5t121 38t93 73.5t37 125q0 55 -27.5 95.5t-68.5 40.5q-43 0 -87 -34t-82 -89.5t-65.5 -125t-40.5 -141.5z" />
<glyph unicode="&#xe7;" horiz-adv-x="770" d="M160 344q0 162 51 304.5t132 247.5t184.5 166.5t207.5 61.5q156 0 221 -131l-153 -223q2 59 3 91t1 40q0 119 -68 119t-130 -63.5t-110 -162t-77 -220t-29 -238.5q0 -250 139 -250q98 0 216 158l77 -43q-78 -104 -161.5 -161.5t-174.5 -68.5l-22 -49q55 -4 75.5 -36.5 t20.5 -71.5q0 -47 -29.5 -88t-77.5 -72t-108.5 -48.5t-124.5 -17.5l17 84q72 0 117.5 36t45.5 91q0 43 -75 43l61 133q-111 18 -170 114.5t-59 254.5z" />
<glyph unicode="&#xe8;" horiz-adv-x="819" d="M141 342q0 137 44 277.5t123 252t185.5 182t229.5 70.5q51 0 97 -16t80 -46t53.5 -73t19.5 -96q0 -170 -115 -262q-23 -14 -90.5 -41t-145 -59.5t-147 -67.5t-98.5 -68q-6 -41 -6 -80q0 -106 41 -167.5t100 -61.5q121 0 244 158l84 -49q-90 -121 -186.5 -173.5 t-227.5 -52.5q-135 0 -210 97.5t-75 275.5zM395 561q23 10 67 27.5t111 42.5q59 20 99.5 43.5t64 55.5t32.5 72t9 93q0 115 -76 115q-43 0 -88 -34t-86 -94.5t-75.5 -142.5t-57.5 -178zM570 1573q0 33 27.5 56.5t66.5 23.5q20 0 50 -13.5t64.5 -34t72.5 -47t77 -53.5 l-67 -73l-230 69q-61 18 -61 72z" />
<glyph unicode="&#xe9;" horiz-adv-x="819" d="M141 342q0 137 44 277.5t123 252t185.5 182t229.5 70.5q51 0 97 -16t80 -46t53.5 -73t19.5 -96q0 -170 -115 -262q-23 -14 -90.5 -41t-145 -59.5t-147 -67.5t-98.5 -68q-6 -41 -6 -80q0 -106 41 -167.5t100 -61.5q121 0 244 158l84 -49q-90 -121 -186.5 -173.5 t-227.5 -52.5q-135 0 -210 97.5t-75 275.5zM395 561q23 10 67 27.5t111 42.5q59 20 99.5 43.5t64 55.5t32.5 72t9 93q0 115 -76 115q-43 0 -88 -34t-86 -94.5t-75.5 -142.5t-57.5 -178zM506 1325q45 27 93 51.5t91 44t77 31.5t52 12q72 0 72 -63q0 -66 -82 -88l-262 -72z " />
<glyph unicode="&#xea;" horiz-adv-x="819" d="M141 342q0 137 44 277.5t123 252t185.5 182t229.5 70.5q51 0 97 -16t80 -46t53.5 -73t19.5 -96q0 -170 -115 -262q-23 -14 -90.5 -41t-145 -59.5t-147 -67.5t-98.5 -68q-6 -41 -6 -80q0 -106 41 -167.5t100 -61.5q121 0 244 158l84 -49q-90 -121 -186.5 -173.5 t-227.5 -52.5q-135 0 -210 97.5t-75 275.5zM395 561q23 10 67 27.5t111 42.5q59 20 99.5 43.5t64 55.5t32.5 72t9 93q0 115 -76 115q-43 0 -88 -34t-86 -94.5t-75.5 -142.5t-57.5 -178zM490 1303q0 27 19.5 49t52 41.5t74.5 39t87 40.5q68 -37 120 -70t52 -84q0 -66 -65 -66 q-47 0 -125 88q-113 -88 -160 -88q-55 0 -55 50z" />
<glyph unicode="&#xeb;" horiz-adv-x="819" d="M141 342q0 137 44 277.5t123 252t185.5 182t229.5 70.5q51 0 97 -16t80 -46t53.5 -73t19.5 -96q0 -170 -115 -262q-23 -14 -90.5 -41t-145 -59.5t-147 -67.5t-98.5 -68q-6 -41 -6 -80q0 -106 41 -167.5t100 -61.5q121 0 244 158l84 -49q-90 -121 -186.5 -173.5 t-227.5 -52.5q-135 0 -210 97.5t-75 275.5zM395 561q23 10 67 27.5t111 42.5q59 20 99.5 43.5t64 55.5t32.5 72t9 93q0 115 -76 115q-43 0 -88 -34t-86 -94.5t-75.5 -142.5t-57.5 -178zM453 1341q0 61 40 105.5t97 44.5q41 0 70 -27.5t29 -72.5q0 -57 -41 -102.5t-99 -45.5 q-45 0 -70.5 28.5t-25.5 69.5zM723 1341q0 61 42 105.5t98 44.5q43 0 70.5 -27.5t27.5 -72.5q0 -57 -40 -102.5t-99 -45.5q-43 0 -71 28.5t-28 69.5z" />
<glyph unicode="&#xec;" horiz-adv-x="391" d="M80 -76q10 39 31.5 123t47 189.5t52.5 220t48.5 217t34.5 180.5t13 107q-61 0 -61 57q0 10 11 22.5t34 18.5q27 6 38 8t32.5 7t63.5 16.5t132 35.5l-221 -1048q43 6 57 6h25l-17 -74q-72 -10 -150.5 -30.5t-170.5 -55.5zM355 1573q0 33 27.5 56.5t66.5 23.5 q20 0 50 -13.5t64.5 -34t72.5 -47t77 -53.5l-67 -73l-230 69q-61 18 -61 72z" />
<glyph unicode="&#xed;" horiz-adv-x="391" d="M80 -76q10 39 31.5 123t47 189.5t52.5 220t48.5 217t34.5 180.5t13 107q-61 0 -61 57q0 10 11 22.5t34 18.5q27 6 38 8t32.5 7t63.5 16.5t132 35.5l-221 -1048q43 6 57 6h25l-17 -74q-72 -10 -150.5 -30.5t-170.5 -55.5zM291 1325q45 27 93 51.5t91 44t77 31.5t52 12 q72 0 72 -63q0 -66 -82 -88l-262 -72z" />
<glyph unicode="&#xee;" horiz-adv-x="391" d="M80 -76q10 39 31.5 123t47 189.5t52.5 220t48.5 217t34.5 180.5t13 107q-61 0 -61 57q0 10 11 22.5t34 18.5q27 6 38 8t32.5 7t63.5 16.5t132 35.5l-221 -1048q43 6 57 6h25l-17 -74q-72 -10 -150.5 -30.5t-170.5 -55.5zM277 1303q0 27 19.5 49t52 41.5t74.5 39t87 40.5 q68 -37 120 -70t52 -84q0 -66 -65 -66q-47 0 -125 88q-113 -88 -160 -88q-55 0 -55 50z" />
<glyph unicode="&#xef;" horiz-adv-x="391" d="M80 -76q10 39 31.5 123t47 189.5t52.5 220t48.5 217t34.5 180.5t13 107q-61 0 -61 57q0 10 11 22.5t34 18.5q27 6 38 8t32.5 7t63.5 16.5t132 35.5l-221 -1048q43 6 57 6h25l-17 -74q-72 -10 -150.5 -30.5t-170.5 -55.5zM240 1341q0 61 40 105.5t97 44.5q41 0 70 -27.5 t29 -72.5q0 -57 -41 -102.5t-99 -45.5q-45 0 -70.5 28.5t-25.5 69.5zM510 1341q0 61 42 105.5t98 44.5q43 0 70.5 -27.5t27.5 -72.5q0 -57 -40 -102.5t-99 -45.5q-43 0 -71 28.5t-28 69.5z" />
<glyph unicode="&#xf1;" horiz-adv-x="841" d="M41 -27q61 100 86 220l164 778q-55 0 -55 49q0 20 43 39q29 4 38 5t27 5t61.5 16.5t141.5 40.5q-6 -23 -10.5 -39t-8.5 -30q90 66 195 65q109 0 172 -63.5t63 -167.5q0 -37 -8 -76l-153 -731h35.5t44.5 2l-17 -80q-141 0 -315 -67l182 862q4 16 6 33.5t2 35.5 q0 127 -88 127q-31 0 -60.5 -15t-54 -41t-40 -58.5t-17.5 -65.5q0 -6 -8 -47t-20.5 -101.5t-28 -133t-29.5 -141t-26.5 -127t-18.5 -89.5q-10 -43 -15 -82t-5 -73v-25.5t4 -24.5l-133 4zM446 1255q55 203 199 203q23 0 55.5 -15.5t63.5 -33.5t54 -33l22 -16q25 0 34 29.5 t25 72.5h84q-29 -92 -82 -149.5t-123 -57.5q-25 0 -54.5 15.5t-57 35t-47 35t-21.5 15.5q-23 0 -70 -101h-82z" />
<glyph unicode="&#xf2;" horiz-adv-x="901" d="M152 272q0 61 14 150.5t35.5 179.5t46 170t47.5 121q31 59 82 106.5t111.5 79t127 49t127.5 17.5q258 0 258 -326q0 -162 -55 -358q-74 -260 -198.5 -384t-337.5 -124q-258 0 -258 319zM373 279q0 -211 121 -211q31 0 63 8q27 10 53.5 48t51 95t47 127t38 143.5 t24.5 145.5t9 133q0 256 -131 256q-35 0 -63.5 -17.5t-55 -57.5t-50 -108.5t-48.5 -168.5q-33 -129 -46 -226.5t-13 -166.5zM611 1573q0 33 27.5 56.5t66.5 23.5q20 0 50 -13.5t64.5 -34t72.5 -47t77 -53.5l-67 -73l-230 69q-61 18 -61 72z" />
<glyph unicode="&#xf3;" horiz-adv-x="901" d="M152 272q0 61 14 150.5t35.5 179.5t46 170t47.5 121q31 59 82 106.5t111.5 79t127 49t127.5 17.5q258 0 258 -326q0 -162 -55 -358q-74 -260 -198.5 -384t-337.5 -124q-258 0 -258 319zM373 279q0 -211 121 -211q31 0 63 8q27 10 53.5 48t51 95t47 127t38 143.5 t24.5 145.5t9 133q0 256 -131 256q-35 0 -63.5 -17.5t-55 -57.5t-50 -108.5t-48.5 -168.5q-33 -129 -46 -226.5t-13 -166.5zM545 1325q45 27 93 51.5t91 44t77 31.5t52 12q72 0 72 -63q0 -66 -82 -88l-262 -72z" />
<glyph unicode="&#xf4;" horiz-adv-x="901" d="M152 272q0 61 14 150.5t35.5 179.5t46 170t47.5 121q31 59 82 106.5t111.5 79t127 49t127.5 17.5q258 0 258 -326q0 -162 -55 -358q-74 -260 -198.5 -384t-337.5 -124q-258 0 -258 319zM373 279q0 -211 121 -211q31 0 63 8q27 10 53.5 48t51 95t47 127t38 143.5 t24.5 145.5t9 133q0 256 -131 256q-35 0 -63.5 -17.5t-55 -57.5t-50 -108.5t-48.5 -168.5q-33 -129 -46 -226.5t-13 -166.5zM531 1303q0 27 19.5 49t52 41.5t74.5 39t87 40.5q68 -37 120 -70t52 -84q0 -66 -65 -66q-47 0 -125 88q-113 -88 -160 -88q-55 0 -55 50z" />
<glyph unicode="&#xf5;" horiz-adv-x="901" d="M152 272q0 61 14 150.5t35.5 179.5t46 170t47.5 121q31 59 82 106.5t111.5 79t127 49t127.5 17.5q258 0 258 -326q0 -162 -55 -358q-74 -260 -198.5 -384t-337.5 -124q-258 0 -258 319zM373 279q0 -211 121 -211q31 0 63 8q27 10 53.5 48t51 95t47 127t38 143.5 t24.5 145.5t9 133q0 256 -131 256q-35 0 -63.5 -17.5t-55 -57.5t-50 -108.5t-48.5 -168.5q-33 -129 -46 -226.5t-13 -166.5zM475 1255q55 203 199 203q23 0 55.5 -15.5t63.5 -33.5t54 -33l22 -16q25 0 34 29.5t25 72.5h84q-29 -92 -82 -149.5t-123 -57.5q-25 0 -54.5 15.5 t-57 35t-47 35t-21.5 15.5q-23 0 -70 -101h-82z" />
<glyph unicode="&#xf6;" horiz-adv-x="901" d="M152 272q0 61 14 150.5t35.5 179.5t46 170t47.5 121q31 59 82 106.5t111.5 79t127 49t127.5 17.5q258 0 258 -326q0 -162 -55 -358q-74 -260 -198.5 -384t-337.5 -124q-258 0 -258 319zM373 279q0 -211 121 -211q31 0 63 8q27 10 53.5 48t51 95t47 127t38 143.5 t24.5 145.5t9 133q0 256 -131 256q-35 0 -63.5 -17.5t-55 -57.5t-50 -108.5t-48.5 -168.5q-33 -129 -46 -226.5t-13 -166.5zM494 1341q0 61 40 105.5t97 44.5q41 0 70 -27.5t29 -72.5q0 -57 -41 -102.5t-99 -45.5q-45 0 -70.5 28.5t-25.5 69.5zM764 1341q0 61 42 105.5 t98 44.5q43 0 70.5 -27.5t27.5 -72.5q0 -57 -40 -102.5t-99 -45.5q-43 0 -71 28.5t-28 69.5z" />
<glyph unicode="&#xf8;" horiz-adv-x="956" d="M143 272q0 59 13.5 148.5t35 180.5t47 170t48.5 120q33 61 84 108.5t111.5 80t126 49t128.5 16.5q256 0 256 -326q0 -113 -32 -264q-33 -162 -82.5 -275.5t-117 -186.5t-156.5 -106.5t-202 -33.5q-260 0 -260 319zM371 358l383 560q-33 106 -111 106q-31 0 -57 -12 q-31 -12 -66 -78t-65.5 -159t-53 -203.5t-30.5 -213.5zM375 188q14 -121 112 -120q29 0 62 8q41 16 81 92t72.5 179.5t52 217t19.5 203.5z" />
<glyph unicode="&#xf9;" horiz-adv-x="860" d="M133 199q0 16 2 34.5t6 42.5l150 697h-12q-16 0 -32 15.5t-16 31.5q0 20 43 39q27 6 39.5 7t33 5t62.5 15.5t132 39.5l-176 -835q-4 -20 -6.5 -40t-2.5 -38q0 -125 88 -125q63 0 111.5 52.5t65.5 133.5l114 584q14 70 20.5 125t8.5 98q0 8 -1 16.5t-1 18.5q55 -4 85 -7 t40 -3q4 0 39 3t98 7q-16 -53 -32.5 -119.5t-37.5 -152.5l-155 -733q0 -12 12 -13q18 0 66 21l-19 -94q-61 -18 -124.5 -36t-106.5 -18q-27 0 -45.5 14.5t-18.5 39.5v6q-90 -66 -196 -66q-104 0 -169 62.5t-65 171.5zM588 1573q0 33 27.5 56.5t66.5 23.5q20 0 50 -13.5 t64.5 -34t72.5 -47t77 -53.5l-67 -73l-230 69q-61 18 -61 72z" />
<glyph unicode="&#xfa;" horiz-adv-x="860" d="M133 199q0 16 2 34.5t6 42.5l150 697h-12q-16 0 -32 15.5t-16 31.5q0 20 43 39q27 6 39.5 7t33 5t62.5 15.5t132 39.5l-176 -835q-4 -20 -6.5 -40t-2.5 -38q0 -125 88 -125q63 0 111.5 52.5t65.5 133.5l114 584q14 70 20.5 125t8.5 98q0 8 -1 16.5t-1 18.5q55 -4 85 -7 t40 -3q4 0 39 3t98 7q-16 -53 -32.5 -119.5t-37.5 -152.5l-155 -733q0 -12 12 -13q18 0 66 21l-19 -94q-61 -18 -124.5 -36t-106.5 -18q-27 0 -45.5 14.5t-18.5 39.5v6q-90 -66 -196 -66q-104 0 -169 62.5t-65 171.5zM524 1325q45 27 93 51.5t91 44t77 31.5t52 12 q72 0 72 -63q0 -66 -82 -88l-262 -72z" />
<glyph unicode="&#xfb;" horiz-adv-x="860" d="M133 199q0 16 2 34.5t6 42.5l150 697h-12q-16 0 -32 15.5t-16 31.5q0 20 43 39q27 6 39.5 7t33 5t62.5 15.5t132 39.5l-176 -835q-4 -20 -6.5 -40t-2.5 -38q0 -125 88 -125q63 0 111.5 52.5t65.5 133.5l114 584q14 70 20.5 125t8.5 98q0 8 -1 16.5t-1 18.5q55 -4 85 -7 t40 -3q4 0 39 3t98 7q-16 -53 -32.5 -119.5t-37.5 -152.5l-155 -733q0 -12 12 -13q18 0 66 21l-19 -94q-61 -18 -124.5 -36t-106.5 -18q-27 0 -45.5 14.5t-18.5 39.5v6q-90 -66 -196 -66q-104 0 -169 62.5t-65 171.5zM510 1303q0 27 19.5 49t52 41.5t74.5 39t87 40.5 q68 -37 120 -70t52 -84q0 -66 -65 -66q-47 0 -125 88q-113 -88 -160 -88q-55 0 -55 50z" />
<glyph unicode="&#xfc;" horiz-adv-x="860" d="M133 199q0 16 2 34.5t6 42.5l150 697h-12q-16 0 -32 15.5t-16 31.5q0 20 43 39q27 6 39.5 7t33 5t62.5 15.5t132 39.5l-176 -835q-4 -20 -6.5 -40t-2.5 -38q0 -125 88 -125q63 0 111.5 52.5t65.5 133.5l114 584q14 70 20.5 125t8.5 98q0 8 -1 16.5t-1 18.5q55 -4 85 -7 t40 -3q4 0 39 3t98 7q-16 -53 -32.5 -119.5t-37.5 -152.5l-155 -733q0 -12 12 -13q18 0 66 21l-19 -94q-61 -18 -124.5 -36t-106.5 -18q-27 0 -45.5 14.5t-18.5 39.5v6q-90 -66 -196 -66q-104 0 -169 62.5t-65 171.5zM473 1341q0 61 40 105.5t97 44.5q41 0 70 -27.5 t29 -72.5q0 -57 -41 -102.5t-99 -45.5q-45 0 -70.5 28.5t-25.5 69.5zM743 1341q0 61 42 105.5t98 44.5q43 0 70.5 -27.5t27.5 -72.5q0 -57 -40 -102.5t-99 -45.5q-43 0 -71 28.5t-28 69.5z" />
<glyph unicode="&#xfd;" horiz-adv-x="806" d="M-10 -276q0 121 139 188l53 -98q55 41 172 217q-2 211 -13 400.5t-34 359.5q0 2 -4 28.5t-9 57t-9 59.5t-4 35q-51 14 -52 47q0 14 14.5 23.5t45 19.5t81 23.5t122.5 37.5q8 -47 14 -116.5t11 -148.5t9 -161t8.5 -150.5t7.5 -119.5t5 -68q133 213 280 650q2 2 2 12 q0 16 -22 16h-6l16 82q29 -8 71 -16.5t101 -20.5q-84 -258 -245.5 -571t-407.5 -684q-139 -207 -250 -207q-96 0 -96 105zM498 1325q45 27 93 51.5t91 44t77 31.5t52 12q72 0 72 -63q0 -66 -82 -88l-262 -72z" />
<glyph unicode="&#xff;" horiz-adv-x="806" d="M-10 -276q0 121 139 188l53 -98q55 41 172 217q-2 211 -13 400.5t-34 359.5q0 2 -4 28.5t-9 57t-9 59.5t-4 35q-51 14 -52 47q0 14 14.5 23.5t45 19.5t81 23.5t122.5 37.5q8 -47 14 -116.5t11 -148.5t9 -161t8.5 -150.5t7.5 -119.5t5 -68q133 213 280 650q2 2 2 12 q0 16 -22 16h-6l16 82q29 -8 71 -16.5t101 -20.5q-84 -258 -245.5 -571t-407.5 -684q-139 -207 -250 -207q-96 0 -96 105zM446 1341q0 61 40 105.5t97 44.5q41 0 70 -27.5t29 -72.5q0 -57 -41 -102.5t-99 -45.5q-45 0 -70.5 28.5t-25.5 69.5zM716 1341q0 61 42 105.5 t98 44.5q43 0 70.5 -27.5t27.5 -72.5q0 -57 -40 -102.5t-99 -45.5q-43 0 -71 28.5t-28 69.5z" />
<glyph unicode="&#x152;" horiz-adv-x="1589" d="M172 319q0 76 12.5 172.5t40.5 225.5q39 174 95.5 307t135.5 223t185.5 136.5t247.5 46.5q94 0 155 -37l9 22h702l-33 -241h-63q-2 145 -35 145h-317l-19 -109l-104 -467h286q16 0 29.5 27t18.5 84h71l-45 -319h-71q4 27 6 44t2 25q0 45 -23 45h-295q-2 -16 -4 -33.5 t-6 -35.5l-86 -406q-4 -14 -16.5 -42t-12.5 -56q0 -8 13 -8l393 2q29 0 94 145h66l-70 -240h-793l9 35q-123 -53 -275 -53q-303 0 -303 362zM410 340q0 -276 127 -277q61 0 115.5 45.5t101.5 121t85 176t64.5 210t40.5 222.5t14 215q0 268 -129 268q-121 0 -218 -163 t-160 -466q-20 -98 -30.5 -185t-10.5 -167z" />
<glyph unicode="&#x153;" horiz-adv-x="1404" d="M133 272q0 152 31 306.5t99.5 280.5t182 206t279.5 80q178 0 231 -158q68 66 148 101.5t170 35.5q104 0 176 -61t72 -170q0 -170 -117 -262q-20 -16 -87 -44t-143.5 -59.5t-147.5 -66.5t-97 -66q-6 -41 -6 -80q0 -109 38.5 -169t102.5 -60q119 0 242 158l82 -49 q-47 -61 -94.5 -103.5t-96.5 -70t-102.5 -40t-116.5 -12.5q-78 0 -135.5 33t-95.5 92q-135 -141 -357 -141q-258 0 -258 319zM354 279q0 -211 121 -211q31 0 62 8q27 10 54 48t52 94t46.5 127t37.5 143.5t25.5 145.5t9.5 134q0 256 -131 256q-31 0 -59.5 -16.5t-55.5 -57.5 t-52.5 -108.5t-49.5 -169.5q-33 -129 -46.5 -226.5t-13.5 -166.5zM952 563q106 39 178 67.5t116 62.5t62.5 80t18.5 122q0 115 -74 115q-43 0 -84 -29t-78.5 -81t-70.5 -122.5t-57 -156.5z" />
<glyph unicode="&#x178;" horiz-adv-x="825" d="M229 -27l19 80q70 2 76 37l137 649l-103 584q-4 10 -51 10h-22l16 84q160 -6 178 -6q16 0 176 6l-16 -82q-61 -10 -61 -30q0 -2 8 -42t19 -95.5t22.5 -117t17.5 -104.5q43 61 99.5 154.5t129.5 222.5l3 4q0 8 -54 8l19 82q111 -6 121 -6q12 0 141 6l-17 -84 q-70 0 -96 -45q-6 -14 -39.5 -70.5t-75.5 -122t-82 -128t-57 -88.5q-16 -23 -23 -30t-12.5 -21.5t-11.5 -46t-22 -105.5l-107 -508q-8 -47 -14 -72.5t-6 -32.5q0 -8 41 -8h18l-16 -82q-76 2 -118 3t-50 1t-54.5 -1t-132.5 -3zM514 1620q0 61 40 105.5t97 44.5q41 0 70 -27.5 t29 -72.5q0 -57 -41 -102.5t-99 -45.5q-45 0 -70.5 28.5t-25.5 69.5zM784 1620q0 61 42 105.5t98 44.5q43 0 70.5 -27.5t27.5 -72.5q0 -57 -40 -102.5t-99 -45.5q-43 0 -71 28.5t-28 69.5z" />
<glyph unicode="&#x2c6;" horiz-adv-x="929" d="M590 1303q0 27 19.5 49t52 41.5t74.5 39t87 40.5q68 -37 120 -70t52 -84q0 -66 -65 -66q-47 0 -125 88q-113 -88 -160 -88q-55 0 -55 50z" />
<glyph unicode="&#x2dc;" horiz-adv-x="884" d="M530 1255q55 203 199 203q23 0 55.5 -15.5t63.5 -33.5t54 -33l22 -16q25 0 34 29.5t25 72.5h84q-29 -92 -82 -149.5t-123 -57.5q-25 0 -54.5 15.5t-57 35t-47 35t-21.5 15.5q-23 0 -70 -101h-82z" />
<glyph unicode="&#x2000;" horiz-adv-x="966" />
<glyph unicode="&#x2001;" horiz-adv-x="1932" />
<glyph unicode="&#x2002;" horiz-adv-x="966" />
<glyph unicode="&#x2003;" horiz-adv-x="1932" />
<glyph unicode="&#x2004;" horiz-adv-x="644" />
<glyph unicode="&#x2005;" horiz-adv-x="483" />
<glyph unicode="&#x2006;" horiz-adv-x="322" />
<glyph unicode="&#x2007;" horiz-adv-x="322" />
<glyph unicode="&#x2008;" horiz-adv-x="241" />
<glyph unicode="&#x2009;" horiz-adv-x="386" />
<glyph unicode="&#x200a;" horiz-adv-x="107" />
<glyph unicode="&#x2010;" horiz-adv-x="626" d="M219 631l31 151h479l-31 -151h-479z" />
<glyph unicode="&#x2011;" horiz-adv-x="626" d="M219 631l31 151h479l-31 -151h-479z" />
<glyph unicode="&#x2012;" horiz-adv-x="626" d="M219 631l31 151h479l-31 -151h-479z" />
<glyph unicode="&#x2013;" horiz-adv-x="571" d="M162 631l33 151h495l-33 -151h-495z" />
<glyph unicode="&#x2014;" horiz-adv-x="1075" d="M213 631l31 151h909l-31 -151h-909z" />
<glyph unicode="&#x2018;" horiz-adv-x="356" d="M328 1268q0 160 317 309q-145 -174 -145 -229q0 -41 92 -41q-86 -145 -168 -146q-45 0 -70.5 31t-25.5 76z" />
<glyph unicode="&#x2019;" horiz-adv-x="319" d="M260 1102q147 172 148 229q0 41 -99 41q90 145 172 146q43 0 70 -31t27 -76q0 -160 -318 -309z" />
<glyph unicode="&#x201a;" horiz-adv-x="319" d="M-27 -229q145 170 146 229q0 43 -96 43q88 143 170 143q45 0 71.5 -30.5t26.5 -77.5q0 -160 -318 -307z" />
<glyph unicode="&#x201c;" horiz-adv-x="516" d="M291 1280q0 162 317 309q-145 -176 -145 -231q0 -41 94 -41q-88 -143 -170 -143q-43 0 -69.5 30.5t-26.5 75.5zM553 1280q0 162 317 309q-147 -176 -147 -231q0 -41 94 -41q-90 -143 -170 -143q-43 0 -68.5 30.5t-25.5 75.5z" />
<glyph unicode="&#x201d;" horiz-adv-x="489" d="M209 1118q147 172 147 234q0 39 -94 39q84 145 168 145q45 0 70.5 -30.5t25.5 -75.5q0 -162 -317 -312zM471 1118q145 174 145 234q0 39 -94 39q84 145 170 145q43 0 69.5 -30.5t26.5 -75.5q0 -160 -317 -312z" />
<glyph unicode="&#x201e;" horiz-adv-x="489" d="M-68 -309q145 168 146 231q0 39 -92 39q88 145 168 145q45 0 70.5 -30.5t25.5 -75.5q0 -10 -4 -31q88 137 168 137q45 0 70.5 -30.5t25.5 -75.5q0 -162 -317 -309q147 166 147 231q0 39 -94 39q-35 -139 -314 -270z" />
<glyph unicode="&#x2022;" horiz-adv-x="718" d="M264 692q0 61 25.5 123t68.5 110t100.5 77.5t121.5 29.5q94 0 152.5 -63.5t58.5 -161.5q0 -61 -26 -121.5t-69 -108t-100 -77t-121 -29.5q-98 0 -154.5 62.5t-56.5 158.5z" />
<glyph unicode="&#x2026;" horiz-adv-x="3239" d="M612 63q0 63 43 112.5t109 49.5q43 0 72.5 -28.5t29.5 -75.5q0 -33 -12 -62.5t-31.5 -52t-46 -36t-57.5 -13.5q-47 0 -77 29.5t-30 76.5zM1522 63q0 63 42 112.5t107 49.5q45 0 74 -28.5t29 -75.5q0 -66 -43 -115t-107 -49q-45 0 -73.5 29.5t-28.5 76.5zM2429 63 q0 63 42 112.5t107 49.5q43 0 73 -28.5t30 -75.5q0 -33 -12.5 -62.5t-32 -52t-46 -36t-57.5 -13.5q-47 0 -75.5 29.5t-28.5 76.5z" />
<glyph unicode="&#x202f;" horiz-adv-x="386" />
<glyph unicode="&#x205f;" horiz-adv-x="483" />
<glyph unicode="&#x20ac;" horiz-adv-x="786" d="M74 530l22 115h76l14 64h-75l24 114h76q29 100 88 209t135 197t162 145.5t168 57.5q43 0 86 -9.5t78 -25t56.5 -36.5t21.5 -44q0 -29 -24 -54.5t-52 -25.5q-16 0 -32.5 16.5t-35 37t-41 36.5t-47.5 16q-55 0 -111.5 -36.5t-107.5 -104t-94 -164t-74 -215.5h494l-23 -114 h-498l-12 -64h496l-25 -115h-487q-6 -41 -8 -81.5t-2 -77.5q0 -305 153 -305q109 0 246 118l24 -94q-174 -131 -319 -131q-63 0 -113.5 35t-85 96.5t-53 146.5t-18.5 187q0 27 1 54.5t1 51.5h-84z" />
<glyph unicode="&#x25fc;" horiz-adv-x="1126" d="M0 0v1126h1126v-1126h-1126z" />
</font>
</defs>
</svg>
