<?xml version="1.0" standalone="no"?>
<!DOCTYPE svg PUBLIC "-//W3C//DTD SVG 1.1//EN" "http://www.w3.org/Graphics/SVG/1.1/DTD/svg11.dtd" >
<svg xmlns="http://www.w3.org/2000/svg">
<metadata></metadata>
<defs>
<font id="effloresceitalic" horiz-adv-x="1097" >
<font-face units-per-em="2048" ascent="1522" descent="-526" />
<missing-glyph horiz-adv-x="483" />
<glyph horiz-adv-x="2048" />
<glyph horiz-adv-x="2048" />
<glyph unicode="&#xd;" horiz-adv-x="483" />
<glyph unicode=" "  horiz-adv-x="483" />
<glyph unicode="&#x09;" horiz-adv-x="483" />
<glyph unicode="&#xa0;" horiz-adv-x="483" />
<glyph unicode="!" horiz-adv-x="475" d="M121 66q0 55 36 98t91 43q80 0 80 -82q0 -53 -37 -95t-90 -42q-80 0 -80 78zM256 350q2 31 13.5 112t24.5 186.5t28.5 221t29 215t21.5 168t8 80.5v72q0 53 48 89t118 36q106 0 106 -78q0 -23 -20 -70q-12 -27 -47 -130t-81 -249.5t-98.5 -318.5t-101.5 -334h-49z" />
<glyph unicode="&#x22;" horiz-adv-x="514" d="M350 1208q8 100 14.5 150.5t6.5 60.5q0 14 -3 44t-3 46q0 45 28.5 82t71.5 37q57 0 57 -59q0 -16 -14 -56t-33.5 -92.5t-40 -109t-33.5 -103.5h-51zM524 1208q10 100 16.5 150.5t6.5 60.5q0 14 -4 44t-4 46q0 45 28.5 82t75.5 37q55 0 55 -59q0 -16 -14 -57.5 t-34.5 -92.5t-41 -107.5t-33.5 -103.5h-51z" />
<glyph unicode="#" horiz-adv-x="677" d="M270 971l19 55h121l53 160h-119l18 55h123l90 260h52l-92 -260h141l94 260h49l-92 -260h127l-25 -55h-120l-58 -160h127l-22 -55h-123l-88 -246h-51l88 246h-144l-86 -246h-51l86 246h-117zM459 1026h141l57 160h-143z" />
<glyph unicode="$" horiz-adv-x="780" d="M156 381q0 59 49 59q10 0 19 -9t14 -30q10 -41 21 -67.5t26.5 -43t35 -25.5t48.5 -15l110 512q-55 37 -89 65.5t-53.5 56t-26.5 56.5t-7 68q0 137 82 228t219 122l31 133h18l-26 -131q39 6 78 6h21t22 -2l28 127h19l-27 -131q29 -4 58.5 -20.5t54 -38t40 -45.5t15.5 -42 q0 -25 -14.5 -44t-38.5 -19q-20 0 -27 29q-12 33 -22.5 52t-20.5 31.5t-24.5 18.5t-36.5 12l-103 -479q164 -117 164 -256q0 -145 -78 -240.5t-219 -128.5l-20 -106h-21l21 102q-18 -6 -39 -8t-43 -2h-19.5t-19.5 2l-19 -94h-22l22 98q-31 6 -66.5 22.5t-65 43t-49 59.5 t-19.5 74zM389 248q4 -2 21 -2q27 0 53 5t51 17l82 387q-16 25 -42 47.5t-58 45.5zM481 1044q0 -68 33 -112l72 338q-104 -66 -105 -226zM530 909q35 -35 103 -82l98 471q-4 2 -20 2q-45 0 -103 -22zM537 281q100 65 100 229q0 76 -27 121z" />
<glyph unicode="%" horiz-adv-x="1050" d="M330 1174q0 74 24.5 139t68.5 114.5t104.5 79t131.5 29.5q150 0 150 -174q0 -74 -25.5 -138.5t-70.5 -112.5t-103.5 -75.5t-126.5 -27.5q-154 0 -153 166zM375 467l639 1059h57l-647 -1059h-49zM410 1178q0 -141 112 -142q43 0 80 28t64.5 72t44 98t16.5 107 q0 166 -119 166q-41 0 -76.5 -32.5t-63.5 -83t-43 -107.5t-15 -106zM662 590q0 72 24.5 137.5t68.5 114.5t104.5 78.5t131.5 29.5q152 0 152 -172q0 -74 -26.5 -139.5t-71 -113.5t-104.5 -75.5t-128 -27.5q-152 0 -151 168zM743 592q0 -141 113 -141q41 0 78 28.5t65.5 72.5 t46 97.5t17.5 104.5q0 168 -123 168q-39 0 -74 -32t-62.5 -81t-44 -107.5t-16.5 -109.5z" />
<glyph unicode="&#x26;" horiz-adv-x="952" d="M129 276q0 70 20.5 140.5t61.5 130t103.5 103.5t146.5 61q-137 23 -137 225q0 92 35.5 177t97 151.5t144.5 106.5t177 40q225 0 226 -115q0 -29 -21.5 -50t-46.5 -21q-20 0 -30.5 19.5t-21 42t-27.5 42t-54 19.5q-66 0 -125.5 -38t-104.5 -100.5t-71.5 -140.5t-26.5 -158 q0 -86 44 -149.5t128 -63.5q47 0 93 21.5t87 58.5t74 88.5t53 112.5q-10 -47 -25.5 -117.5t-41.5 -163.5h143l-10 -43h-141q-4 -33 -22.5 -129t-53.5 -262q-8 -35 -8 -76q0 -135 104 -135q41 0 100 27l9 -39q-102 -39 -160 -39q-137 0 -182 104q-164 -117 -289 -116 q-55 0 -101.5 22.5t-79 60.5t-50 90t-17.5 113zM317 260q0 -94 41 -144t113 -50t182 65q-23 39 -22 92q0 57 25.5 165t68.5 267h-100q-61 0 -117.5 -33.5t-98.5 -90t-67 -127t-25 -144.5z" />
<glyph unicode="'" horiz-adv-x="256" d="M350 1481q55 92 125 92q72 0 72 -82q0 -31 -17.5 -64.5t-45 -66.5t-62.5 -61.5t-70 -47.5q72 84 72 160q0 70 -74 70z" />
<glyph unicode="(" horiz-adv-x="514" d="M137 139q0 27 2 52.5t8 50.5l201 938q18 86 53 159.5t84.5 129t109.5 90t130 43.5v-19q-45 -10 -92 -46t-89 -88t-73 -115.5t-43 -127.5l-201 -938q-18 -86 -18 -166q0 -221 164 -221h12l-6 -10q-35 -12 -70 -12q-82 0 -127 77.5t-45 202.5z" />
<glyph unicode=")" horiz-adv-x="610" d="M223 -127q47 8 95.5 46t89.5 91t70.5 116.5t41.5 123.5l201 938q8 45 13 87t5 81q0 217 -164 217h-10l4 12q33 12 70 12q82 0 127 -78.5t45 -199.5l-8 -105l-201 -938q-16 -84 -52 -158.5t-87 -131t-112.5 -91t-127.5 -40.5v18z" />
<glyph unicode="*" horiz-adv-x="645" d="M324 1053l12 108l233 -65l-88 229l109 25l10 -246l191 153l55 -96l-228 -84l205 -133l-75 -82l-154 191l-59 -238l-103 47l135 205z" />
<glyph unicode="+" horiz-adv-x="604" d="M229 713l9 37h202l49 235h48l-50 -235h209l-8 -37h-209l-51 -250h-49l53 250h-203z" />
<glyph unicode="," horiz-adv-x="350" d="M92 -117q74 86 74 160t-74 74q55 90 125 90t70 -82q0 -31 -16.5 -64.5t-44 -66.5t-62.5 -62.5t-72 -48.5z" />
<glyph unicode="-" horiz-adv-x="593" d="M233 688l23 98h440l-24 -98h-439z" />
<glyph unicode="." horiz-adv-x="348" d="M98 66q0 55 36 98t91 43q78 0 78 -82q0 -53 -36 -95t-89 -42q-80 0 -80 78z" />
<glyph unicode="/" horiz-adv-x="720" d="M61 0l830 1448h70l-836 -1448h-64z" />
<glyph unicode="0" d="M170 350q0 158 55.5 297t150.5 242.5t221 163t269 59.5q154 0 236 -93.5t82 -273.5q0 -162 -56.5 -300t-151.5 -238.5t-220 -156.5t-262 -56q-324 0 -324 356zM344 356q0 -301 238 -301q88 0 166.5 60.5t138 156t94.5 211t35 226.5q0 74 -18.5 136t-52.5 108t-79 72 t-96 26q-78 0 -154.5 -60.5t-137 -158t-97.5 -222.5t-37 -254z" />
<glyph unicode="1" horiz-adv-x="479" d="M127 2l6 25q59 0 70 49l180 835q4 25 12 48.5t8 27.5q0 39 -43 39q-12 0 -114 -29l10 43l403 119l-10 -45l-67 -20q-2 -27 -6.5 -54.5t-8.5 -56.5l-194 -907q-2 -4 -2 -13q0 -25 11 -30.5t36 -5.5l-6 -25h-285z" />
<glyph unicode="2" horiz-adv-x="778" d="M14 2q158 135 261.5 227.5t158.5 151.5q260 276 260 471q0 74 -36.5 128t-96.5 54q-59 0 -100 -47h2q0 -6 -13.5 -28.5t-33 -48t-40 -46t-34.5 -20.5q-45 0 -45 49q0 31 26.5 66.5t71.5 66.5t106.5 51.5t129.5 20.5q100 0 168.5 -53.5t68.5 -153.5q-2 -160 -153.5 -346.5 t-456.5 -390.5q119 6 145 6h363l-72 -158h-680z" />
<glyph unicode="3" horiz-adv-x="702" d="M61 -311q0 10 13 16q229 76 352 216t123 304q0 94 -44 155.5t-122 61.5q-31 0 -53 -8l10 47q141 35 223 135.5t82 241.5q0 80 -36 128t-103 48q-68 0 -111 -45q2 0 -11 -20.5t-32.5 -47t-42 -48t-37.5 -21.5q-45 0 -45 49q0 39 35 75t86 63.5t110.5 44t110.5 16.5 q106 0 171 -52.5t65 -158.5q0 -59 -25.5 -121.5t-66.5 -117t-94.5 -96.5t-108.5 -58h4q41 0 75 -17.5t58.5 -47.5t38.5 -67.5t14 -80.5q0 -57 -29.5 -126t-79.5 -135.5t-115.5 -129t-134.5 -110.5t-137.5 -77t-125.5 -29q-16 0 -17 13z" />
<glyph unicode="4" horiz-adv-x="804" d="M4 2q33 35 60.5 64.5t54.5 60.5l665 797q23 25 52.5 63.5t70.5 87.5l-194 -911q-8 -37 -14.5 -67.5t-16.5 -53.5h102l-6 -41h-104q-2 -27 -16.5 -99.5t-41.5 -195.5h-172q10 51 26.5 123t43.5 172h-510zM135 39q27 2 124 3t263 1q10 88 44 239.5t91 393.5 q-39 -51 -67.5 -92t-57.5 -74l-296 -360q-23 -29 -49.5 -56.5t-51.5 -54.5z" />
<glyph unicode="5" horiz-adv-x="659" d="M154 -270q0 8 22 20q74 18 137.5 67.5t110.5 119t74.5 152.5t27.5 169q0 229 -256 424q-43 33 -71 41l237 338h402l-74 -160h-326q-8 0 -23.5 2t-39.5 6l-43 -67q70 -37 132 -94.5t109.5 -126t74 -144.5t26.5 -145q0 -82 -29 -168q-29 -78 -90 -158t-133 -144.5 t-141.5 -105.5t-112.5 -41q-14 0 -14 15z" />
<glyph unicode="6" horiz-adv-x="800" d="M150 317q0 197 60 378.5t158.5 330t223.5 252.5t254 145l-2 -53q-92 -33 -166 -87t-134.5 -138t-108.5 -200t-89 -271q23 37 56.5 67.5t71.5 53t77 36t72 13.5q49 0 90 -21.5t71.5 -58.5t47 -86.5t16.5 -106.5q0 -111 -34 -215t-92 -185t-138 -130t-174 -49 q-260 0 -260 325zM289 287q0 -244 147 -244q57 0 105.5 40t83 103.5t54 143t19.5 159.5q0 100 -48 168t-126 68q-100 0 -190 -115q-45 -143 -45 -323z" />
<glyph unicode="7" horiz-adv-x="772" d="M168 -287l559 1049l84 147q-37 -2 -60.5 -5t-29.5 -3h-475l61 160h551q29 0 61.5 2t69.5 4q-29 -43 -49 -81t-39 -71l-651 -1202h-82z" />
<glyph unicode="8" horiz-adv-x="851" d="M129 295q0 74 22.5 145.5t68.5 137t116 121t164 96.5q-162 113 -162 284q0 82 31.5 154t86 124t127 81.5t154.5 29.5q55 0 104.5 -15t86.5 -44t57.5 -68t20.5 -88q0 -106 -72 -201.5t-238 -185.5q55 -39 93 -76.5t61.5 -79.5t33 -90.5t9.5 -105.5q0 -109 -35 -204 t-97.5 -165.5t-147.5 -110.5t-185 -40q-139 0 -219 83t-80 218zM248 276q0 -106 48 -166.5t138 -60.5q66 0 127.5 35t107.5 91t73.5 125.5t27.5 139.5q0 106 -66.5 195.5t-166.5 142.5q-70 -39 -123.5 -97t-90 -126t-56 -139.5t-19.5 -139.5zM471 1196q0 -94 46 -161.5 t147 -149.5q49 27 91 69.5t73.5 92t49 102.5t17.5 102q0 166 -178 166q-119 0 -182.5 -58.5t-63.5 -162.5z" />
<glyph unicode="9" horiz-adv-x="790" d="M170 -297q0 25 27.5 34t81.5 34q137 63 233 197t164 374q-111 -141 -246 -141q-119 0 -182.5 77.5t-63.5 213.5q0 111 34 214t93.5 183t140 128t173.5 48q258 -1 258 -320q0 -133 -28 -259t-76 -236.5t-114.5 -204.5t-144.5 -164q-35 -31 -82 -65.5t-96 -63t-91 -48 t-63 -19.5q-18 0 -18 18zM334 571q0 -254 190 -254q86 0 164 84q47 154 47 357q0 256 -143 256q-55 0 -102.5 -39t-82 -102.5t-54 -142.5t-19.5 -159z" />
<glyph unicode=":" horiz-adv-x="319" d="M82 66q0 55 36 98t91 43q78 0 78 -82q0 -53 -36 -95t-89 -42q-80 0 -80 78zM207 651q0 55 36 98.5t89 43.5q80 0 80 -82q0 -53 -36 -96.5t-91 -43.5q-78 0 -78 80z" />
<glyph unicode=";" horiz-adv-x="321" d="M90 117q55 90 125 90q72 0 72 -82q0 -33 -17.5 -66.5t-45 -66.5t-62.5 -60.5t-70 -48.5q74 92 74 160q0 74 -76 74zM207 651q0 55 36 98.5t89 43.5q80 0 80 -82q0 -53 -36 -96.5t-89 -43.5q-80 0 -80 80z" />
<glyph unicode="&#x3c;" horiz-adv-x="501" d="M213 698l276 248l136 39l-287 -260l170 -248l-123 -35z" />
<glyph unicode="=" horiz-adv-x="569" d="M211 602l12 62h406l-13 -62h-405zM250 788l14 62h404l-15 -62h-403z" />
<glyph unicode="&#x3e;" horiz-adv-x="565" d="M223 440l287 258l-172 248l121 35l176 -256l-279 -248z" />
<glyph unicode="?" horiz-adv-x="729" d="M285 66q0 55 35.5 98t91.5 43q77 0 77 -82q0 -53 -35.5 -95t-88.5 -42q-80 0 -80 78zM319 575q0 43 33 93.5t81 104.5t105.5 110.5t105.5 113t81 110.5t33 103q0 76 -43 124t-121 48q-117 0 -234 -129l-26 47q63 68 161.5 108t196.5 40q234 0 234 -221q0 -66 -38 -135.5 t-95.5 -140t-125 -138.5t-125 -129t-95 -115.5t-37.5 -97.5q0 -35 30 -164l-53 -16l-63 254q-4 20 -5 30z" />
<glyph unicode="@" horiz-adv-x="1110" d="M182 479q0 129 57.5 251t151.5 216t215 151.5t250 57.5q166 0 263.5 -96t97.5 -262q0 -66 -26 -137.5t-68 -132t-96 -99.5t-114 -39q-59 0 -106 90q-29 -59 -90.5 -94t-126.5 -35q-131 0 -131 101q0 51 27.5 84.5t67.5 58t88 45t88 42t67.5 50.5t27.5 72q0 29 -25.5 45 t-58.5 16t-71.5 -26.5t-59.5 -57.5l-24 47q109 96 211 97q57 0 97 -34t40 -87q0 -18 -9.5 -61.5t-19.5 -91.5t-19 -91t-9 -59q0 -41 30 -41q37 0 69 25.5t53.5 67.5t33.5 96t12 110q0 147 -71.5 239.5t-200.5 92.5q-90 0 -172 -50.5t-146.5 -131.5t-102.5 -182t-38 -206 q0 -82 23.5 -149.5t66.5 -116.5t102.5 -75.5t131.5 -26.5q63 0 125 18l-11 -39q-43 -16 -89 -24.5t-95 -8.5q-92 0 -168 28t-131 77t-86 119.5t-31 156.5zM592 487q0 -47 61 -47q43 0 65.5 11.5t36 37t22 65.5t22.5 95q-37 -10 -74 -30.5t-66.5 -44t-48 -47t-18.5 -40.5z " />
<glyph unicode="A" d="M12 0l4 25q59 0 86 49l668 1323l-6 47l84 -4l88 4l102 -1376q4 -43 76 -43l-6 -25q-133 6 -150 6q-16 0 -157 -6l4 25q63 0 63 45v4q0 6 -3 31.5t-6 59.5t-5 72.5t-2 69.5l2 29h-561q-8 -29 -39 -91.5t-84 -166.5q-4 -16 -4 -17q0 -36 52 -36h3l-6 -25q-98 6 -109 6 q-12 0 -94 -6zM313 377h537q-2 10 -8 72.5t-14.5 154.5t-16.5 200.5t-15.5 211t-12.5 185.5t-5 124q-45 -109 -90 -203t-98 -200.5t-121 -236.5t-156 -308z" />
<glyph unicode="B" horiz-adv-x="858" d="M25 2l4 25q23 0 51.5 19.5t36.5 43.5l266 1268q2 2 2 12q0 47 -53 51l4 25h426q102 0 164.5 -76t62.5 -199q0 -70 -22.5 -135t-62.5 -121.5t-94 -99.5t-116 -65h15q39 0 73.5 -25t59 -66t39 -93t14.5 -107q0 -109 -46 -193t-123 -143.5t-177 -90t-209 -30.5h-315zM274 70 q0 -27 45 -27q86 0 160 36t129.5 98.5t86 145.5t30.5 177q0 98 -45 154.5t-127 56.5q-14 0 -143 -6q-4 -33 -8.5 -58.5t-10.5 -48.5l-86 -408q-6 -29 -18.5 -63.5t-12.5 -56.5zM418 743l149 7q51 4 99.5 46t84 101t57 128t21.5 126q0 117 -50 185.5t-134 68.5h-86 q-6 -20 -8 -47t-12 -66l-88 -426q-4 -25 -13.5 -55.5t-19.5 -67.5z" />
<glyph unicode="C" horiz-adv-x="1013" d="M178 453q0 238 57.5 423t158 313t233.5 194.5t284 66.5q35 -6 66 -12t57 -27q12 -10 25.5 -29.5t28 -38t28.5 -33t27 -14.5q27 0 37 43h24l-43 -284h-22q-4 72 -25.5 135t-56.5 109.5t-82 73t-101 26.5q-68 0 -131 -43t-118.5 -115t-102.5 -166t-80.5 -197.5t-52 -208 t-18.5 -196.5q0 -199 56 -311.5t163 -112.5q68 0 140.5 35t136 89t109.5 123t60 136h23l-78 -287h-23q2 2 3 13q0 14 -15 14q-4 -2 -18.5 -8t-36.5 -23q-94 -76 -181 -111.5t-190 -35.5q-172 0 -257 125t-85 334z" />
<glyph unicode="D" horiz-adv-x="964" d="M10 2l4 25q76 2 86 63l271 1280q0 51 -56 51l7 25h479q74 0 130 -36t94 -102.5t58.5 -157.5t20.5 -202q0 -180 -48 -351t-143.5 -303t-241 -212t-337.5 -80h-324zM260 78q0 -20 9.5 -27.5t39.5 -7.5h113q90 0 180 81t163 211t119 292.5t46 326.5q0 215 -78 333t-219 118 h-92q-2 -20 -4 -49t-13 -70l-225 -1067q-4 -25 -21.5 -64.5t-17.5 -76.5z" />
<glyph unicode="E" horiz-adv-x="847" d="M20 2l7 25q23 0 50 19.5t36 43.5l268 1280q0 51 -51 51l2 25h682l-25 -195h-18q-4 94 -13.5 124t-39.5 30h-363q-6 -45 -13 -84t-14 -72l-84 -389q-6 -27 -15 -53.5t-15 -58.5h327q29 0 50.5 33.5t29.5 78.5h23l-41 -272h-21q2 8 2 17v20q0 82 -43 82h-333 q-4 -35 -9.5 -60.5t-9.5 -48.5l-86 -408q-2 -12 -10 -40.5t-21 -79.5q0 -27 50 -27h393q51 0 121 154h16l-55 -195h-777z" />
<glyph unicode="F" horiz-adv-x="794" d="M27 2l6 25q29 0 55.5 19.5t30.5 43.5l268 1280q0 51 -53 51l6 25h684l-27 -195h-14q-6 94 -16.5 124t-40.5 30h-365q-4 -35 -9 -63.5t-11 -49.5l-90 -436q-6 -29 -13.5 -54.5t-17.5 -53.5h328q55 0 73 112h23l-41 -272h-21q2 8 2 17v20q0 82 -43 82h-329 q-4 -37 -11.5 -68t-11.5 -59l-102 -490q-2 -2 -2 -12q0 -51 57 -51l-6 -25h-309z" />
<glyph unicode="G" horiz-adv-x="1042" d="M162 434q0 188 48 371.5t140 329t226.5 234.5t304.5 89q37 0 67.5 -11t57.5 -28q8 -8 22 -26.5t30.5 -38t30 -33.5t17.5 -14q29 0 29 32h22l-61 -284h-23q8 25 8 63q0 57 -17 109.5t-48 92.5t-74 63.5t-94 23.5q-88 0 -159 -52t-126 -137t-94 -190.5t-63.5 -213t-37 -207 t-12.5 -169.5q0 -397 191 -397q78 0 142.5 52t110.5 126t71.5 155t25.5 140q0 53 -53 53l6 25h285l-7 -25q-29 0 -53 -18.5t-33 -44.5l-53 -254q-10 -41 -15 -77t-5 -62q0 -45 10 -66l-64 -35q-10 31 -10 78q0 55 19 141q-76 -119 -178.5 -182t-268.5 -63 q-158 0 -236.5 120.5t-78.5 329.5z" />
<glyph unicode="H" horiz-adv-x="1030" d="M39 2l4 25q20 0 49 19.5t35 43.5l268 1268q4 2 4 12q0 51 -55 51l6 25q68 -2 105 -3t47 -1t49 1t106 3l-6 -25q-27 0 -53.5 -19.5t-30.5 -43.5l-94 -440l-39 -150h496q6 43 12 84t14 80l91 438q0 51 -54 51l6 25q68 -2 108 -3t48 -1t46 1t106 3l-4 -25q-33 0 -56.5 -19.5 t-27.5 -43.5l-273 -1280q0 -51 55 -51l-6 -25q-68 2 -104.5 3t-44.5 1q-12 0 -50 -1t-108 -3l6 25q20 0 49 19.5t35 43.5l103 479q4 29 14 68t25 88h-494q-10 -45 -15 -84t-12 -72l-102 -491q0 -51 55 -51l-6 -25q-72 2 -107.5 3t-43.5 1t-47 -1t-109 -3z" />
<glyph unicode="I" horiz-adv-x="356" d="M29 0l6 25q23 0 50.5 19t33.5 44l270 1282q0 51 -53 51l6 17l307 8l-4 -25q-33 0 -56.5 -19.5t-27.5 -43.5l-272 -1282q0 -51 55 -51l-6 -25q-141 6 -154 6q-18 0 -155 -6z" />
<glyph unicode="J" horiz-adv-x="581" d="M-145 -78q0 27 17 48.5t44 21.5q12 0 24.5 -9.5t18.5 -29.5q14 -37 23.5 -58.5t21.5 -31.5t29.5 -13.5t46.5 -3.5q92 0 159.5 61.5t90.5 168.5l270 1294q0 51 -53 51l6 25q37 -2 75 -3t77 -1t77.5 1t77.5 3l-4 -25q-37 0 -58.5 -19.5t-25.5 -43.5l-254 -1182 q-16 -78 -60 -147.5t-105.5 -121.5t-136.5 -82t-153 -30q-41 0 -77.5 10.5t-66.5 27.5t-47 40t-17 49z" />
<glyph unicode="K" horiz-adv-x="952" d="M23 2l6 25q23 0 50 19.5t36 43.5l266 1268q2 2 2 12q0 51 -53 51l6 25q66 -2 100.5 -3t46.5 -1q8 0 48 1t114 3l-6 -25q-29 0 -55.5 -19.5t-30.5 -43.5q-18 -94 -49 -232.5t-74 -322.5q61 33 132 91t144.5 135t145.5 165t135 178q14 23 14 33q0 16 -40 16l2 25 q51 -2 77.5 -3t28.5 -1q6 0 31.5 1t70.5 3l-4 -25q-76 0 -127 -63q-72 -94 -127 -165t-104 -126t-95 -101t-98 -94q6 -18 16.5 -45.5t22.5 -68.5l201 -668q8 -25 32.5 -44t47.5 -19l-4 -25q-82 2 -124 3t-54 1q-8 0 -48 -1t-112 -3l6 25q23 0 42.5 15t19.5 34q0 4 -189 690 l-59 -35q-4 -33 -9.5 -64.5t-13.5 -62.5l-108 -526q0 -51 55 -51l-6 -25q-72 2 -110 3t-50 1q-6 0 -42 -1t-107 -3z" />
<glyph unicode="L" horiz-adv-x="817" d="M33 2l6 25q23 0 50.5 19.5t33.5 43.5l268 1268q2 2 2 12q0 51 -55 51l6 25q70 -2 109 -3t49 -1q8 0 45 1t104 3l-4 -25q-29 0 -54.5 -19.5t-29.5 -43.5l-241 -1131q0 2 -6.5 -20.5t-13.5 -50t-13 -52t-6 -26.5q0 -20 18 -35h348q74 0 144 154h22l-80 -195h-702z" />
<glyph unicode="M" horiz-adv-x="1148" d="M4 2l4 25q29 0 53.5 19.5t30.5 43.5l301 1268q2 2 2 14q0 49 -53 49l6 25q25 -2 49.5 -3t51.5 -1q31 0 55 1t47 3l88 -875q4 -39 4 -101t2 -157q29 70 59.5 131.5t63.5 122.5l455 879q39 -2 60.5 -3t25.5 -1t28.5 1t67.5 3l-4 -25q-27 0 -54.5 -19.5t-31.5 -43.5 l-234 -1268q-2 -2 -2 -12q0 -51 56 -51l-5 -25q-70 2 -106.5 3t-44.5 1q-12 0 -50 -1t-108 -3l4 25q29 0 56.5 19.5t29.5 43.5l136 744q10 55 27.5 135t43.5 188q-4 -6 -29.5 -57t-66.5 -132t-93 -182.5t-105.5 -208t-104.5 -209t-93 -183.5t-69 -134t-31 -61q-2 59 -8 135 t-18 178l-66 541q-6 51 -11 118.5t-5 159.5v35q-49 -197 -95.5 -391.5t-82 -349t-58 -249.5t-22.5 -91q0 -49 57 -49l-6 -25q-45 2 -70.5 3t-34.5 1q-6 0 -31.5 -1t-70.5 -3z" />
<glyph unicode="N" horiz-adv-x="1001" d="M12 2l4 25q23 0 50.5 19.5t33.5 43.5l273 1280q0 51 -56 51l7 25q100 -6 112 -6t103 6l303 -811q6 -20 10 -26.5t6 -12.5t5 -16.5t11.5 -38t20.5 -79.5t33 -138q37 166 74.5 336.5t68.5 316t50.5 252t19.5 141.5q0 51 -56 51l7 25q47 -2 72.5 -3t33.5 -1q4 0 29.5 1 t72.5 3l-6 -25q-27 0 -53.5 -19.5t-30.5 -43.5l-303 -1430q-25 68 -43 121t-35 96l-323 844q-18 51 -41 119t-49 164q-16 -102 -31.5 -181t-28.5 -141l-184 -860q-2 -2 -2 -12q0 -51 55 -51l-2 -25q-49 2 -74.5 3t-29.5 1q-6 0 -33 -1t-74 -3z" />
<glyph unicode="O" horiz-adv-x="1042" d="M166 334q0 131 19.5 265t57.5 259t97 235.5t139 192.5t181.5 129t224.5 47q74 0 128 -22.5t90 -73.5t54.5 -134t18.5 -206q0 -115 -23 -237.5t-64.5 -238.5t-104 -218.5t-143.5 -179t-179.5 -121.5t-210.5 -45q-285 0 -285 348zM356 354q0 -315 160 -315q82 0 149.5 56.5 t120 146.5t91 202.5t63.5 225t37 213t12 168.5q0 78 -11 143.5t-31.5 112.5t-52.5 73.5t-71 26.5q-66 0 -127 -52t-112.5 -138.5t-93 -197t-71.5 -227t-46.5 -231.5t-16.5 -207z" />
<glyph unicode="P" horiz-adv-x="858" d="M25 2l6 25q23 0 50.5 19.5t35.5 43.5l266 1268q2 2 2 12q0 51 -53 51l6 25h485q98 0 156.5 -75t58.5 -204q0 -55 -16 -127q-98 -413 -531 -413h-2h-98q-10 -43 -14 -84t-12 -82l-80 -383q0 -51 55 -51l-6 -25q-70 2 -107 3t-49 1q-8 0 -46 -1t-107 -3zM403 668h123 q63 0 124 45t108 113.5t75.5 152.5t28.5 162q0 117 -55 190.5t-152 73.5h-96q-10 -74 -24 -148z" />
<glyph unicode="Q" horiz-adv-x="1034" d="M166 338q0 72 13.5 170t41.5 233q39 178 94.5 311.5t134 222.5t185 134t246.5 45q290 0 290 -376q0 -200 -69 -451q-68 -252 -158 -386.5t-227 -181.5l8 2q63 -8 120.5 -38.5t112 -70.5t107.5 -86t105.5 -84t107.5 -62.5t115 -24.5q40 0 71 6q-102 -57 -213 -57 q-70 0 -135 25.5t-135 72.5q-10 6 -34.5 29.5t-57.5 55.5t-70 66.5t-71.5 64.5t-63.5 49.5t-43 19.5q-8 0 -10 -2q-100 -35 -168 -35q-150 0 -223.5 88t-73.5 260zM354 360q0 -313 162 -313q217 0 358 428q111 332 111 617q0 307 -166 307q-70 0 -133 -48t-116.5 -135.5 t-97.5 -211t-77 -277.5q-20 -98 -30.5 -188t-10.5 -179z" />
<glyph unicode="R" horiz-adv-x="933" d="M41 2l4 25q23 0 50.5 19.5t33.5 43.5l272 1280q0 51 -55 51l6 25h486q94 0 147 -79t53 -202q0 -74 -24.5 -148.5t-67.5 -138t-100.5 -106.5t-120.5 -51q84 -4 125 -58.5t41 -144.5q0 -20 -3 -41.5t-5 -44.5l-58 -262q-2 -12 -3 -22.5t-1 -20.5q0 -82 88 -100l-8 -25 q-51 0 -95 12.5t-77 35t-51.5 53t-18.5 67.5q0 16 7 39l61 295q2 10 2 33q0 31 -9 60.5t-26.5 54t-40 39t-47.5 14.5h-182l-18 -123l-107 -504q0 -51 55 -51l-6 -25q-68 2 -103.5 3t-45.5 1q-6 0 -46 -1t-112 -3zM432 743h184q49 0 94.5 36t78 92.5t52 127t19.5 142.5 q0 121 -49 192.5t-141 71.5h-99q-4 -39 -9 -72t-11 -59l-90 -416z" />
<glyph unicode="S" horiz-adv-x="747" d="M111 92l26 197h27q-2 -12 -3 -24.5t-1 -24.5q0 -94 53 -142.5t143 -48.5q53 0 98.5 31t78 81t51 115.5t18.5 133.5q0 63 -22.5 117.5t-56.5 103.5t-73.5 96t-73.5 95t-56.5 99.5t-22.5 108.5q0 84 36 162t94 138.5t135 96t161 35.5q133 0 192 -71l-34 -238h-29 q12 74 12 119q0 125 -139 125q-53 0 -97 -29t-78 -76t-52.5 -106.5t-18.5 -118.5q0 -88 48 -163t105.5 -147.5t105.5 -149.5t48 -169q0 -80 -32.5 -160.5t-91 -147.5t-136 -107.5t-170.5 -40.5q-68 0 -128 36.5t-117 73.5z" />
<glyph unicode="T" horiz-adv-x="843" d="M276 2l5 25q23 0 51 19.5t35 43.5l249 1165q6 35 15.5 72t19.5 78h-227q-10 0 -24.5 -17.5t-28 -42t-23.5 -50t-14 -44.5h-23l68 238h24q-2 -12 -3 -18.5t-1 -8.5q0 -16 33 -16h610q47 0 58 43h24l-67 -238h-23q8 43 13.5 72t5.5 43q0 39 -21 39h-225q-4 -41 -10 -78 t-13 -72l-247 -1165q-2 -2 -2 -12q0 -51 55 -51l-6 -25h-308z" />
<glyph unicode="U" horiz-adv-x="948" d="M166 244q0 33 2 69.5t14 73.5l205 971q2 2 2 12q0 51 -53 51l4 25l154 -6q2 0 153 6l-2 -25q-29 0 -55.5 -19.5t-30.5 -43.5l-205 -965q-6 -29 -10 -55.5t-4 -52.5q0 -119 47 -177.5t152 -58.5q45 0 90 26.5t84 72t67.5 101.5t40.5 116l213 1005q0 51 -53 51l6 25 q100 -6 141 -6q12 0 33 1t42.5 2t39 2t21.5 1l-7 -25q-29 0 -55 -19.5t-31 -43.5l-217 -1030q-25 -119 -39 -180.5t-14 -71.5q0 -51 55 -51l-4 -25q-16 0 -52 5t-56 5q-23 0 -46.5 -3t-52.5 -7q6 27 16.5 71t18.5 99q-59 -102 -140 -141t-206 -39q-268 0 -268 254z" />
<glyph unicode="V" horiz-adv-x="1144" d="M319 1421l5 25q72 -2 111.5 -3t49.5 -1q8 0 45 1t103 3l-4 -25q-61 0 -62 -53l72 -842q10 -133 14 -232t4 -169q25 63 70 159.5t113 229.5l422 844q10 12 10 26q0 37 -53 37l6 25q51 -2 78.5 -3t31.5 -1q8 0 29.5 1t62.5 3l-4 -25q-39 0 -58 -16t-36 -47l-659 -1358h-172 l-99 1364q-6 57 -80 57z" />
<glyph unicode="W" horiz-adv-x="1603" d="M322 1421l8 25q72 -2 110.5 -3t46.5 -1t45 1t105 3l-4 -25q-66 0 -66 -53l76 -842q12 -135 12 -233t4 -168q27 63 93.5 202.5t179.5 362.5l-51 674q-4 57 -78 57l4 25q72 -2 109.5 -3t44.5 -1h380q6 0 28 1t63 3l-7 -25q-37 0 -57 -16t-37 -47l-237 -494l28 -338 q8 -94 13.5 -172t5.5 -141v-88q23 63 69.5 159.5t112.5 229.5l424 844q6 14 6 26q0 37 -51 37l6 25q51 -2 79 -3t34 -1t28.5 1t59.5 3l-4 -25q-37 0 -58.5 -16t-36.5 -47l-659 -1358h-168l-43 553l-268 -553h-170l-101 1364q-4 57 -79 57zM1047 1368l14 -135q4 -59 8 -130 t6 -142q18 47 66.5 145t126.5 252q8 14 8 26q0 37 -53 37h-113q-63 0 -63 -53z" />
<glyph unicode="X" horiz-adv-x="804" d="M6 0l6 25q55 0 101 63l376 588l-79 688q-4 57 -72 57l4 25q72 -2 111 -3t49 -1q8 0 45 1t102 3l-4 -25q-25 0 -44 -13t-19 -32l30 -250q4 -8 7.5 -68.5t13.5 -178.5q27 51 101.5 170.5t201.5 316.5q4 12 4 18q0 37 -47 37l4 25q51 -2 81 -3t36 -1t30.5 1t67.5 3l-6 -25 q-35 0 -57.5 -14t-38.5 -43l-359 -553l92 -750q4 -36 65 -36h3l-4 -25q-141 6 -162 6q-16 0 -145 -6l4 25q20 0 41.5 13t21.5 30l-32 266q-10 74 -16.5 133t-6.5 108v41q-20 -43 -59 -107.5t-97 -156.5l-170 -266q-10 -8 -10 -23q0 -38 45 -38h2l-4 -25q-90 6 -100 6 q-12 0 -113 -6z" />
<glyph unicode="Y" horiz-adv-x="802" d="M248 2l4 25q23 0 51.5 19.5t34.5 43.5l147 680l-114 616q-6 35 -68 35l4 25q76 -2 115 -3t49 -1q8 0 43 1t104 3l-8 -25q-20 0 -42.5 -19.5t-22.5 -39.5v-4q0 -6 5 -39t17 -92q4 -18 13.5 -63.5t19.5 -97.5t17.5 -102.5t7.5 -78.5q31 63 100.5 183t183.5 298q6 8 6 18 q0 37 -49 37l6 25q45 -2 71 -3t32 -1q10 0 35.5 1t74.5 3l-6 -25q-59 0 -98 -63l-207 -342q-41 -47 -104 -170q-6 -4 -25.5 -100.5t-58.5 -286.5q-41 -186 -59.5 -281.5t-18.5 -99.5q0 -51 55 -51l-6 -25q-72 2 -107.5 3t-43.5 1q-10 0 -48.5 -1t-109.5 -3z" />
<glyph unicode="Z" horiz-adv-x="847" d="M27 2q35 45 68.5 96.5t70.5 114.5l555 934q47 80 91 145.5t81 112.5h-432q-55 0 -119 -154h-18l65 222h23q-2 -2 -2 -7q0 -20 20 -20h647q-33 -41 -63.5 -91t-65.5 -106l-545 -919q-57 -96 -104 -166t-86 -121h479q59 0 125 154h17l-56 -195h-751z" />
<glyph unicode="[" horiz-adv-x="434" d="M45 -129l367 1731h223l-8 -37h-146l-354 -1661h147l-6 -33h-223z" />
<glyph unicode="\" horiz-adv-x="638" d="M371 1446h92l65 -1444h-88z" />
<glyph unicode="]" horiz-adv-x="495" d="M184 -129l6 33h148l354 1661h-151l12 37h223l-368 -1731h-224z" />
<glyph unicode="^" horiz-adv-x="806" d="M315 1133l326 288h131l193 -288h-191l-151 208l-236 -208h-72z" />
<glyph unicode="_" horiz-adv-x="952" d="M-39 -328l141 27q31 4 186.5 9t442.5 5h141l-139 -24q-27 -4 -130 -10.5t-290 -6.5h-73h-279z" />
<glyph unicode="`" horiz-adv-x="911" d="M653 1581q0 55 70 55q33 0 68 -24l161 -105l-34 -41l-222 68q-43 12 -43 47z" />
<glyph unicode="a" horiz-adv-x="813" d="M135 332q0 158 36 302t102.5 253.5t157.5 175t202 65.5q27 0 57.5 -8t59 -18t50 -18.5t29.5 -8.5q70 0 138 66l-215 -1016q-2 -8 -2 -13.5v-9.5q0 -29 28 -28q10 0 47 10l-8 -35q-203 -51 -217 -51q-35 0 -35 33q0 29 31 125q-96 -160 -283 -160q-178 0 -178 336z M313 362q0 -131 33 -213.5t88 -82.5q25 0 56.5 21.5t66.5 64.5q33 43 47 77.5t20.5 64.5t8.5 54.5t8 46.5l84 406q2 8 9 28.5t15.5 45t14.5 51.5t6 47q0 88 -117 88q-78 0 -140 -55.5t-107.5 -149.5t-69 -222t-23.5 -272z" />
<glyph unicode="b" horiz-adv-x="860" d="M78 2l280 1317q2 4 2 16q0 10 -9 17.5t-19 11.5t-19.5 8t-9.5 10q0 8 2 8.5t24.5 4.5t75 15t152.5 42q-18 -84 -45 -209t-68 -291q104 193 287 193q217 0 217 -287q0 -170 -39 -325.5t-107.5 -273.5t-160.5 -187.5t-199 -69.5q-33 0 -70.5 21.5t-70.5 47t-58.5 47 t-33.5 21.5q-31 0 -62.5 -34.5t-68.5 -102.5zM303 248q0 -80 43 -138.5t109 -58.5q53 0 98 41t81 109.5t62.5 154.5t45 176.5t27.5 175t9 152.5q0 197 -131 197q-104 0 -164.5 -104.5t-95.5 -290.5l-49 -242q-14 -47 -24.5 -95.5t-10.5 -76.5z" />
<glyph unicode="c" horiz-adv-x="755" d="M168 358q0 92 20.5 187.5t58.5 182.5t90 163t115.5 132t135 88t149.5 32q143 0 199 -105l-94 -137v39q0 154 -101 154q-80 0 -149.5 -70t-122.5 -178.5t-84 -240.5t-31 -255q0 -289 172 -289q113 0 232 156l33 -18q-154 -203 -355 -203q-129 0 -198.5 95t-69.5 267z" />
<glyph unicode="d" horiz-adv-x="862" d="M184 340q0 147 32 288.5t89 252t139 179t185 68.5q70 0 121 -43t69 -112q0 8 10.5 61t23.5 116.5t23.5 119t10.5 65.5t-9.5 17.5t-19.5 11.5t-19.5 8t-9.5 10t10.5 9.5t38 9.5t77 17.5t128.5 33.5l-280 -1327q-4 -20 -4 -23q0 -29 28 -28q10 0 47 10l-8 -35 q-203 -51 -217 -51q-37 0 -37 33q0 16 8.5 47t24.5 78q-96 -160 -283 -160q-178 0 -178 344zM362 371q0 -137 33 -221t90 -84q25 0 55.5 23.5t59.5 59t48.5 74.5t23.5 70q4 33 22.5 123t50.5 248q12 41 23 77q8 31 15.5 64t7.5 51q0 31 -13.5 66.5t-36 66.5t-51 51.5 t-61.5 20.5q-55 0 -104.5 -61.5t-85.5 -160t-56.5 -221t-20.5 -247.5z" />
<glyph unicode="e" horiz-adv-x="835" d="M166 356q0 133 44 272.5t121 254t183.5 188.5t228.5 74q109 0 170.5 -61.5t61.5 -149.5q0 -174 -121 -262q-14 -8 -51 -23.5t-86 -35t-104.5 -43t-105.5 -48t-91 -49t-60 -45.5q-2 -35 -5 -58.5t-3 -39.5q0 -127 49 -198t127 -71q63 0 135 43t127 113l35 -20 q-152 -201 -387 -201q-131 0 -199.5 94t-68.5 266zM360 520q27 25 66 44.5t90 35.5q94 31 155.5 61.5t96.5 67.5t48 86t13 121q0 61 -27.5 104t-78.5 43q-57 0 -114.5 -52t-106.5 -133t-87 -181.5t-55 -196.5z" />
<glyph unicode="f" horiz-adv-x="514" d="M-63 -285q63 61 122.5 169t110.5 261q29 86 47.5 159t34.5 166t33.5 222t46.5 326h-86l6 43h90q31 193 105.5 283t224.5 90q92 0 125 -58l-99 -127q6 31 7 58q0 71 -45 71h-1q-41 0 -65.5 -27.5t-41.5 -71.5t-28.5 -101.5t-23.5 -116.5h143l-10 -43h-141 q-18 -250 -68.5 -466t-121.5 -388t-155 -295t-170 -182z" />
<glyph unicode="g" horiz-adv-x="839" d="M141 281q0 154 39 305t106.5 272t160 196.5t198.5 75.5q33 0 70 -21.5t69.5 -46t57 -46t37.5 -21.5q57 0 131 144l-176 -836q-31 -143 -88.5 -258t-134 -195.5t-171 -123.5t-198.5 -43h-15l13 90q27 -33 77 -33q16 0 31 8q119 45 191.5 151.5t113.5 311.5 q-23 -45 -56.5 -84t-73.5 -68.5t-83 -46t-84 -16.5q-215 0 -215 285zM307 276q0 -194 130 -194h1q88 0 166 96q29 37 44.5 73t23.5 71.5t13 74.5t15 82l58 279q2 2 8 23.5t12 48t12.5 51t6.5 32.5q0 31 -13.5 62t-36 54.5t-52 37.5t-62.5 14q-41 0 -81 -38.5t-76 -102 t-66.5 -147.5t-53 -173.5t-36 -178.5t-13.5 -165z" />
<glyph unicode="h" horiz-adv-x="821" d="M59 2q8 10 13.5 14t12.5 21.5t18.5 60.5t29.5 131l229 1090q2 4 3 16q0 10 -9.5 17.5t-20.5 11.5t-20.5 8t-9.5 10t6 8.5t32 6.5t77 16t143 39q-18 -78 -44.5 -194.5t-65.5 -274.5q35 72 112.5 117t171.5 45q41 0 78 -18.5t63.5 -49t42 -71.5t15.5 -86q0 -39 -8 -64 l-162 -768q0 -27 78 -27l-6 -26h-15q-23 0 -58.5 -8.5t-73.5 -17.5t-71.5 -17t-48.5 -8l179 845q6 27 6 52q0 68 -37 120t-98 52q-84 0 -132.5 -72t-72.5 -217l-113 -535q-16 -74 -24.5 -116.5t-8.5 -55.5q0 -8 1 -21t3 -34q-29 0 -49 1t-32 1h-50q-14 0 -35.5 -1t-48.5 -1z " />
<glyph unicode="i" horiz-adv-x="352" d="M92 -39l221 1038q2 4 2 15q0 14 -9 20t-19.5 10.5t-19.5 7.5t-9 11q0 4 11.5 8t40 10t77.5 18.5t127 33.5l-221 -1039q-2 -4 -2 -18q0 -23 20 -23q12 0 29.5 4t28.5 4l-4 -26q-4 -4 -18.5 -7t-44.5 -9.5t-81 -19.5t-129 -38zM379 1333q0 55 36 98.5t89 43.5q78 0 78 -82 q0 -53 -36 -96.5t-89 -43.5q-78 0 -78 80z" />
<glyph unicode="j" horiz-adv-x="354" d="M-154 -287l37 117q33 -59 74 -59q20 0 43 19.5t44.5 52t38.5 75.5t28 88l211 993q2 4 2 17q0 12 -9.5 18t-20.5 10.5t-20.5 8.5t-9.5 12q0 4 9.5 7t37 8t76.5 17.5t131 35.5l-215 -1022q-20 -86 -63 -159t-103.5 -126t-134.5 -83t-156 -30zM387 1333q0 55 37 98.5 t90 43.5q78 0 78 -82q0 -53 -37 -96.5t-90 -43.5q-78 0 -78 80z" />
<glyph unicode="k" horiz-adv-x="909" d="M90 2q10 29 24.5 75t30.5 118l240 1124q2 4 2 14q0 12 -9 19.5t-19.5 11.5t-19.5 8t-9 10t10 9.5t38 9.5t77 17.5t129 33.5l-125 -588q35 57 77 103.5t88 80t91 52t86 18.5q84 0 132 -52t48 -132q0 -68 -30.5 -137.5t-80 -127t-113 -93t-128.5 -35.5q39 -25 69 -166v-4 q0 -14 4.5 -60.5t14.5 -96.5t27.5 -89t46.5 -39q20 0 73 61q4 -12 19 -22q-4 -18 -25.5 -44t-50.5 -47.5t-58.5 -36.5t-50.5 -15q-55 0 -89 45t-42 110q-23 186 -58.5 294t-78.5 108q-23 0 -47 -25l-68 -319q-10 -49 -14 -87t-4 -65v-21.5t2 -19.5h-71.5t-34.5 4 q-12 0 -29 -1t-32 -1t-27.5 -1t-14.5 -1zM395 584q41 45 119 45q61 0 84 -45h14q39 0 75 27.5t62.5 70.5t42 94.5t15.5 100.5q0 137 -98 137q-66 0 -138.5 -63.5t-130.5 -170.5l-8 -39q-4 -16 -7 -25t-8 -22.5t-10.5 -38t-11.5 -71.5z" />
<glyph unicode="l" horiz-adv-x="352" d="M96 -16l285 1335q2 4 2 16t-8 18.5t-19.5 10.5t-19.5 8t-8 10q0 4 11 8.5t40 10.5t78 18.5t125 32.5l-289 -1358q-2 -2 -2 -6q0 -27 78 -27l-4 -26q-80 -10 -147.5 -23.5t-121.5 -27.5z" />
<glyph unicode="m" horiz-adv-x="1171" d="M70 2q35 51 65 193l170 804q2 4 2 15q0 14 -9 20t-19.5 10.5t-19.5 7.5t-9 11q0 6 10 9t38 8t78 16.5t130 36.5q-6 -31 -15.5 -62t-19.5 -65q37 59 102.5 98t131.5 39t106.5 -38t40.5 -99q104 141 260 141q90 0 138 -55.5t48 -147.5q0 -20 -3 -41.5t-7 -46.5l-162 -768 q0 -27 78 -27l-4 -26q-53 -2 -119.5 -14.5t-146.5 -36.5l178 845q2 25 7 49.5t5 53.5q0 147 -88 147q-53 0 -101 -62.5t-65 -160.5l-141 -661q-4 -20 -8 -67.5t-12 -125.5q-29 0 -47.5 1t-32.5 1h-49q-14 0 -36 -1t-50 -1q18 37 36.5 84t30.5 109l135 634q4 29 7.5 55.5 t3.5 55.5q0 135 -82 135q-61 0 -99.5 -43t-60 -102.5t-31.5 -120.5t-18 -96l-113 -518q-12 -55 -15 -95.5t-5 -68.5q0 -23 2 -29q-29 0 -47.5 1t-32.5 1h-49q-14 0 -35 -1t-51 -1z" />
<glyph unicode="n" horiz-adv-x="819" d="M66 2q20 33 35.5 78t29.5 115l172 804v15q0 10 -9 17t-19.5 11.5t-19.5 9.5t-9 13q0 6 5 7t29.5 5t76 15.5t145.5 40.5l-43 -158q35 78 109.5 122t156.5 44q102 0 159.5 -56.5t57.5 -152.5q0 -18 -2 -36.5t-4 -39.5l-162 -768q0 -27 64 -27h12l-4 -26q-127 0 -266 -51 l178 845q6 18 8 38t2 42q0 160 -123 160q-78 0 -121 -42t-64.5 -99.5t-29.5 -113.5t-14 -87l-115 -532q-10 -53 -16 -93.5t-6 -70.5q0 -23 2 -29q-29 0 -49.5 1t-32.5 1h-52q-12 0 -33.5 -1t-47.5 -1z" />
<glyph unicode="o" horiz-adv-x="868" d="M158 317q0 152 30.5 303.5t99 272.5t181.5 196.5t279 75.5q121 0 180 -96t59 -254q0 -154 -36 -302t-109.5 -267t-184 -191.5t-258.5 -72.5q-123 0 -182 92t-59 243zM330 291q0 -250 157 -250q35 0 72 12q29 10 59.5 52t58.5 103.5t52.5 138.5t44 157t29.5 157t10 140 q0 141 -44 219t-122 78q-51 0 -94 -46t-79 -119t-62.5 -164t-45 -180t-27.5 -169t-9 -129z" />
<glyph unicode="p" horiz-adv-x="841" d="M8 -307q14 31 31.5 78t32.5 110l43 193q-72 53 -72 114l37 37l51 -63l176 837q2 4 2 17q0 12 -9 18t-20.5 10.5t-20.5 8.5t-9 12q0 4 9 6t37 8t78 18.5t134 35.5q-8 -37 -17.5 -73t-23.5 -71q37 43 67.5 70.5t62.5 45t67.5 25t85.5 7.5q41 0 75.5 -29t59 -79t38 -117.5 t13.5 -147.5q0 -158 -41 -298t-114.5 -245.5t-175 -167t-224.5 -61.5q-63 0 -115 12q-16 -74 -24.5 -120t-13.5 -77.5t-6 -56t-1 -57.5q-27 2 -48 2t-34 2h-49q-14 -2 -33.5 -2t-48.5 -2zM270 63q49 -16 90 -16q86 0 158 56.5t124 153.5t82 225.5t30 269.5q0 137 -33 226 t-92 89q-49 0 -117 -80q-37 -45 -53.5 -81t-22.5 -65.5t-8 -57t-8 -58.5l-109 -500q-6 -27 -18 -66.5t-23 -95.5z" />
<glyph unicode="q" horiz-adv-x="839" d="M141 281q0 154 39 306t106.5 273t160 195.5t198.5 74.5q33 0 70 -21.5t69.5 -46t57 -46t37.5 -21.5q57 0 131 144l-267 -1258q-10 -53 -16 -94t-6 -72q0 -8 1 -13t1 -9l-127 4q-14 -2 -35.5 -2t-52.5 -2q20 35 34.5 76t29 98t30.5 137t45 195q-45 -90 -121.5 -146.5 t-169.5 -56.5q-215 0 -215 285zM307 276q0 -194 130 -194h1q88 0 166 96q29 37 44.5 73t23.5 71.5t13 74.5t15 82l58 279q2 2 8 23.5t12 48t12.5 51t6.5 32.5q0 31 -13.5 62t-36 54.5t-52 37.5t-62.5 14q-41 0 -81 -38.5t-76 -102t-66.5 -147.5t-53 -173.5t-36 -178.5 t-13.5 -165z" />
<glyph unicode="r" horiz-adv-x="546" d="M66 2q14 31 29.5 73t29.5 97l176 827q2 4 2 17q0 12 -9 17t-20.5 9.5t-20.5 8.5t-9 12t8 10t34.5 7t77 16.5t134.5 36.5l-70 -299q141 315 320 315q49 0 81 -35l-114 -158q-12 74 -78 74q-49 0 -92 -52t-78 -131t-61.5 -171t-40.5 -170l-70 -334q-18 -84 -19 -133v-37 q-27 0 -46 1t-33 1h-52q-14 0 -33.5 -1t-45.5 -1z" />
<glyph unicode="s" horiz-adv-x="716" d="M76 72l96 194q6 -66 18.5 -106.5t32 -63t47 -31t66.5 -8.5q45 0 85 26t68.5 62.5t45 79.5t16.5 78q0 45 -20.5 85t-63.5 69q-47 31 -89 58.5t-76 60t-53.5 73.5t-19.5 96q0 82 34 157t90.5 131.5t131 89t156.5 32.5q154 0 211 -70q-18 -39 -44 -91t-63 -122l-2 -2v13 q-2 57 -6 97t-15 62.5t-32.5 32.5t-58.5 10q-45 0 -84 -21.5t-67.5 -57t-45 -79.5t-16.5 -87q0 -49 23.5 -86t59.5 -68t78 -59.5t77.5 -60t59 -70.5t23.5 -90q0 -80 -34.5 -156t-92 -136.5t-131 -96t-151.5 -35.5q-53 0 -116.5 21.5t-137.5 68.5z" />
<glyph unicode="t" horiz-adv-x="460" d="M145 201q0 23 2.5 44t8.5 46l141 655q6 29 11 51.5t14 40.5h-80l10 60h84q2 14 7 47t11 66.5t10.5 61t4.5 32.5q0 2 -1 16t-3 37q35 4 86 23.5t118 56.5q-18 -49 -35.5 -125t-41.5 -215h178l-15 -60h-176l-16 -98l-141 -676q-10 -47 -11 -76q0 -135 74 -135q49 0 109 66 l18 -60q-71 -77 -169 -77h-3q-90 0 -142.5 60t-52.5 159z" />
<glyph unicode="u" horiz-adv-x="839" d="M139 207q0 35 8 76l154 716q2 4 2 17q0 12 -9 18t-21.5 10.5t-21.5 8.5t-9 12q0 4 9 7t36.5 8t78 17.5t132.5 35.5l-176 -826q-10 -51 -11 -84q0 -70 33 -115t90 -45q74 0 115 37t64.5 89.5t32.5 110.5t18 99l104 486q16 76 22.5 130t8.5 93v25q80 -6 96 -7q12 1 104 7 q-10 -35 -26.5 -95.5t-36.5 -152.5l-158 -760q-4 -20 -4 -23q0 -29 27 -28q4 0 49 10l-8 -35q-203 -51 -217 -51q-37 0 -37 33q0 35 33 119q-39 -72 -113 -115t-154 -43q-98 0 -156.5 57t-58.5 158z" />
<glyph unicode="v" horiz-adv-x="772" d="M240 1063q0 6 47 18.5t174 51.5q25 -158 36 -317t11 -318q0 -102 -6 -195l82 125q72 111 138 248t126 315q31 92 31 103q0 18 -29 18h-8l6 27q14 0 47 -3t49 -3q20 0 25 4q-41 -133 -88 -256t-114 -255t-158 -284t-222 -342h-18q0 143 -6.5 290.5t-17.5 281t-23.5 244 t-24.5 183.5q-4 14 -13.5 24.5t-19.5 18t-17 12.5t-7 9z" />
<glyph unicode="w" horiz-adv-x="1161" d="M240 1063q0 4 11 8t36.5 11.5t67.5 19.5t106 31q29 -180 41 -311.5t12 -219.5q0 -90 -12 -299q23 29 54.5 84t66 126t68.5 151.5t63.5 158.5t53 146.5t34.5 117.5l2 5q0 20 -45 20h-11l7 27q12 0 38.5 -3t40.5 -3q23 0 27 6q29 -133 41 -275.5t12 -302.5 q0 -76 -2.5 -139.5t-11.5 -118.5q152 195 291 615q25 78 38 121.5t13 54.5q0 18 -31 18h-6l6 27q16 0 47.5 -3t51.5 -3t24 4q-23 -86 -59.5 -186.5t-82.5 -207t-97.5 -214t-103.5 -205t-104.5 -181.5t-99.5 -143h-20q14 205 20.5 324.5t6.5 160.5q0 78 -7.5 155t-21.5 155 q-131 -383 -418 -795h-18q0 154 -5.5 286t-15.5 252.5t-23.5 233.5t-27.5 227q-4 14 -13.5 24.5t-19.5 18t-17 12.5t-7 9z" />
<glyph unicode="x" horiz-adv-x="819" d="M61 55q0 111 103 160l55 -100q27 8 57.5 39.5t64.5 79t71 106.5t75 121l-122 538q-4 18 -17.5 27.5t-29 16t-26.5 10.5t-11 10t10 10t35.5 10.5t69.5 17.5t110 32l96 -435q213 414 359 414q71 0 71 -80q0 -109 -104 -158l-56 101q-20 0 -40.5 -13.5t-49 -49t-68.5 -100 t-98 -167.5l123 -551q4 -20 28 -26.5t67 -6.5l4 -26h-13q-25 0 -58.5 -8.5t-67 -17.5t-62.5 -17t-43 -8l-96 428q-219 -434 -365 -435q-72 0 -72 78z" />
<glyph unicode="y" horiz-adv-x="782" d="M-12 -289q0 109 104 158l55 -100q74 25 222 256q-2 223 -13.5 422.5t-33.5 379.5l-25 172q-4 14 -13.5 24.5t-19.5 18t-17 12.5t-7 9q0 8 47 19.5t174 50.5q27 -193 40 -397t13 -433v-18q23 25 59.5 90t76.5 150t81 178.5t74 174t53.5 140t20.5 76.5q0 18 -29 18h-8l6 27 q14 0 47 -3t49 -3q20 0 25 4q-41 -127 -96.5 -263.5t-135.5 -294t-188.5 -341t-251.5 -404.5q-133 -203 -236 -203q-74 0 -73 80z" />
<glyph unicode="z" horiz-adv-x="757" d="M51 -20q8 10 45 60t91.5 125t121 168t136 188t136 187.5t119 165t87 118.5t40.5 52q-49 -31 -97 -57t-99 -26q-14 0 -40 9t-54.5 21.5t-54 21.5t-40.5 9q-86 0 -131 -78l-35 14q104 188 238 189q18 0 53 -8.5t74 -17.5t76 -17t55 -8q70 0 191 51q-6 -10 -42 -61.5 t-90.5 -126t-122 -167t-137 -187.5t-137 -187t-121 -165t-88.5 -120t-39 -53q45 31 94.5 58.5t102.5 27.5q16 0 43 -10.5t54.5 -21.5t52 -21.5t38.5 -10.5q82 0 131 80l35 -14q-102 -188 -235 -188q-18 0 -54 7t-76 16t-76 17.5t-52 8.5q-70 0 -193 -49z" />
<glyph unicode="{" horiz-adv-x="591" d="M258 -272q0 57 19.5 141t42 175t42 177t19.5 148q0 139 -113 157l11 49q78 16 133 86t84 199q33 160 57.5 291t65 229.5t108.5 162t184 87.5l-10 -41q-90 -31 -139 -102.5t-74.5 -164.5t-38 -201.5t-28.5 -213.5q-70 -246 -287 -352q141 -92 141 -268q0 -29 -9 -78 t-23.5 -107.5t-32 -121t-31.5 -120t-23.5 -102.5t-9.5 -67q0 -127 115 -178l-8 -39q-195 43 -195 254z" />
<glyph unicode="|" horiz-adv-x="356" d="M84 -195l375 1764h65l-377 -1764h-63z" />
<glyph unicode="}" horiz-adv-x="657" d="M47 -526l8 39q90 31 139.5 102.5t75 164.5t39 201.5t29.5 215.5q68 244 287 352q-72 45 -107 112.5t-35 153.5q0 29 9.5 78t23.5 107.5t30.5 122t31 119.5t23.5 101.5t9 69.5q0 127 -114 176l8 41q197 -47 196 -256q0 -57 -19 -141t-43 -175t-43.5 -177t-19.5 -148 q0 -139 115 -158l-12 -49q-78 -16 -133.5 -85.5t-83.5 -198.5q-33 -160 -57.5 -291t-65.5 -229.5t-107.5 -161t-183.5 -86.5z" />
<glyph unicode="&#xa1;" horiz-adv-x="475" d="M119 45q2 0 25.5 75t57.5 188.5t73.5 248.5t75.5 257t62.5 212t35.5 115h51q-25 -164 -46.5 -319.5t-38 -290t-25.5 -235.5t-9 -155q0 -20 2 -34.5t2 -26.5q0 -6 -1 -12.5t-3 -14.5q-23 -94 -143 -94q-49 0 -84 23.5t-35 62.5zM424 1366q0 66 38 102.5t87 36.5 q78 0 78 -82q0 -16 -3.5 -29.5t-7.5 -29.5q-37 -80 -114 -80q-78 0 -78 82z" />
<glyph unicode="&#xa2;" horiz-adv-x="811" d="M262 778q0 94 37 183.5t99.5 160t145.5 117.5t173 57l33 154h55l-31 -150q37 0 75 -8t69.5 -22.5t51 -33t19.5 -38.5q0 -45 -53 -45q-25 0 -37 25q-23 53 -47.5 69.5t-73.5 16.5l-12 -2l-156 -723q6 -2 19 -2q113 0 217 110l28 -10q-117 -123 -272 -141l-33 -150h-55 l31 146q-133 0 -208 75.5t-75 210.5zM442 778q0 -186 117 -229l148 702q-55 -16 -103.5 -65t-84.5 -115.5t-56.5 -143.5t-20.5 -149z" />
<glyph unicode="&#xa5;" horiz-adv-x="854" d="M162 231l16 84h207l39 177h-207l19 83h206l43 195l-114 616q-6 35 -68 35l4 25q76 -2 115 -3t45 -1q12 0 47 1t104 3l-8 -25q-20 0 -42.5 -19.5t-22.5 -39.5v-4q0 -6 5 -39t17 -92q4 -18 13.5 -63.5t19.5 -97.5t17.5 -102.5t7.5 -78.5q31 63 100.5 183t183.5 298 q6 8 6 18q0 37 -49 37l6 25q45 -2 71 -3t32 -1q10 0 35.5 1t74.5 3l-6 -25q-59 0 -98 -63l-207 -342q-41 -47 -104 -170q-2 -4 -17.5 -72.5t-44.5 -198.5h203l-16 -83h-203l-37 -177h201l-17 -84h-202q-16 -74 -22.5 -111.5t-6.5 -41.5q0 -51 55 -51l-6 -25q-72 2 -107.5 3 t-43.5 1q-10 0 -48.5 -1t-109.5 -3l4 25q27 0 54.5 19.5t31.5 43.5l29 141h-205z" />
<glyph unicode="&#xa8;" horiz-adv-x="833" d="M588 1303q0 51 33.5 89t80.5 38q74 0 74 -74q0 -51 -32.5 -89t-84.5 -38q-72 0 -71 74zM834 1303q0 51 33.5 89t80.5 38q72 0 72 -74q0 -51 -32 -89t-81 -38q-74 0 -73 74z" />
<glyph unicode="&#xa9;" horiz-adv-x="1320" d="M199 604q0 127 49 238.5t132 194.5t192.5 130t232.5 47q125 0 236.5 -48t194.5 -131t131 -194.5t48 -236.5q0 -123 -48 -233.5t-131 -193.5t-193.5 -132t-237.5 -49q-123 0 -233.5 48t-193.5 131t-131 193.5t-48 235.5zM256 604q0 -115 43 -214t118 -174t174 -118 t214 -43q113 0 214 44t176 119t119 175t44 211q0 113 -44 213.5t-119 176t-176 119.5t-214 44q-115 0 -214 -44t-174 -118.5t-118 -176t-43 -214.5zM412 573q0 4 4 26t12 63v49q0 12 4 24q106 299 420 299q45 0 89 -8t80 -23.5t58.5 -36.5t22.5 -48q0 -39 -39 -39 q-23 0 -47.5 17t-51 38.5t-54 40t-58.5 18.5q-78 0 -127 -45t-78 -109.5t-40 -134t-11 -116.5q0 -14 8 -42t12 -40q2 -53 24 -103.5t56.5 -88.5t82.5 -60.5t104 -22.5q47 0 102 30t88 69q6 -2 19 -11q-4 -25 -37 -49t-77 -45.5t-92 -35t-83 -13.5q-41 0 -89 9.5t-94.5 32 t-88.5 57t-70 87.5q-2 16 -9.5 43t-16.5 58t-16 60.5t-7 49.5z" />
<glyph unicode="&#xab;" horiz-adv-x="747" d="M213 698l276 248l134 39l-285 -260l170 -248l-123 -35zM459 698l276 248l133 39l-284 -260l168 -248l-119 -35z" />
<glyph unicode="&#xad;" horiz-adv-x="593" d="M233 688l23 98h440l-24 -98h-439z" />
<glyph unicode="&#xae;" horiz-adv-x="694" d="M383 1137q0 66 25.5 124t69.5 102t102.5 69.5t124.5 25.5t124 -25.5t102 -69.5t69.5 -102t25.5 -124t-25.5 -125.5t-69.5 -103.5t-102.5 -69.5t-123.5 -25.5q-66 0 -124.5 25.5t-102.5 69.5t-69.5 103.5t-25.5 125.5zM414 1137q0 -61 23.5 -113.5t63.5 -92.5t92 -62.5 t112 -22.5q61 0 113 22.5t92 62.5t62.5 92.5t22.5 113.5q0 57 -22.5 110t-62.5 93t-92 63.5t-113 23.5q-59 0 -111.5 -23.5t-92.5 -63.5t-63.5 -93t-23.5 -110zM559 944v10q27 0 27 27v336q0 27 -25 26v11h182q104 0 105 -92q0 -70 -80 -99q41 -6 53.5 -37.5t16.5 -67.5 t10 -66.5t35 -37.5v-10q-74 0 -95 55l-18 103q-8 53 -53 53h-68v-174q0 -27 25 -27v-10q-14 0 -27.5 1t-28.5 1q-16 0 -30.5 -1t-28.5 -1zM649 1171h76q57 0 57 76q0 88 -100 88h-33v-164z" />
<glyph unicode="&#xb4;" horiz-adv-x="438" d="M709 1274l209 104q45 23 75 23q47 0 47 -37q0 -25 -14 -40t-51 -24l-248 -67z" />
<glyph unicode="&#xb8;" horiz-adv-x="894" d="M475 -358l8 28q68 0 120 46t52 118t-59 72l61 114l66 9l-61 -95q8 2 22 3q35 0 57.5 -22t22.5 -69q0 -39 -26.5 -75.5t-68.5 -65.5t-93.5 -46t-100.5 -17z" />
<glyph unicode="&#xbb;" horiz-adv-x="845" d="M223 440l287 258l-172 248l121 35l176 -256l-279 -248zM504 440l287 258l-170 248l118 35l176 -256l-276 -248z" />
<glyph unicode="&#xbf;" horiz-adv-x="729" d="M127 250q0 66 38 135.5t95 139t124 137t124 129t95 116t38 99.5q0 39 -33 163l54 15l65 -250q2 -10 3 -18.5t1 -14.5q0 -82 -110 -201q-59 -55 -119 -110t-106 -110.5t-74.5 -109t-28.5 -104.5q0 -76 44 -125t120 -49q109 0 235 131l27 -49q-66 -66 -163 -106.5 t-196 -40.5q-233 0 -233 223zM563 1352q0 55 36 97t89 42q78 0 78 -80q0 -53 -36 -96t-89 -43q-78 0 -78 80z" />
<glyph unicode="&#xc0;" d="M12 0l4 25q59 0 86 49l668 1323l-6 47l84 -4l88 4l102 -1376q4 -43 76 -43l-6 -25q-133 6 -150 6q-16 0 -157 -6l4 25q63 0 63 45v4q0 6 -3 31.5t-6 59.5t-5 72.5t-2 69.5l2 29h-561q-8 -29 -39 -91.5t-84 -166.5q-4 -16 -4 -17q0 -37 55 -36l-6 -25q-98 6 -109 6 q-12 0 -94 -6zM313 377h537q-2 10 -8 72.5t-14.5 154.5t-16.5 200.5t-15.5 211t-12.5 185.5t-5 124q-45 -109 -90 -203t-98 -200.5t-121 -236.5t-156 -308zM798 1888q0 55 70 55q33 0 68 -24l161 -105l-34 -41l-222 68q-43 12 -43 47z" />
<glyph unicode="&#xc1;" d="M12 0l4 25q59 0 86 49l668 1323l-6 47l84 -4l88 4l102 -1376q4 -43 76 -43l-6 -25q-133 6 -150 6q-16 0 -157 -6l4 25q63 0 63 45v4q0 6 -3 31.5t-6 59.5t-5 72.5t-2 69.5l2 29h-561q-8 -29 -39 -91.5t-84 -166.5q-4 -16 -4 -17q0 -37 55 -36l-6 -25q-98 6 -109 6 q-12 0 -94 -6zM313 377h537q-2 10 -8 72.5t-14.5 154.5t-16.5 200.5t-15.5 211t-12.5 185.5t-5 124q-45 -109 -90 -203t-98 -200.5t-121 -236.5t-156 -308zM721 1581l209 104q45 23 75 23q47 0 47 -37q0 -25 -14 -40t-51 -24l-248 -67z" />
<glyph unicode="&#xc2;" d="M12 0l4 25q59 0 86 49l668 1323l-6 47l84 -4l88 4l102 -1376q4 -43 76 -43l-6 -25q-133 6 -150 6q-16 0 -157 -6l4 25q63 0 63 45v4q0 6 -3 31.5t-6 59.5t-5 72.5t-2 69.5l2 29h-561q-8 -29 -39 -91.5t-84 -166.5q-4 -16 -4 -17q0 -37 55 -36l-6 -25q-98 6 -109 6 q-12 0 -94 -6zM313 377h537q-2 10 -8 72.5t-14.5 154.5t-16.5 200.5t-15.5 211t-12.5 185.5t-5 124q-45 -109 -90 -203t-98 -200.5t-121 -236.5t-156 -308zM700 1562q0 51 64 84l147 66l117 -66q37 -24 37 -61q-2 -39 -41 -39q-29 0 -62.5 33t-64.5 69q-137 -102 -170 -102 q-27 0 -27 16z" />
<glyph unicode="&#xc3;" d="M12 0l4 25q59 0 86 49l668 1323l-6 47l84 -4l88 4l102 -1376q4 -43 76 -43l-6 -25q-133 6 -150 6q-16 0 -157 -6l4 25q63 0 63 45v4q0 6 -3 31.5t-6 59.5t-5 72.5t-2 69.5l2 29h-561q-8 -29 -39 -91.5t-84 -166.5q-4 -16 -4 -17q0 -37 55 -36l-6 -25q-98 6 -109 6 q-12 0 -94 -6zM313 377h537q-2 10 -8 72.5t-14.5 154.5t-16.5 200.5t-15.5 211t-12.5 185.5t-5 124q-45 -109 -90 -203t-98 -200.5t-121 -236.5t-156 -308zM651 1548q14 61 61.5 107.5t108.5 46.5q18 0 48 -16.5t60.5 -35t56 -35t36.5 -16.5q47 0 84 107h28 q-18 -61 -66 -109.5t-110 -48.5q-23 0 -51.5 16.5t-56 37t-50 37t-32.5 16.5q-39 0 -88 -107h-29z" />
<glyph unicode="&#xc4;" d="M12 0l4 25q59 0 86 49l668 1323l-6 47l84 -4l88 4l102 -1376q4 -43 76 -43l-6 -25q-133 6 -150 6q-16 0 -157 -6l4 25q63 0 63 45v4q0 6 -3 31.5t-6 59.5t-5 72.5t-2 69.5l2 29h-561q-8 -29 -39 -91.5t-84 -166.5q-4 -16 -4 -17q0 -37 55 -36l-6 -25q-98 6 -109 6 q-12 0 -94 -6zM313 377h537q-2 10 -8 72.5t-14.5 154.5t-16.5 200.5t-15.5 211t-12.5 185.5t-5 124q-45 -109 -90 -203t-98 -200.5t-121 -236.5t-156 -308zM678 1610q0 51 33.5 89t80.5 38q74 0 74 -74q0 -51 -32.5 -89t-84.5 -38q-72 0 -71 74zM924 1610q0 51 33.5 89 t80.5 38q72 0 72 -74q0 -51 -32 -89t-81 -38q-74 0 -73 74z" />
<glyph unicode="&#xc5;" d="M12 0l4 25q59 0 86 49l668 1323l-6 47l84 -4l88 4l102 -1376q4 -43 76 -43l-6 -25q-133 6 -150 6q-16 0 -157 -6l4 25q63 0 63 45v4q0 6 -3 31.5t-6 59.5t-5 72.5t-2 69.5l2 29h-561q-8 -29 -39 -91.5t-84 -166.5q-4 -16 -4 -17q0 -37 55 -36l-6 -25q-98 6 -109 6 q-12 0 -94 -6zM313 377h537q-2 10 -8 72.5t-14.5 154.5t-16.5 200.5t-15.5 211t-12.5 185.5t-5 124q-45 -109 -90 -203t-98 -200.5t-121 -236.5t-156 -308zM723 1593q0 59 56.5 101.5t136.5 42.5q63 0 104 -27t41 -74q0 -16 -2 -22q-12 -55 -68.5 -88t-123.5 -33 q-66 0 -105 26.5t-39 73.5zM766 1597q0 -29 28 -49t79 -20t93 22.5t50 63.5q2 4 2 18q0 35 -30.5 53.5t-77.5 18.5q-55 0 -99.5 -29t-44.5 -78z" />
<glyph unicode="&#xc6;" d="M20 0l7 25q59 0 88 49l663 1323l-30 49q47 -2 93 -3t95 -1q23 0 68 1t94 1t93 1t66 1l-26 -195h-17q-4 94 -13 124t-42 30h-178l-178 -834h145q59 0 80 113h25l-60 -272h-24q6 25 6 51q0 68 -37 67h-143l-95 -440q-2 -4 -2 -16q0 -31 50 -31h210q53 0 119 154h17 l-54 -195l-282 -2q-16 0 -26.5 1t-18.5 1h-15h-182h-16.5t-48.5 -2l-13 2l6 25q63 2 80 59l97 444h-213q-236 -465 -236 -471q0 -35 57 -34l-6 -25q-98 6 -104 6q-16 0 -99 -6zM428 571h201l147 697z" />
<glyph unicode="&#xc7;" horiz-adv-x="1013" d="M178 453q0 238 57.5 423t158 313t233.5 194.5t284 66.5q35 -6 66 -12t57 -27q12 -10 25.5 -29.5t28 -38t28.5 -33t27 -14.5q27 0 37 43h24l-43 -284h-22q-4 72 -25.5 135t-56.5 109.5t-82 73t-101 26.5q-68 0 -131 -43t-118.5 -115t-102.5 -166t-80.5 -197.5t-52 -208 t-18.5 -196.5q0 -199 56 -311.5t163 -112.5q68 0 140.5 35t136 89t109.5 123t60 136h23l-78 -287h-23q2 2 3 13q0 14 -15 14q-4 -2 -18.5 -8t-36.5 -23q-78 -63 -149.5 -98t-151.5 -45l-39 -64q8 2 22 3q35 0 56.5 -22t21.5 -69q0 -39 -26.5 -75.5t-68.5 -65.5t-93 -46 t-101 -17l9 28q33 0 64.5 12.5t56 34t39 52t14.5 65.5q0 72 -60 72l45 88h-10q-172 0 -257 125t-85 334z" />
<glyph unicode="&#xc8;" horiz-adv-x="847" d="M20 2l7 25q23 0 50 19.5t36 43.5l268 1280q0 51 -51 51l2 25h682l-25 -195h-18q-4 94 -13.5 124t-39.5 30h-363q-6 -45 -13 -84t-14 -72l-84 -389q-6 -27 -15 -53.5t-15 -58.5h327q29 0 50.5 33.5t29.5 78.5h23l-41 -272h-21q2 8 2 17v20q0 82 -43 82h-333 q-4 -35 -9.5 -60.5t-9.5 -48.5l-86 -408q-2 -12 -10 -40.5t-21 -79.5q0 -27 50 -27h393q51 0 121 154h16l-55 -195h-777zM673 1888q0 55 70 55q33 0 68 -24l161 -105l-34 -41l-222 68q-43 12 -43 47z" />
<glyph unicode="&#xc9;" horiz-adv-x="847" d="M20 2l7 25q23 0 50 19.5t36 43.5l268 1280q0 51 -51 51l2 25h682l-25 -195h-18q-4 94 -13.5 124t-39.5 30h-363q-6 -45 -13 -84t-14 -72l-84 -389q-6 -27 -15 -53.5t-15 -58.5h327q29 0 50.5 33.5t29.5 78.5h23l-41 -272h-21q2 8 2 17v20q0 82 -43 82h-333 q-4 -35 -9.5 -60.5t-9.5 -48.5l-86 -408q-2 -12 -10 -40.5t-21 -79.5q0 -27 50 -27h393q51 0 121 154h16l-55 -195h-777zM605 1581l209 104q45 23 75 23q47 0 47 -37q0 -25 -14 -40t-51 -24l-248 -67z" />
<glyph unicode="&#xca;" horiz-adv-x="847" d="M20 2l7 25q23 0 50 19.5t36 43.5l268 1280q0 51 -51 51l2 25h682l-25 -195h-18q-4 94 -13.5 124t-39.5 30h-363q-6 -45 -13 -84t-14 -72l-84 -389q-6 -27 -15 -53.5t-15 -58.5h327q29 0 50.5 33.5t29.5 78.5h23l-41 -272h-21q2 8 2 17v20q0 82 -43 82h-333 q-4 -35 -9.5 -60.5t-9.5 -48.5l-86 -408q-2 -12 -10 -40.5t-21 -79.5q0 -27 50 -27h393q51 0 121 154h16l-55 -195h-777zM583 1562q0 51 64 84l147 66l117 -66q37 -24 37 -61q-2 -39 -41 -39q-29 0 -62.5 33t-64.5 69q-137 -102 -170 -102q-27 0 -27 16z" />
<glyph unicode="&#xcb;" horiz-adv-x="847" d="M20 2l7 25q23 0 50 19.5t36 43.5l268 1280q0 51 -51 51l2 25h682l-25 -195h-18q-4 94 -13.5 124t-39.5 30h-363q-6 -45 -13 -84t-14 -72l-84 -389q-6 -27 -15 -53.5t-15 -58.5h327q29 0 50.5 33.5t29.5 78.5h23l-41 -272h-21q2 8 2 17v20q0 82 -43 82h-333 q-4 -35 -9.5 -60.5t-9.5 -48.5l-86 -408q-2 -12 -10 -40.5t-21 -79.5q0 -27 50 -27h393q51 0 121 154h16l-55 -195h-777zM561 1610q0 51 33.5 89t80.5 38q74 0 74 -74q0 -51 -32.5 -89t-84.5 -38q-72 0 -71 74zM807 1610q0 51 33.5 89t80.5 38q72 0 72 -74q0 -51 -32 -89 t-81 -38q-74 0 -73 74z" />
<glyph unicode="&#xcc;" horiz-adv-x="356" d="M29 0l6 25q23 0 50.5 19t33.5 44l270 1282q0 51 -53 51l6 17l307 8l-4 -25q-33 0 -56.5 -19.5t-27.5 -43.5l-272 -1282q0 -51 55 -51l-6 -25q-141 6 -154 6q-18 0 -155 -6zM436 1888q0 55 70 55q33 0 68 -24l161 -105l-34 -41l-222 68q-43 12 -43 47z" />
<glyph unicode="&#xcd;" horiz-adv-x="356" d="M29 0l6 25q23 0 50.5 19t33.5 44l270 1282q0 51 -53 51l6 17l307 8l-4 -25q-33 0 -56.5 -19.5t-27.5 -43.5l-272 -1282q0 -51 55 -51l-6 -25q-141 6 -154 6q-18 0 -155 -6zM357 1581l209 104q45 23 75 23q47 0 47 -37q0 -25 -14 -40t-51 -24l-248 -67z" />
<glyph unicode="&#xce;" horiz-adv-x="356" d="M29 0l6 25q23 0 50.5 19t33.5 44l270 1282q0 51 -53 51l6 17l307 8l-4 -25q-33 0 -56.5 -19.5t-27.5 -43.5l-272 -1282q0 -51 55 -51l-6 -25q-141 6 -154 6q-18 0 -155 -6zM336 1562q0 51 64 84l147 66l117 -66q37 -24 37 -61q-2 -39 -41 -39q-29 0 -62.5 33t-64.5 69 q-137 -102 -170 -102q-27 0 -27 16z" />
<glyph unicode="&#xcf;" horiz-adv-x="356" d="M29 0l6 25q23 0 50.5 19t33.5 44l270 1282q0 51 -53 51l6 17l307 8l-4 -25q-33 0 -56.5 -19.5t-27.5 -43.5l-272 -1282q0 -51 55 -51l-6 -25q-141 6 -154 6q-18 0 -155 -6zM314 1610q0 51 33.5 89t80.5 38q74 0 74 -74q0 -51 -32.5 -89t-84.5 -38q-72 0 -71 74zM560 1610 q0 51 33.5 89t80.5 38q72 0 72 -74q0 -51 -32 -89t-81 -38q-74 0 -73 74z" />
<glyph unicode="&#xd1;" horiz-adv-x="1001" d="M12 2l4 25q23 0 50.5 19.5t33.5 43.5l273 1280q0 51 -56 51l7 25q100 -6 112 -6t103 6l303 -811q6 -20 10 -26.5t6 -12.5t5 -16.5t11.5 -38t20.5 -79.5t33 -138q37 166 74.5 336.5t68.5 316t50.5 252t19.5 141.5q0 51 -56 51l7 25q47 -2 72.5 -3t33.5 -1q4 0 29.5 1 t72.5 3l-6 -25q-27 0 -53.5 -19.5t-30.5 -43.5l-303 -1430q-25 68 -43 121t-35 96l-323 844q-18 51 -41 119t-49 164q-16 -102 -31.5 -181t-28.5 -141l-184 -860q-2 -2 -2 -12q0 -51 55 -51l-2 -25q-49 2 -74.5 3t-29.5 1q-6 0 -33 -1t-74 -3zM604 1548q14 61 61.5 107.5 t108.5 46.5q18 0 48 -16.5t60.5 -35t56 -35t36.5 -16.5q47 0 84 107h28q-18 -61 -66 -109.5t-110 -48.5q-23 0 -51.5 16.5t-56 37t-50 37t-32.5 16.5q-39 0 -88 -107h-29z" />
<glyph unicode="&#xd2;" horiz-adv-x="1042" d="M166 334q0 131 19.5 265t57.5 259t97 235.5t139 192.5t181.5 129t224.5 47q74 0 128 -22.5t90 -73.5t54.5 -134t18.5 -206q0 -115 -23 -237.5t-64.5 -238.5t-104 -218.5t-143.5 -179t-179.5 -121.5t-210.5 -45q-285 0 -285 348zM356 354q0 -315 160 -315q82 0 149.5 56.5 t120 146.5t91 202.5t63.5 225t37 213t12 168.5q0 78 -11 143.5t-31.5 112.5t-52.5 73.5t-71 26.5q-66 0 -127 -52t-112.5 -138.5t-93 -197t-71.5 -227t-46.5 -231.5t-16.5 -207zM772 1888q0 55 70 55q33 0 68 -24l161 -105l-34 -41l-222 68q-43 12 -43 47z" />
<glyph unicode="&#xd3;" horiz-adv-x="1042" d="M166 334q0 131 19.5 265t57.5 259t97 235.5t139 192.5t181.5 129t224.5 47q74 0 128 -22.5t90 -73.5t54.5 -134t18.5 -206q0 -115 -23 -237.5t-64.5 -238.5t-104 -218.5t-143.5 -179t-179.5 -121.5t-210.5 -45q-285 0 -285 348zM356 354q0 -315 160 -315q82 0 149.5 56.5 t120 146.5t91 202.5t63.5 225t37 213t12 168.5q0 78 -11 143.5t-31.5 112.5t-52.5 73.5t-71 26.5q-66 0 -127 -52t-112.5 -138.5t-93 -197t-71.5 -227t-46.5 -231.5t-16.5 -207zM703 1581l209 104q45 23 75 23q47 0 47 -37q0 -25 -14 -40t-51 -24l-248 -67z" />
<glyph unicode="&#xd4;" horiz-adv-x="1042" d="M166 334q0 131 19.5 265t57.5 259t97 235.5t139 192.5t181.5 129t224.5 47q74 0 128 -22.5t90 -73.5t54.5 -134t18.5 -206q0 -115 -23 -237.5t-64.5 -238.5t-104 -218.5t-143.5 -179t-179.5 -121.5t-210.5 -45q-285 0 -285 348zM356 354q0 -315 160 -315q82 0 149.5 56.5 t120 146.5t91 202.5t63.5 225t37 213t12 168.5q0 78 -11 143.5t-31.5 112.5t-52.5 73.5t-71 26.5q-66 0 -127 -52t-112.5 -138.5t-93 -197t-71.5 -227t-46.5 -231.5t-16.5 -207zM674 1562q0 51 64 84l147 66l117 -66q37 -24 37 -61q-2 -39 -41 -39q-29 0 -62.5 33t-64.5 69 q-137 -102 -170 -102q-27 0 -27 16z" />
<glyph unicode="&#xd5;" horiz-adv-x="1042" d="M166 334q0 131 19.5 265t57.5 259t97 235.5t139 192.5t181.5 129t224.5 47q74 0 128 -22.5t90 -73.5t54.5 -134t18.5 -206q0 -115 -23 -237.5t-64.5 -238.5t-104 -218.5t-143.5 -179t-179.5 -121.5t-210.5 -45q-285 0 -285 348zM356 354q0 -315 160 -315q82 0 149.5 56.5 t120 146.5t91 202.5t63.5 225t37 213t12 168.5q0 78 -11 143.5t-31.5 112.5t-52.5 73.5t-71 26.5q-66 0 -127 -52t-112.5 -138.5t-93 -197t-71.5 -227t-46.5 -231.5t-16.5 -207zM625 1548q14 61 61.5 107.5t108.5 46.5q18 0 48 -16.5t60.5 -35t56 -35t36.5 -16.5 q47 0 84 107h28q-18 -61 -66 -109.5t-110 -48.5q-23 0 -51.5 16.5t-56 37t-50 37t-32.5 16.5q-39 0 -88 -107h-29z" />
<glyph unicode="&#xd6;" horiz-adv-x="1042" d="M166 334q0 131 19.5 265t57.5 259t97 235.5t139 192.5t181.5 129t224.5 47q74 0 128 -22.5t90 -73.5t54.5 -134t18.5 -206q0 -115 -23 -237.5t-64.5 -238.5t-104 -218.5t-143.5 -179t-179.5 -121.5t-210.5 -45q-285 0 -285 348zM356 354q0 -315 160 -315q82 0 149.5 56.5 t120 146.5t91 202.5t63.5 225t37 213t12 168.5q0 78 -11 143.5t-31.5 112.5t-52.5 73.5t-71 26.5q-66 0 -127 -52t-112.5 -138.5t-93 -197t-71.5 -227t-46.5 -231.5t-16.5 -207zM651 1610q0 51 33.5 89t80.5 38q74 0 74 -74q0 -51 -32.5 -89t-84.5 -38q-72 0 -71 74z M897 1610q0 51 33.5 89t80.5 38q72 0 72 -74q0 -51 -32 -89t-81 -38q-74 0 -73 74z" />
<glyph unicode="&#xd8;" horiz-adv-x="1042" d="M168 334q0 78 14.5 178t40.5 229q37 180 94.5 315.5t137.5 225.5t186.5 135t245.5 45q291 0 291 -387q-2 -70 -9.5 -148.5t-25.5 -164.5q-43 -207 -102.5 -353.5t-142.5 -240.5t-192.5 -138t-252.5 -44q-285 0 -285 348zM356 354q0 -39 3 -70.5t8 -60.5l606 1034 q-33 150 -148 150q-68 0 -130 -48t-116.5 -137t-99.5 -214t-78 -281q-23 -100 -34 -191.5t-11 -181.5zM381 154q39 -115 137 -115q219 0 361 432q111 334 110 625v78z" />
<glyph unicode="&#xd9;" horiz-adv-x="948" d="M166 244q0 33 2 69.5t14 73.5l205 971q2 2 2 12q0 51 -53 51l4 25l154 -6q2 0 153 6l-2 -25q-29 0 -55.5 -19.5t-30.5 -43.5l-205 -965q-6 -29 -10 -55.5t-4 -52.5q0 -119 47 -177.5t152 -58.5q45 0 90 26.5t84 72t67.5 101.5t40.5 116l213 1005q0 51 -53 51l6 25 q100 -6 141 -6q12 0 33 1t42.5 2t39 2t21.5 1l-7 -25q-29 0 -55 -19.5t-31 -43.5l-217 -1030q-25 -119 -39 -180.5t-14 -71.5q0 -51 55 -51l-4 -25q-16 0 -52 5t-56 5q-23 0 -46.5 -3t-52.5 -7q6 27 16.5 71t18.5 99q-59 -102 -140 -141t-206 -39q-268 0 -268 254zM723 1888 q0 55 70 55q33 0 68 -24l161 -105l-34 -41l-222 68q-43 12 -43 47z" />
<glyph unicode="&#xda;" horiz-adv-x="948" d="M166 244q0 33 2 69.5t14 73.5l205 971q2 2 2 12q0 51 -53 51l4 25l154 -6q2 0 153 6l-2 -25q-29 0 -55.5 -19.5t-30.5 -43.5l-205 -965q-6 -29 -10 -55.5t-4 -52.5q0 -119 47 -177.5t152 -58.5q45 0 90 26.5t84 72t67.5 101.5t40.5 116l213 1005q0 51 -53 51l6 25 q100 -6 141 -6q12 0 33 1t42.5 2t39 2t21.5 1l-7 -25q-29 0 -55 -19.5t-31 -43.5l-217 -1030q-25 -119 -39 -180.5t-14 -71.5q0 -51 55 -51l-4 -25q-16 0 -52 5t-56 5q-23 0 -46.5 -3t-52.5 -7q6 27 16.5 71t18.5 99q-59 -102 -140 -141t-206 -39q-268 0 -268 254zM654 1581 l209 104q45 23 75 23q47 0 47 -37q0 -25 -14 -40t-51 -24l-248 -67z" />
<glyph unicode="&#xdb;" horiz-adv-x="948" d="M166 244q0 33 2 69.5t14 73.5l205 971q2 2 2 12q0 51 -53 51l4 25l154 -6q2 0 153 6l-2 -25q-29 0 -55.5 -19.5t-30.5 -43.5l-205 -965q-6 -29 -10 -55.5t-4 -52.5q0 -119 47 -177.5t152 -58.5q45 0 90 26.5t84 72t67.5 101.5t40.5 116l213 1005q0 51 -53 51l6 25 q100 -6 141 -6q12 0 33 1t42.5 2t39 2t21.5 1l-7 -25q-29 0 -55 -19.5t-31 -43.5l-217 -1030q-25 -119 -39 -180.5t-14 -71.5q0 -51 55 -51l-4 -25q-16 0 -52 5t-56 5q-23 0 -46.5 -3t-52.5 -7q6 27 16.5 71t18.5 99q-59 -102 -140 -141t-206 -39q-268 0 -268 254zM624 1562 q0 51 64 84l147 66l117 -66q37 -24 37 -61q-2 -39 -41 -39q-29 0 -62.5 33t-64.5 69q-137 -102 -170 -102q-27 0 -27 16z" />
<glyph unicode="&#xdc;" horiz-adv-x="948" d="M166 244q0 33 2 69.5t14 73.5l205 971q2 2 2 12q0 51 -53 51l4 25l154 -6q2 0 153 6l-2 -25q-29 0 -55.5 -19.5t-30.5 -43.5l-205 -965q-6 -29 -10 -55.5t-4 -52.5q0 -119 47 -177.5t152 -58.5q45 0 90 26.5t84 72t67.5 101.5t40.5 116l213 1005q0 51 -53 51l6 25 q100 -6 141 -6q12 0 33 1t42.5 2t39 2t21.5 1l-7 -25q-29 0 -55 -19.5t-31 -43.5l-217 -1030q-25 -119 -39 -180.5t-14 -71.5q0 -51 55 -51l-4 -25q-16 0 -52 5t-56 5q-23 0 -46.5 -3t-52.5 -7q6 27 16.5 71t18.5 99q-59 -102 -140 -141t-206 -39q-268 0 -268 254zM602 1610 q0 51 33.5 89t80.5 38q74 0 74 -74q0 -51 -32.5 -89t-84.5 -38q-72 0 -71 74zM848 1610q0 51 33.5 89t80.5 38q72 0 72 -74q0 -51 -32 -89t-81 -38q-74 0 -73 74z" />
<glyph unicode="&#xdd;" horiz-adv-x="802" d="M248 2l4 25q23 0 51.5 19.5t34.5 43.5l147 680l-114 616q-6 35 -68 35l4 25q76 -2 115 -3t49 -1q8 0 43 1t104 3l-8 -25q-20 0 -42.5 -19.5t-22.5 -39.5v-4q0 -6 5 -39t17 -92q4 -18 13.5 -63.5t19.5 -97.5t17.5 -102.5t7.5 -78.5q31 63 100.5 183t183.5 298q6 8 6 18 q0 37 -49 37l6 25q45 -2 71 -3t32 -1q10 0 35.5 1t74.5 3l-6 -25q-59 0 -98 -63l-207 -342q-41 -47 -104 -170q-6 -4 -25.5 -100.5t-58.5 -286.5q-41 -186 -59.5 -281.5t-18.5 -99.5q0 -51 55 -51l-6 -25q-72 2 -107.5 3t-43.5 1q-10 0 -48.5 -1t-109.5 -3zM582 1581 l209 104q45 23 75 23q47 0 47 -37q0 -25 -14 -40t-51 -24l-248 -67z" />
<glyph unicode="&#xdf;" horiz-adv-x="847" d="M51 2l6 25h4q47 0 58 49l227 1065q33 154 144.5 229.5t312.5 75.5q98 0 151.5 -66.5t53.5 -189.5q0 -68 -19.5 -141.5t-54.5 -137t-81 -109.5t-99 -59q125 -18 125 -221q0 -98 -32 -191t-87 -166t-130 -116t-159 -43l6 35q41 0 80 47t68.5 115.5t48 146.5t18.5 137 q0 219 -162 220q61 18 116.5 65t95.5 111.5t63.5 138.5t23.5 147q0 43 -9 83t-26.5 71t-41 50.5t-54.5 19.5q-27 0 -54.5 -17.5t-52 -48.5t-44 -73t-27.5 -89l-231 -1089q-2 -2 -2 -10q0 -41 41 -41q10 0 14 2l-6 -25q-59 2 -94 3t-43 1q-10 0 -47 -1t-101 -3z" />
<glyph unicode="&#xe0;" horiz-adv-x="813" d="M135 332q0 158 36 302t102.5 253.5t157.5 175t202 65.5q27 0 57.5 -8t59 -18t50 -18.5t29.5 -8.5q70 0 138 66l-215 -1016q-2 -8 -2 -13.5v-9.5q0 -29 28 -28q10 0 47 10l-8 -35q-203 -51 -217 -51q-35 0 -35 33q0 29 31 125q-96 -160 -283 -160q-178 0 -178 336z M313 362q0 -131 33 -213.5t88 -82.5q25 0 56.5 21.5t66.5 64.5q33 43 47 77.5t20.5 64.5t8.5 54.5t8 46.5l84 406q2 8 9 28.5t15.5 45t14.5 51.5t6 47q0 88 -117 88q-78 0 -140 -55.5t-107.5 -149.5t-69 -222t-23.5 -272zM598 1581q0 55 70 55q33 0 68 -24l161 -105l-34 -41 l-222 68q-43 12 -43 47z" />
<glyph unicode="&#xe1;" horiz-adv-x="813" d="M135 332q0 158 36 302t102.5 253.5t157.5 175t202 65.5q27 0 57.5 -8t59 -18t50 -18.5t29.5 -8.5q70 0 138 66l-215 -1016q-2 -8 -2 -13.5v-9.5q0 -29 28 -28q10 0 47 10l-8 -35q-203 -51 -217 -51q-35 0 -35 33q0 29 31 125q-96 -160 -283 -160q-178 0 -178 336z M313 362q0 -131 33 -213.5t88 -82.5q25 0 56.5 21.5t66.5 64.5q33 43 47 77.5t20.5 64.5t8.5 54.5t8 46.5l84 406q2 8 9 28.5t15.5 45t14.5 51.5t6 47q0 88 -117 88q-78 0 -140 -55.5t-107.5 -149.5t-69 -222t-23.5 -272zM521 1274l209 104q45 23 75 23q47 0 47 -37 q0 -25 -14 -40t-51 -24l-248 -67z" />
<glyph unicode="&#xe2;" horiz-adv-x="813" d="M135 332q0 158 36 302t102.5 253.5t157.5 175t202 65.5q27 0 57.5 -8t59 -18t50 -18.5t29.5 -8.5q70 0 138 66l-215 -1016q-2 -8 -2 -13.5v-9.5q0 -29 28 -28q10 0 47 10l-8 -35q-203 -51 -217 -51q-35 0 -35 33q0 29 31 125q-96 -160 -283 -160q-178 0 -178 336z M313 362q0 -131 33 -213.5t88 -82.5q25 0 56.5 21.5t66.5 64.5q33 43 47 77.5t20.5 64.5t8.5 54.5t8 46.5l84 406q2 8 9 28.5t15.5 45t14.5 51.5t6 47q0 88 -117 88q-78 0 -140 -55.5t-107.5 -149.5t-69 -222t-23.5 -272zM499 1255q0 51 64 84l147 66l117 -66q37 -24 37 -61 q-2 -39 -41 -39q-29 0 -62.5 33t-64.5 69q-137 -102 -170 -102q-27 0 -27 16z" />
<glyph unicode="&#xe3;" horiz-adv-x="813" d="M135 332q0 158 36 302t102.5 253.5t157.5 175t202 65.5q27 0 57.5 -8t59 -18t50 -18.5t29.5 -8.5q70 0 138 66l-215 -1016q-2 -8 -2 -13.5v-9.5q0 -29 28 -28q10 0 47 10l-8 -35q-203 -51 -217 -51q-35 0 -35 33q0 29 31 125q-96 -160 -283 -160q-178 0 -178 336z M313 362q0 -131 33 -213.5t88 -82.5q25 0 56.5 21.5t66.5 64.5q33 43 47 77.5t20.5 64.5t8.5 54.5t8 46.5l84 406q2 8 9 28.5t15.5 45t14.5 51.5t6 47q0 88 -117 88q-78 0 -140 -55.5t-107.5 -149.5t-69 -222t-23.5 -272zM453 1241q14 61 61.5 107.5t108.5 46.5 q18 0 48 -16.5t60.5 -35t56 -35t36.5 -16.5q47 0 84 107h28q-18 -61 -66 -109.5t-110 -48.5q-23 0 -51.5 16.5t-56 37t-50 37t-32.5 16.5q-39 0 -88 -107h-29z" />
<glyph unicode="&#xe4;" horiz-adv-x="813" d="M135 332q0 158 36 302t102.5 253.5t157.5 175t202 65.5q27 0 57.5 -8t59 -18t50 -18.5t29.5 -8.5q70 0 138 66l-215 -1016q-2 -8 -2 -13.5v-9.5q0 -29 28 -28q10 0 47 10l-8 -35q-203 -51 -217 -51q-35 0 -35 33q0 29 31 125q-96 -160 -283 -160q-178 0 -178 336z M313 362q0 -131 33 -213.5t88 -82.5q25 0 56.5 21.5t66.5 64.5q33 43 47 77.5t20.5 64.5t8.5 54.5t8 46.5l84 406q2 8 9 28.5t15.5 45t14.5 51.5t6 47q0 88 -117 88q-78 0 -140 -55.5t-107.5 -149.5t-69 -222t-23.5 -272zM475 1303q0 51 33.5 89t80.5 38q74 0 74 -74 q0 -51 -32.5 -89t-84.5 -38q-72 0 -71 74zM721 1303q0 51 33.5 89t80.5 38q72 0 72 -74q0 -51 -32 -89t-81 -38q-74 0 -73 74z" />
<glyph unicode="&#xe5;" horiz-adv-x="813" d="M135 332q0 158 36 302t102.5 253.5t157.5 175t202 65.5q27 0 57.5 -8t59 -18t50 -18.5t29.5 -8.5q70 0 138 66l-215 -1016q-2 -8 -2 -13.5v-9.5q0 -29 28 -28q10 0 47 10l-8 -35q-203 -51 -217 -51q-35 0 -35 33q0 29 31 125q-96 -160 -283 -160q-178 0 -178 336z M313 362q0 -131 33 -213.5t88 -82.5q25 0 56.5 21.5t66.5 64.5q33 43 47 77.5t20.5 64.5t8.5 54.5t8 46.5l84 406q2 8 9 28.5t15.5 45t14.5 51.5t6 47q0 88 -117 88q-78 0 -140 -55.5t-107.5 -149.5t-69 -222t-23.5 -272zM524 1286q0 59 56.5 101.5t136.5 42.5q63 0 104 -27 t41 -74q0 -16 -2 -22q-12 -55 -68.5 -88t-123.5 -33q-66 0 -105 26.5t-39 73.5zM567 1290q0 -29 28 -49t79 -20t93 22.5t50 63.5q2 4 2 18q0 35 -30.5 53.5t-77.5 18.5q-55 0 -99.5 -29t-44.5 -78z" />
<glyph unicode="&#xe6;" horiz-adv-x="1382" d="M139 225q0 35 6 58q18 76 40 127t63 86.5t109.5 62.5t181.5 53q72 18 120 45t72 68q14 68 22.5 108.5t8.5 57.5q0 78 -41 131t-111 53q-98 0 -200 -114l-50 28q63 72 157.5 114t189.5 42q174 0 223 -146q27 27 63.5 53.5t78.5 47t87 33t88 12.5q51 0 91 -21.5t68 -56.5 t42 -81t14 -97q0 -66 -24.5 -122t-69.5 -98t-110.5 -66.5t-147.5 -27.5l-225 -28q-29 -104 -29 -197q0 -285 174 -284q113 0 221 133l33 -25q-141 -166 -283 -166q-250 0 -284 314q-47 -143 -142.5 -227.5t-218.5 -84.5q-98 0 -157.5 60.5t-59.5 154.5zM313 240 q0 -160 111 -160q51 0 90 28.5t73 96t65.5 179.5t66.5 278q-23 -37 -70 -68t-95 -53.5t-86 -34.5t-40 -14q-47 -33 -81 -97.5t-34 -154.5zM889 608q51 10 128 19.5t149.5 36t123.5 80t51 151.5q0 35 -8 67.5t-23.5 59.5t-39 42t-56.5 15q-61 0 -114 -43t-96 -111.5 t-73 -152.5t-42 -164z" />
<glyph unicode="&#xe7;" horiz-adv-x="755" d="M168 358q0 92 20.5 187.5t58.5 182.5t90 163t115.5 132t135 88t149.5 32q143 0 199 -105l-94 -137v39q0 154 -101 154q-80 0 -149.5 -70t-122.5 -178.5t-84 -240.5t-31 -255q0 -289 172 -289q113 0 232 156l33 -18q-141 -184 -318 -201l-41 -64q8 2 23 3q35 0 56 -22 t21 -69q0 -39 -26.5 -75.5t-68.5 -65.5t-93 -46t-100 -17l8 28q70 0 122 46t52 118t-59 72l49 92q-119 6 -183.5 100.5t-64.5 259.5z" />
<glyph unicode="&#xe8;" horiz-adv-x="835" d="M166 356q0 133 44 272.5t121 254t183.5 188.5t228.5 74q109 0 170.5 -61.5t61.5 -149.5q0 -174 -121 -262q-14 -8 -51 -23.5t-86 -35t-104.5 -43t-105.5 -48t-91 -49t-60 -45.5q-2 -35 -5 -58.5t-3 -39.5q0 -127 49 -198t127 -71q63 0 135 43t127 113l35 -20 q-152 -201 -387 -201q-131 0 -199.5 94t-68.5 266zM360 520q27 25 66 44.5t90 35.5q94 31 155.5 61.5t96.5 67.5t48 86t13 121q0 61 -27.5 104t-78.5 43q-57 0 -114.5 -52t-106.5 -133t-87 -181.5t-55 -196.5zM637 1581q0 55 70 55q33 0 68 -24l161 -105l-34 -41l-222 68 q-43 12 -43 47z" />
<glyph unicode="&#xe9;" horiz-adv-x="835" d="M166 356q0 133 44 272.5t121 254t183.5 188.5t228.5 74q109 0 170.5 -61.5t61.5 -149.5q0 -174 -121 -262q-14 -8 -51 -23.5t-86 -35t-104.5 -43t-105.5 -48t-91 -49t-60 -45.5q-2 -35 -5 -58.5t-3 -39.5q0 -127 49 -198t127 -71q63 0 135 43t127 113l35 -20 q-152 -201 -387 -201q-131 0 -199.5 94t-68.5 266zM360 520q27 25 66 44.5t90 35.5q94 31 155.5 61.5t96.5 67.5t48 86t13 121q0 61 -27.5 104t-78.5 43q-57 0 -114.5 -52t-106.5 -133t-87 -181.5t-55 -196.5zM625 1274l209 104q45 23 75 23q47 0 47 -37q0 -25 -14 -40 t-51 -24l-248 -67z" />
<glyph unicode="&#xea;" horiz-adv-x="835" d="M166 356q0 133 44 272.5t121 254t183.5 188.5t228.5 74q109 0 170.5 -61.5t61.5 -149.5q0 -174 -121 -262q-14 -8 -51 -23.5t-86 -35t-104.5 -43t-105.5 -48t-91 -49t-60 -45.5q-2 -35 -5 -58.5t-3 -39.5q0 -127 49 -198t127 -71q63 0 135 43t127 113l35 -20 q-152 -201 -387 -201q-131 0 -199.5 94t-68.5 266zM360 520q27 25 66 44.5t90 35.5q94 31 155.5 61.5t96.5 67.5t48 86t13 121q0 61 -27.5 104t-78.5 43q-57 0 -114.5 -52t-106.5 -133t-87 -181.5t-55 -196.5zM583 1255q0 51 64 84l147 66l117 -66q37 -24 37 -61 q-2 -39 -41 -39q-29 0 -62.5 33t-64.5 69q-137 -102 -170 -102q-27 0 -27 16z" />
<glyph unicode="&#xeb;" horiz-adv-x="835" d="M166 356q0 133 44 272.5t121 254t183.5 188.5t228.5 74q109 0 170.5 -61.5t61.5 -149.5q0 -174 -121 -262q-14 -8 -51 -23.5t-86 -35t-104.5 -43t-105.5 -48t-91 -49t-60 -45.5q-2 -35 -5 -58.5t-3 -39.5q0 -127 49 -198t127 -71q63 0 135 43t127 113l35 -20 q-152 -201 -387 -201q-131 0 -199.5 94t-68.5 266zM360 520q27 25 66 44.5t90 35.5q94 31 155.5 61.5t96.5 67.5t48 86t13 121q0 61 -27.5 104t-78.5 43q-57 0 -114.5 -52t-106.5 -133t-87 -181.5t-55 -196.5zM570 1303q0 51 33.5 89t80.5 38q74 0 74 -74q0 -51 -32.5 -89 t-84.5 -38q-72 0 -71 74zM816 1303q0 51 33.5 89t80.5 38q72 0 72 -74q0 -51 -32 -89t-81 -38q-74 0 -73 74z" />
<glyph unicode="&#xec;" horiz-adv-x="352" d="M92 -39l221 1038q2 4 2 15q0 14 -9 20t-19.5 10.5t-19.5 7.5t-9 11q0 4 11.5 8t40 10t77.5 18.5t127 33.5l-221 -1039q-2 -4 -2 -18q0 -23 20 -23q12 0 29.5 4t28.5 4l-4 -26q-4 -4 -18.5 -7t-44.5 -9.5t-81 -19.5t-129 -38zM368 1581q0 55 70 55q33 0 68 -24l161 -105 l-34 -41l-222 68q-43 12 -43 47z" />
<glyph unicode="&#xed;" horiz-adv-x="352" d="M92 -39l221 1038q2 4 2 15q0 14 -9 20t-19.5 10.5t-19.5 7.5t-9 11q0 4 11.5 8t40 10t77.5 18.5t127 33.5l-221 -1039q-2 -4 -2 -18q0 -23 20 -23q12 0 29.5 4t28.5 4l-4 -26q-4 -4 -18.5 -7t-44.5 -9.5t-81 -19.5t-129 -38zM289 1274l209 104q45 23 75 23q47 0 47 -37 q0 -25 -14 -40t-51 -24l-248 -67z" />
<glyph unicode="&#xee;" horiz-adv-x="352" d="M92 -39l221 1038q2 4 2 15q0 14 -9 20t-19.5 10.5t-19.5 7.5t-9 11q0 4 11.5 8t40 10t77.5 18.5t127 33.5l-221 -1039q-2 -4 -2 -18q0 -23 20 -23q12 0 29.5 4t28.5 4l-4 -26q-4 -4 -18.5 -7t-44.5 -9.5t-81 -19.5t-129 -38zM268 1255q0 51 64 84l147 66l117 -66 q37 -24 37 -61q-2 -39 -41 -39q-29 0 -62.5 33t-64.5 69q-137 -102 -170 -102q-27 0 -27 16z" />
<glyph unicode="&#xef;" horiz-adv-x="352" d="M92 -39l221 1038q2 4 2 15q0 14 -9 20t-19.5 10.5t-19.5 7.5t-9 11q0 4 11.5 8t40 10t77.5 18.5t127 33.5l-221 -1039q-2 -4 -2 -18q0 -23 20 -23q12 0 29.5 4t28.5 4l-4 -26q-4 -4 -18.5 -7t-44.5 -9.5t-81 -19.5t-129 -38zM246 1303q0 51 33.5 89t80.5 38q74 0 74 -74 q0 -51 -32.5 -89t-84.5 -38q-72 0 -71 74zM492 1303q0 51 33.5 89t80.5 38q72 0 72 -74q0 -51 -32 -89t-81 -38q-74 0 -73 74z" />
<glyph unicode="&#xf1;" horiz-adv-x="819" d="M66 2q20 33 35.5 78t29.5 115l172 804v15q0 10 -9 17t-19.5 11.5t-19.5 9.5t-9 13q0 6 5 7t29.5 5t76 15.5t145.5 40.5l-43 -158q35 78 109.5 122t156.5 44q102 0 159.5 -56.5t57.5 -152.5q0 -18 -2 -36.5t-4 -39.5l-162 -768q0 -27 64 -27h12l-4 -26q-127 0 -266 -51 l178 845q6 18 8 38t2 42q0 160 -123 160q-78 0 -121 -42t-64.5 -99.5t-29.5 -113.5t-14 -87l-115 -532q-10 -53 -16 -93.5t-6 -70.5q0 -23 2 -29q-29 0 -49.5 1t-32.5 1h-52q-12 0 -33.5 -1t-47.5 -1zM457 1241q14 61 61.5 107.5t108.5 46.5q18 0 48 -16.5t60.5 -35t56 -35 t36.5 -16.5q47 0 84 107h28q-18 -61 -66 -109.5t-110 -48.5q-23 0 -51.5 16.5t-56 37t-50 37t-32.5 16.5q-39 0 -88 -107h-29z" />
<glyph unicode="&#xf2;" horiz-adv-x="868" d="M158 317q0 152 30.5 303.5t99 272.5t181.5 196.5t279 75.5q121 0 180 -96t59 -254q0 -154 -36 -302t-109.5 -267t-184 -191.5t-258.5 -72.5q-123 0 -182 92t-59 243zM330 291q0 -250 157 -250q35 0 72 12q29 10 59.5 52t58.5 103.5t52.5 138.5t44 157t29.5 157t10 140 q0 141 -44 219t-122 78q-51 0 -94 -46t-79 -119t-62.5 -164t-45 -180t-27.5 -169t-9 -129zM626 1581q0 55 70 55q33 0 68 -24l161 -105l-34 -41l-222 68q-43 12 -43 47z" />
<glyph unicode="&#xf3;" horiz-adv-x="868" d="M158 317q0 152 30.5 303.5t99 272.5t181.5 196.5t279 75.5q121 0 180 -96t59 -254q0 -154 -36 -302t-109.5 -267t-184 -191.5t-258.5 -72.5q-123 0 -182 92t-59 243zM330 291q0 -250 157 -250q35 0 72 12q29 10 59.5 52t58.5 103.5t52.5 138.5t44 157t29.5 157t10 140 q0 141 -44 219t-122 78q-51 0 -94 -46t-79 -119t-62.5 -164t-45 -180t-27.5 -169t-9 -129zM549 1274l209 104q45 23 75 23q47 0 47 -37q0 -25 -14 -40t-51 -24l-248 -67z" />
<glyph unicode="&#xf4;" horiz-adv-x="868" d="M158 317q0 152 30.5 303.5t99 272.5t181.5 196.5t279 75.5q121 0 180 -96t59 -254q0 -154 -36 -302t-109.5 -267t-184 -191.5t-258.5 -72.5q-123 0 -182 92t-59 243zM330 291q0 -250 157 -250q35 0 72 12q29 10 59.5 52t58.5 103.5t52.5 138.5t44 157t29.5 157t10 140 q0 141 -44 219t-122 78q-51 0 -94 -46t-79 -119t-62.5 -164t-45 -180t-27.5 -169t-9 -129zM528 1255q0 51 64 84l147 66l117 -66q37 -24 37 -61q-2 -39 -41 -39q-29 0 -62.5 33t-64.5 69q-137 -102 -170 -102q-27 0 -27 16z" />
<glyph unicode="&#xf5;" horiz-adv-x="868" d="M158 317q0 152 30.5 303.5t99 272.5t181.5 196.5t279 75.5q121 0 180 -96t59 -254q0 -154 -36 -302t-109.5 -267t-184 -191.5t-258.5 -72.5q-123 0 -182 92t-59 243zM330 291q0 -250 157 -250q35 0 72 12q29 10 59.5 52t58.5 103.5t52.5 138.5t44 157t29.5 157t10 140 q0 141 -44 219t-122 78q-51 0 -94 -46t-79 -119t-62.5 -164t-45 -180t-27.5 -169t-9 -129zM479 1241q14 61 61.5 107.5t108.5 46.5q18 0 48 -16.5t60.5 -35t56 -35t36.5 -16.5q47 0 84 107h28q-18 -61 -66 -109.5t-110 -48.5q-23 0 -51.5 16.5t-56 37t-50 37t-32.5 16.5 q-39 0 -88 -107h-29z" />
<glyph unicode="&#xf6;" horiz-adv-x="868" d="M158 317q0 152 30.5 303.5t99 272.5t181.5 196.5t279 75.5q121 0 180 -96t59 -254q0 -154 -36 -302t-109.5 -267t-184 -191.5t-258.5 -72.5q-123 0 -182 92t-59 243zM330 291q0 -250 157 -250q35 0 72 12q29 10 59.5 52t58.5 103.5t52.5 138.5t44 157t29.5 157t10 140 q0 141 -44 219t-122 78q-51 0 -94 -46t-79 -119t-62.5 -164t-45 -180t-27.5 -169t-9 -129zM504 1303q0 51 33.5 89t80.5 38q74 0 74 -74q0 -51 -32.5 -89t-84.5 -38q-72 0 -71 74zM750 1303q0 51 33.5 89t80.5 38q72 0 72 -74q0 -51 -32 -89t-81 -38q-74 0 -73 74z" />
<glyph unicode="&#xf8;" horiz-adv-x="868" d="M150 283q0 59 14 150t35.5 183.5t46 173t47.5 121.5q33 61 85 108.5t113.5 80.5t125 49t122.5 16q240 0 240 -309q0 -55 -9 -122.5t-26 -149.5q-35 -164 -84 -279t-116.5 -186.5t-155.5 -104t-199 -32.5q-240 0 -239 301zM324 274l464 676q-37 147 -145 148 q-39 0 -73.5 -18.5t-66.5 -61.5t-60.5 -115t-55.5 -178q-33 -133 -48 -241.5t-15 -192.5v-17zM330 201q25 -160 149 -160q35 0 72 12q31 10 61.5 52t59 104.5t52.5 139.5t42 157t28.5 157t10.5 138q0 20 -1 40.5t-3 43.5z" />
<glyph unicode="&#xf9;" horiz-adv-x="839" d="M139 207q0 35 8 76l154 716q2 4 2 17q0 12 -9 18t-21.5 10.5t-21.5 8.5t-9 12q0 4 9 7t36.5 8t78 17.5t132.5 35.5l-176 -826q-10 -51 -11 -84q0 -70 33 -115t90 -45q74 0 115 37t64.5 89.5t32.5 110.5t18 99l104 486q16 76 22.5 130t8.5 93v25q80 -6 96 -7q12 1 104 7 q-10 -35 -26.5 -95.5t-36.5 -152.5l-158 -760q-4 -20 -4 -23q0 -29 27 -28q4 0 49 10l-8 -35q-203 -51 -217 -51q-37 0 -37 33q0 35 33 119q-39 -72 -113 -115t-154 -43q-98 0 -156.5 57t-58.5 158zM612 1581q0 55 70 55q33 0 68 -24l161 -105l-34 -41l-222 68 q-43 12 -43 47z" />
<glyph unicode="&#xfa;" horiz-adv-x="839" d="M139 207q0 35 8 76l154 716q2 4 2 17q0 12 -9 18t-21.5 10.5t-21.5 8.5t-9 12q0 4 9 7t36.5 8t78 17.5t132.5 35.5l-176 -826q-10 -51 -11 -84q0 -70 33 -115t90 -45q74 0 115 37t64.5 89.5t32.5 110.5t18 99l104 486q16 76 22.5 130t8.5 93v25q80 -6 96 -7q12 1 104 7 q-10 -35 -26.5 -95.5t-36.5 -152.5l-158 -760q-4 -20 -4 -23q0 -29 27 -28q4 0 49 10l-8 -35q-203 -51 -217 -51q-37 0 -37 33q0 35 33 119q-39 -72 -113 -115t-154 -43q-98 0 -156.5 57t-58.5 158zM535 1274l209 104q45 23 75 23q47 0 47 -37q0 -25 -14 -40t-51 -24 l-248 -67z" />
<glyph unicode="&#xfb;" horiz-adv-x="839" d="M139 207q0 35 8 76l154 716q2 4 2 17q0 12 -9 18t-21.5 10.5t-21.5 8.5t-9 12q0 4 9 7t36.5 8t78 17.5t132.5 35.5l-176 -826q-10 -51 -11 -84q0 -70 33 -115t90 -45q74 0 115 37t64.5 89.5t32.5 110.5t18 99l104 486q16 76 22.5 130t8.5 93v25q80 -6 96 -7q12 1 104 7 q-10 -35 -26.5 -95.5t-36.5 -152.5l-158 -760q-4 -20 -4 -23q0 -29 27 -28q4 0 49 10l-8 -35q-203 -51 -217 -51q-37 0 -37 33q0 35 33 119q-39 -72 -113 -115t-154 -43q-98 0 -156.5 57t-58.5 158zM514 1255q0 51 64 84l147 66l117 -66q37 -24 37 -61q-2 -39 -41 -39 q-29 0 -62.5 33t-64.5 69q-137 -102 -170 -102q-27 0 -27 16z" />
<glyph unicode="&#xfc;" horiz-adv-x="839" d="M139 207q0 35 8 76l154 716q2 4 2 17q0 12 -9 18t-21.5 10.5t-21.5 8.5t-9 12q0 4 9 7t36.5 8t78 17.5t132.5 35.5l-176 -826q-10 -51 -11 -84q0 -70 33 -115t90 -45q74 0 115 37t64.5 89.5t32.5 110.5t18 99l104 486q16 76 22.5 130t8.5 93v25q80 -6 96 -7q12 1 104 7 q-10 -35 -26.5 -95.5t-36.5 -152.5l-158 -760q-4 -20 -4 -23q0 -29 27 -28q4 0 49 10l-8 -35q-203 -51 -217 -51q-37 0 -37 33q0 35 33 119q-39 -72 -113 -115t-154 -43q-98 0 -156.5 57t-58.5 158zM492 1303q0 51 33.5 89t80.5 38q74 0 74 -74q0 -51 -32.5 -89t-84.5 -38 q-72 0 -71 74zM738 1303q0 51 33.5 89t80.5 38q72 0 72 -74q0 -51 -32 -89t-81 -38q-74 0 -73 74z" />
<glyph unicode="&#xfd;" horiz-adv-x="782" d="M-12 -289q0 109 104 158l55 -100q74 25 222 256q-2 223 -13.5 422.5t-33.5 379.5l-25 172q-4 14 -13.5 24.5t-19.5 18t-17 12.5t-7 9q0 8 47 19.5t174 50.5q27 -193 40 -397t13 -433v-18q23 25 59.5 90t76.5 150t81 178.5t74 174t53.5 140t20.5 76.5q0 18 -29 18h-8l6 27 q14 0 47 -3t49 -3q20 0 25 4q-41 -127 -96.5 -263.5t-135.5 -294t-188.5 -341t-251.5 -404.5q-133 -203 -236 -203q-74 0 -73 80zM506 1274l209 104q45 23 75 23q47 0 47 -37q0 -25 -14 -40t-51 -24l-248 -67z" />
<glyph unicode="&#xff;" horiz-adv-x="782" d="M-12 -289q0 109 104 158l55 -100q74 25 222 256q-2 223 -13.5 422.5t-33.5 379.5l-25 172q-4 14 -13.5 24.5t-19.5 18t-17 12.5t-7 9q0 8 47 19.5t174 50.5q27 -193 40 -397t13 -433v-18q23 25 59.5 90t76.5 150t81 178.5t74 174t53.5 140t20.5 76.5q0 18 -29 18h-8l6 27 q14 0 47 -3t49 -3q20 0 25 4q-41 -127 -96.5 -263.5t-135.5 -294t-188.5 -341t-251.5 -404.5q-133 -203 -236 -203q-74 0 -73 80zM461 1303q0 51 33.5 89t80.5 38q74 0 74 -74q0 -51 -32.5 -89t-84.5 -38q-72 0 -71 74zM707 1303q0 51 33.5 89t80.5 38q72 0 72 -74 q0 -51 -32 -89t-81 -38q-74 0 -73 74z" />
<glyph unicode="&#x152;" horiz-adv-x="1597" d="M178 334q0 152 55 407q39 180 95.5 315.5t136.5 225.5t186.5 135t247.5 45q166 0 238 -127l4 23q2 2 2 12q0 51 -56 51l5 25h684l-29 -195h-16q-4 94 -14.5 124t-43.5 30h-360q-6 -45 -13.5 -84t-13.5 -72l-82 -389q-4 -27 -13 -53.5t-20 -58.5h330q27 0 50.5 33.5 t27.5 78.5h23l-37 -272h-25q2 8 2 17v20q0 82 -41 82h-336q-4 -33 -9 -59.5t-9 -49.5l-84 -408q-2 -12 -11.5 -40.5t-23.5 -79.5q0 -27 53 -27h392q51 0 120 154h17l-54 -195h-776l4 25q27 0 53.5 19.5t32.5 43.5l11 47q-82 -82 -183.5 -116.5t-234.5 -34.5q-285 0 -285 348 zM369 354q0 -315 161 -315q219 0 361 434q110 338 110 623q0 311 -163 311q-68 0 -131.5 -47t-119 -136t-100.5 -215t-75 -282q-43 -197 -43 -373z" />
<glyph unicode="&#x153;" horiz-adv-x="1411" d="M139 283q0 152 30 308.5t99.5 284.5t182 208.5t276.5 80.5q199 0 231 -211q72 88 162 139.5t197 51.5q43 0 84 -13.5t71.5 -38t51 -57t24.5 -69.5v-33q0 -174 -118 -262q-23 -12 -92.5 -40t-149.5 -62.5t-152.5 -72.5t-101.5 -69q-4 -35 -7 -58.5t-3 -39.5 q0 -129 47 -199t129 -70q31 0 65.5 12.5t69.5 33t67.5 49t57.5 61.5l35 -20q-152 -201 -383 -201q-90 0 -150.5 45t-91.5 127q-70 -92 -166 -139t-225 -47q-240 0 -240 301zM309 291q0 -250 156 -250q39 0 74 12q43 16 89 99.5t83 196t60.5 234.5t23.5 218q0 141 -44 219 t-122 78q-41 0 -76 -17.5t-64.5 -60.5t-57.5 -116t-54 -181q-33 -129 -50.5 -236.5t-17.5 -195.5zM936 520q27 25 65.5 44.5t92.5 35.5q92 31 152.5 61.5t96 67.5t49 86t13.5 121q0 61 -28.5 104t-78.5 43q-59 0 -117.5 -52t-108.5 -133t-86 -181.5t-50 -196.5z" />
<glyph unicode="&#x178;" horiz-adv-x="802" d="M248 2l4 25q23 0 51.5 19.5t34.5 43.5l147 680l-114 616q-6 35 -68 35l4 25q76 -2 115 -3t49 -1q8 0 43 1t104 3l-8 -25q-20 0 -42.5 -19.5t-22.5 -39.5v-4q0 -6 5 -39t17 -92q4 -18 13.5 -63.5t19.5 -97.5t17.5 -102.5t7.5 -78.5q31 63 100.5 183t183.5 298q6 8 6 18 q0 37 -49 37l6 25q45 -2 71 -3t32 -1q10 0 35.5 1t74.5 3l-6 -25q-59 0 -98 -63l-207 -342q-41 -47 -104 -170q-6 -4 -25.5 -100.5t-58.5 -286.5q-41 -186 -59.5 -281.5t-18.5 -99.5q0 -51 55 -51l-6 -25q-72 2 -107.5 3t-43.5 1q-10 0 -48.5 -1t-109.5 -3zM539 1610 q0 51 33.5 89t80.5 38q74 0 74 -74q0 -51 -32.5 -89t-84.5 -38q-72 0 -71 74zM785 1610q0 51 33.5 89t80.5 38q72 0 72 -74q0 -51 -32 -89t-81 -38q-74 0 -73 74z" />
<glyph unicode="&#x2c6;" horiz-adv-x="911" d="M608 1255q0 51 64 84l147 66l117 -66q37 -24 37 -61q-2 -39 -41 -39q-29 0 -62.5 33t-64.5 69q-137 -102 -170 -102q-27 0 -27 16z" />
<glyph unicode="&#x2dc;" horiz-adv-x="864" d="M555 1241q14 61 61.5 107.5t108.5 46.5q18 0 48 -16.5t60.5 -35t56 -35t36.5 -16.5q47 0 84 107h28q-18 -61 -66 -109.5t-110 -48.5q-23 0 -51.5 16.5t-56 37t-50 37t-32.5 16.5q-39 0 -88 -107h-29z" />
<glyph unicode="&#x2000;" horiz-adv-x="971" />
<glyph unicode="&#x2001;" horiz-adv-x="1943" />
<glyph unicode="&#x2002;" horiz-adv-x="971" />
<glyph unicode="&#x2003;" horiz-adv-x="1943" />
<glyph unicode="&#x2004;" horiz-adv-x="647" />
<glyph unicode="&#x2005;" horiz-adv-x="485" />
<glyph unicode="&#x2006;" horiz-adv-x="323" />
<glyph unicode="&#x2007;" horiz-adv-x="323" />
<glyph unicode="&#x2008;" horiz-adv-x="242" />
<glyph unicode="&#x2009;" horiz-adv-x="388" />
<glyph unicode="&#x200a;" horiz-adv-x="107" />
<glyph unicode="&#x2010;" horiz-adv-x="593" d="M233 688l23 98h440l-24 -98h-439z" />
<glyph unicode="&#x2011;" horiz-adv-x="593" d="M233 688l23 98h440l-24 -98h-439z" />
<glyph unicode="&#x2012;" horiz-adv-x="593" d="M233 688l23 98h440l-24 -98h-439z" />
<glyph unicode="&#x2013;" horiz-adv-x="536" d="M176 688l23 98h454l-20 -98h-457z" />
<glyph unicode="&#x2014;" horiz-adv-x="1064" d="M229 688l21 98h887l-23 -98h-885z" />
<glyph unicode="&#x2018;" horiz-adv-x="311" d="M342 1321q0 31 16.5 65.5t44 67.5t61.5 61.5t71 47.5q-35 -43 -54.5 -82t-19.5 -76q0 -74 76 -74q-55 -90 -123 -90q-72 0 -72 80z" />
<glyph unicode="&#x2019;" horiz-adv-x="276" d="M348 1462q53 90 125 90t72 -82q0 -33 -17.5 -66.5t-45 -65t-62.5 -59.5t-70 -48q74 92 74 158q0 74 -76 73z" />
<glyph unicode="&#x201a;" horiz-adv-x="276" d="M51 72q55 92 123 92q74 0 74 -82q0 -31 -17.5 -66.5t-45 -68.5t-62.5 -60.5t-70 -44.5q35 47 54.5 85t19.5 73q0 72 -76 72z" />
<glyph unicode="&#x201c;" horiz-adv-x="481" d="M344 1333q0 31 17.5 67t45 68.5t61.5 61.5t69 45q-74 -90 -74 -158q0 -72 74 -71q2 31 20 64.5t46 64t60.5 57.5t65.5 43q-72 -84 -72 -158q0 -72 74 -71q-57 -94 -125 -95q-70 0 -69 82v8q-55 -90 -123 -90q-70 0 -70 82z" />
<glyph unicode="&#x201d;" horiz-adv-x="450" d="M334 1481q55 92 125 92q72 0 71 -82v-2q55 84 121 84q74 0 74 -82q0 -33 -17.5 -69t-46 -68.5t-63.5 -60t-70 -42.5q74 86 74 160q0 66 -72 70q-2 -31 -20 -66t-46 -66.5t-61.5 -57t-66.5 -40.5q74 90 74 160t-76 70z" />
<glyph unicode="&#x201e;" horiz-adv-x="450" d="M29 72q57 92 125 92q72 0 71 -82v-8q55 90 123 90q72 0 72 -82q0 -33 -17.5 -69t-46 -68.5t-63.5 -60t-70 -42.5q76 84 76 158q0 72 -76 72q-2 -31 -19.5 -66t-45 -66.5t-61.5 -57t-66 -40.5q74 86 73 158q0 72 -75 72z" />
<glyph unicode="&#x2022;" horiz-adv-x="692" d="M276 723q0 57 25 115.5t67 104.5t95 75t112 29q90 0 140.5 -57.5t50.5 -145.5q0 -57 -24.5 -115.5t-66.5 -104.5t-97.5 -76t-114.5 -30q-86 0 -136.5 57.5t-50.5 147.5z" />
<glyph unicode="&#x2026;" horiz-adv-x="2969" d="M582 66q0 55 35.5 98t91.5 43q77 0 77 -82q0 -53 -35.5 -95t-88.5 -42q-80 0 -80 78zM1411 66q0 55 36 98t91 43q78 0 78 -82q0 -53 -36 -95t-89 -42q-80 0 -80 78zM2241 66q0 55 35.5 98t90.5 43q78 0 78 -82q0 -53 -35.5 -95t-89.5 -42q-80 0 -79 78z" />
<glyph unicode="&#x202f;" horiz-adv-x="388" />
<glyph unicode="&#x205f;" horiz-adv-x="485" />
<glyph unicode="&#x20ac;" horiz-adv-x="761" d="M84 584l10 61h82l25 125h-78l14 59h80q16 141 80.5 258t147.5 200t171.5 129t153.5 46q29 0 68 -5t72.5 -16t57 -27.5t23.5 -39.5q0 -18 -15 -36.5t-34 -18.5q-6 0 -19.5 17.5t-35 39t-49 39t-60.5 17.5q-129 0 -246.5 -151t-191.5 -452h516l-12 -59h-520 q-8 -31 -13.5 -60.5t-9.5 -64.5h514l-12 -61h-510q-8 -55 -11 -103.5t-3 -95.5q0 -344 188 -344q25 0 57.5 7t66.5 20.5t65.5 32t52.5 38.5l10 -33q-31 -20 -71 -40.5t-81 -38t-79.5 -28.5t-69.5 -11q-123 0 -188.5 118.5t-65.5 335.5q0 68 6 142h-86z" />
<glyph unicode="&#x25fc;" horiz-adv-x="1136" d="M0 0v1137h1137v-1137h-1137z" />
</font>
</defs>
</svg>
