<?xml version="1.0" standalone="no"?>
<!DOCTYPE svg PUBLIC "-//W3C//DTD SVG 1.1//EN" "http://www.w3.org/Graphics/SVG/1.1/DTD/svg11.dtd" >
<svg xmlns="http://www.w3.org/2000/svg">
<metadata></metadata>
<defs>
<font id="effloresceregular" horiz-adv-x="1316" >
<font-face units-per-em="2048" ascent="1522" descent="-526" />
<missing-glyph horiz-adv-x="579" />
<glyph horiz-adv-x="2048" />
<glyph horiz-adv-x="2048" />
<glyph unicode="&#xd;" horiz-adv-x="579" />
<glyph unicode=" "  horiz-adv-x="579" />
<glyph unicode="&#x09;" horiz-adv-x="579" />
<glyph unicode="&#xa0;" horiz-adv-x="579" />
<glyph unicode="!" horiz-adv-x="569" d="M94 1538q0 49 50.5 82t119.5 33q63 0 107.5 -28t44.5 -79q0 -14 -10 -51q-16 -49 -30 -136t-27 -222.5t-29.5 -322.5t-40.5 -437h-62l-20 289q-16 205 -34 359.5t-22 291.5q-4 35 -12 69.5t-16.5 64.5t-13.5 52.5t-5 34.5zM127 102q0 57 34 89t83 32t83.5 -32t34.5 -89 t-34.5 -86.5t-83.5 -29.5t-83 29.5t-34 86.5z" />
<glyph unicode="&#x22;" horiz-adv-x="618" d="M49 1661q0 45 28.5 70.5t67.5 25.5q84 0 84 -86q0 -31 -14 -72q-31 -76 -35 -148.5t-10 -145.5h-57q-10 76 -18.5 151.5t-33.5 142.5q-12 33 -12 62zM260 1661q0 45 28.5 70.5t67.5 25.5q84 0 84 -86q0 -31 -14 -72q-31 -76 -35 -148.5t-10 -145.5h-59q-8 76 -16.5 151.5 t-33.5 142.5q-12 33 -12 62z" />
<glyph unicode="#" horiz-adv-x="815" d="M74 1051l10 57h143l29 174h-145l10 59h143l43 279h62l-45 -279h172l43 279h61l-43 -279h150l-11 -59h-147l-29 -174h150l-11 -57h-149l-39 -269h-61l41 269h-172l-41 -269h-62l43 269h-145zM289 1108h170l28 174h-172z" />
<glyph unicode="$" horiz-adv-x="935" d="M88 430q0 47 45 47q31 0 51 -43q53 -135 195 -164v551q-88 47 -143.5 86t-86 78t-42 84t-11.5 105q0 238 283 290v146h27v-142q45 6 92 7h24.5t26.5 -2v137h24v-142q37 -6 79 -21t79 -38t60.5 -51.5t23.5 -61.5q0 -53 -47 -53q-29 0 -43 31q-51 100 -152 123v-516 q78 -41 131.5 -82t85 -87t45 -98.5t13.5 -115.5q0 -233 -275 -293v-115h-24v111q-47 -8 -98 -8h-22.5t-22.5 2v-105h-27v107q-170 29 -275 182q-16 27 -16 51zM301 1202q0 -115 78 -196v364q-78 -47 -78 -168zM406 268q6 -2 24 -2q63 0 119 23v420q-25 23 -60.5 48t-82.5 50 v-539zM406 983q20 -18 56 -39.5t87 -50.5v508q-10 2 -27 2q-61 0 -116 -23v-397zM573 303q70 49 70 160q0 135 -70 217v-377z" />
<glyph unicode="%" horiz-adv-x="1259" d="M84 1366q0 63 23.5 117.5t64.5 93.5t99.5 60.5t127.5 21.5q111 0 173.5 -77t62.5 -208q0 -66 -26.5 -118t-69.5 -90t-100.5 -58.5t-119.5 -20.5q-111 0 -173 72t-62 207zM182 1372q0 -254 180 -254q35 0 68 18.5t57.5 52.5t39 79t14.5 98q0 51 -13.5 99t-39 84 t-61.5 57.5t-81 21.5q-35 0 -64.5 -21.5t-51 -57.5t-35 -82t-13.5 -95zM332 506l495 1143h68l-506 -1143h-57zM633 733q0 63 22.5 117.5t64.5 93.5t99.5 60.5t126.5 21.5q111 0 173.5 -76t62.5 -209q0 -66 -27 -118t-70 -89.5t-99 -58t-118 -20.5q-111 0 -173 72.5 t-62 205.5zM729 739q0 -252 182 -252q35 0 68 18.5t57.5 51.5t39 78t14.5 98q0 51 -13.5 99.5t-39 84t-62.5 57t-82 21.5q-35 0 -64.5 -21.5t-51 -57t-35 -82t-13.5 -95.5z" />
<glyph unicode="&#x26;" horiz-adv-x="1142" d="M72 403q0 66 16 125.5t53 106.5t94.5 82t139.5 51q-49 6 -92 33.5t-76 73t-51.5 104.5t-18.5 131q0 92 35 169t94.5 131t138 84t168.5 30q135 0 218 -40t83 -102q0 -61 -65 -61q-37 0 -57 37q-18 35 -32.5 54.5t-29 28.5t-30 11t-39.5 2q-66 0 -120.5 -26.5t-93 -74.5 t-61 -113.5t-22.5 -143.5t21.5 -140.5t58 -107.5t86 -69.5t104.5 -26.5q57 0 108.5 22.5t91.5 62.5t66.5 96t34.5 124v-178q0 -31 -2 -63t-6 -64h172v-43h-172q4 -35 6 -69t2 -69v-286q0 -102 45 -165t127 -63q49 0 111 29l20 -43q-115 -41 -182 -41q-166 0 -244 115 q-166 -127 -319 -127q-80 0 -148.5 32.5t-121 89t-82 131t-29.5 160.5zM305 379q0 -68 17.5 -124t50.5 -97t77 -64.5t99 -23.5q84 -1 203 71q-59 66 -60 172v279q0 29 2 56.5t6 60.5h-118q-61 0 -112.5 -25t-87.5 -69t-56.5 -104t-20.5 -132z" />
<glyph unicode="'" horiz-adv-x="405" d="M96 1599q45 98 127 99q45 0 78 -33t33 -86q0 -31 -16.5 -65.5t-41 -65.5t-56.5 -56.5t-62 -39.5q51 70 51 139q0 109 -113 108z" />
<glyph unicode="(" horiz-adv-x="618" d="M117 262v1014q0 94 24.5 174t68.5 139.5t107.5 96t143.5 45.5l6 -21q-55 -10 -102.5 -50t-83 -96.5t-56 -125t-20.5 -135.5v-1014q0 -199 69.5 -307.5t202.5 -108.5h17l-7 -12q-43 -12 -77 -13q-61 0 -115.5 37t-93.5 95.5t-61.5 133t-22.5 148.5z" />
<glyph unicode=")" horiz-adv-x="733" d="M274 1698l7 14q37 14 77 14q59 0 112.5 -35.5t93.5 -95t63.5 -134.5t23.5 -150v-1012q0 -94 -24.5 -174t-68.5 -140.5t-108.5 -97.5t-144.5 -45l-6 21q55 10 103.5 50t84 97.5t56 126t20.5 135.5v1012q0 195 -69.5 304.5t-202.5 109.5h-17z" />
<glyph unicode="*" horiz-adv-x="774" d="M119 1137l12 116l252 -69l-96 248l119 24l12 -264l205 168l57 -107l-246 -90l223 -143l-82 -88l-163 205l-66 -256l-113 51l146 219z" />
<glyph unicode="+" horiz-adv-x="724" d="M94 770v41h244v252h55v-252h250v-41h-250v-268h-55v268h-244z" />
<glyph unicode="," horiz-adv-x="419" d="M80 125q45 98 127 98q45 0 76.5 -34t31.5 -87q0 -31 -16 -63.5t-41 -64t-55.5 -58.5t-61.5 -41q51 76 52 139q0 111 -113 111z" />
<glyph unicode="-" horiz-adv-x="714" d="M106 741v109h529v-109h-529z" />
<glyph unicode="." horiz-adv-x="417" d="M98 102q0 57 36 89t85 32q47 0 83 -32t36 -89t-36 -86.5t-83 -29.5q-49 0 -85 29.5t-36 86.5z" />
<glyph unicode="/" horiz-adv-x="864" d="M72 0l630 1565h82l-634 -1565h-78z" />
<glyph unicode="0" horiz-adv-x="1318" d="M94 582q0 131 47 244.5t134 197.5t209 131t272 47q117 0 209 -43t156.5 -122t98 -191.5t33.5 -249.5q0 -121 -47 -230.5t-133 -192.5t-208 -131t-271 -48q-240 0 -370 155.5t-130 432.5zM299 596q0 -250 98.5 -393.5t284.5 -143.5q70 0 137.5 34t121.5 99.5t87 164 t33 225.5q0 111 -30 210t-83 175.5t-128 122t-165 45.5q-72 0 -136 -39t-113.5 -110t-78 -170t-28.5 -220z" />
<glyph unicode="1" horiz-adv-x="573" d="M43 1077v49l453 125v-47l-76 -22q4 -29 6 -59.5t2 -61.5v-979q0 -53 66 -53v-27h-342v27q72 0 71 53v831q0 27 4 60t4 71q0 63 -61 64q-16 0 -127 -31z" />
<glyph unicode="2" horiz-adv-x="931" d="M18 2q143 135 237.5 229.5t139.5 149.5q229 268 230 463q0 59 -18.5 109.5t-49.5 86t-69.5 56t-77.5 20.5q-23 0 -41.5 -3t-37 -18.5t-37 -48t-38.5 -92.5q-18 -43 -61 -43q-31 0 -49.5 22.5t-18.5 55.5t29.5 68t79 63.5t113 47t128.5 18.5q72 0 134.5 -20.5t109.5 -58.5 t73.5 -93.5t26.5 -124.5q0 -129 -81 -265.5t-269 -299.5l-201 -158q141 6 211 6h396l-48 -170h-811z" />
<glyph unicode="3" horiz-adv-x="843" d="M41 991q0 37 30.5 71t82 61.5t117 45t132.5 19.5q76 0 139.5 -21.5t109.5 -60.5t71 -93.5t25 -121.5q0 -61 -24 -119.5t-60.5 -107t-84 -83t-94.5 -46.5q57 0 109.5 -24t92.5 -64.5t64.5 -94t24.5 -114.5q0 -94 -52 -191.5t-135 -179.5t-189.5 -140.5t-213.5 -76.5h-12 q-23 0 -22 16q0 12 12 17q209 61 327.5 186t118.5 287q0 63 -20.5 122.5t-55 103.5t-83 70.5t-103.5 26.5q-16 0 -31.5 -2t-31.5 -6v47q131 35 207.5 116t76.5 193q0 61 -15 114.5t-45 91.5t-73 60.5t-96 22.5q-23 0 -43.5 -2t-39.5 -15.5t-40.5 -46t-48.5 -94.5 q-18 -39 -57 -38q-31 0 -50.5 21.5t-19.5 49.5z" />
<glyph unicode="4" horiz-adv-x="966" d="M4 2q12 16 39 49t63 86l601 860q8 10 33.5 51.5t72.5 112.5v-985q0 -37 -1 -69.5t-3 -59.5h123v-45h-123q2 -33 3 -68.5t1 -76.5v-172h-205v178q0 37 2 70.5t6 68.5h-612zM154 41q74 6 139 6h323q-4 31 -6 63.5t-2 65.5v375q0 27 2 71t6 109q-16 -29 -41.5 -74 t-64.5 -106l-264 -389q-20 -29 -45 -58.5t-47 -62.5z" />
<glyph unicode="5" horiz-adv-x="792" d="M55 780l197 365h483l-51 -172h-330q-41 0 -73.5 2t-61.5 6l-35 -72q82 -37 127 -65q426 -289 426 -594q0 -94 -47 -191.5t-116.5 -176.5t-150.5 -131t-149 -58q-18 0 -18 16q0 12 20 21l43 14q125 51 193 160.5t68 259.5q0 176 -123 328q-27 31 -71 73.5t-98.5 84.5 t-114.5 78t-118 52z" />
<glyph unicode="6" horiz-adv-x="958" d="M72 608q0 55 3 113.5t11 118.5q14 111 65.5 220t127 204.5t172 167t200.5 104.5l11 -57q-123 -43 -203 -129t-127 -190.5t-67.5 -217.5t-22.5 -213q20 37 52 69.5t70.5 58.5t81.5 40t84 14q88 0 155 -37.5t112 -100t67.5 -143.5t22.5 -167q0 -219 -103.5 -345 t-291.5 -126q-207 0 -313.5 158.5t-106.5 457.5zM244 616q0 -131 16 -236.5t50 -179t85 -113.5t119 -40q104 0 158.5 89.5t54.5 236.5q0 82 -18.5 155.5t-54.5 131t-89 91t-121 33.5q-25 0 -59.5 -10t-66 -31.5t-53 -52.5t-21.5 -74z" />
<glyph unicode="7" horiz-adv-x="925" d="M66 973l32 172h664q33 0 70.5 2t80.5 6q-12 -18 -27.5 -59t-37.5 -105l-473 -1298h-101l406 1130l63 162q-47 -6 -88 -8t-77 -2h-512z" />
<glyph unicode="8" horiz-adv-x="1019" d="M70 418q0 139 76.5 253.5t248.5 186.5q-147 86 -210.5 180.5t-63.5 210.5q0 78 28.5 140.5t81 106.5t123 67.5t156.5 23.5q80 0 149.5 -21.5t120.5 -60.5t81 -93t30 -118q0 -102 -62.5 -188t-216.5 -170q193 -106 269.5 -233t76.5 -287q0 -96 -32.5 -174t-92 -133.5 t-140.5 -85t-179 -29.5q-92 0 -174 30.5t-141.5 87t-94 134.5t-34.5 172zM215 410q0 -78 21.5 -143.5t59.5 -113t92 -74t122 -26.5q63 0 119.5 26.5t98.5 73t66.5 107.5t24.5 131q0 74 -27.5 140.5t-77.5 124t-119 104.5t-151 80q-51 -29 -93 -75t-72.5 -102.5t-47 -121 t-16.5 -131.5zM252 1352q0 -47 22.5 -104.5t64.5 -113t101.5 -103.5t130.5 -75q37 23 72 58t61.5 78t43 92t16.5 100q0 117 -73 181.5t-191 64.5q-248 0 -248 -178z" />
<glyph unicode="9" horiz-adv-x="950" d="M78 670q0 106 26.5 195t77.5 151.5t126 97.5t171 35q205 0 309.5 -152.5t104.5 -449.5q0 -182 -42 -329.5t-119 -258.5t-183.5 -186.5t-235.5 -112.5q-4 -2 -12 -2q-20 0 -20 29q0 20 24 30q207 59 305.5 224t114.5 428q-104 -152 -262 -152q-86 0 -158 34t-122 94.5 t-77.5 143t-27.5 181.5zM240 762q0 -92 22.5 -169t62.5 -132t97 -86t129 -31q102 0 170 88v43q0 295 -67.5 457t-202.5 162q-102 0 -156.5 -89.5t-54.5 -242.5z" />
<glyph unicode=":" horiz-adv-x="382" d="M78 102q0 57 36 89t85 32q47 0 81.5 -32t34.5 -89t-34.5 -86.5t-81.5 -29.5q-49 0 -85 29.5t-36 86.5zM78 735q0 57 36 89t85 32q47 0 81.5 -32t34.5 -89t-34.5 -87t-81.5 -30q-49 0 -85 30t-36 87z" />
<glyph unicode=";" horiz-adv-x="385" d="M78 125q43 98 127 98q47 0 78.5 -34t31.5 -87q0 -31 -16 -63.5t-41 -64t-55.5 -58.5t-61.5 -41q49 78 49 139q0 111 -112 111zM78 735q0 57 36 89t85 32q47 0 81.5 -32t34.5 -89t-33.5 -87t-82.5 -30t-85 30t-36 87z" />
<glyph unicode="&#x3c;" horiz-adv-x="602" d="M78 752l268 270l152 41l-279 -279l270 -270l-137 -35z" />
<glyph unicode="=" horiz-adv-x="681" d="M98 651v66h486v-66h-486zM98 852v66h486v-66h-486z" />
<glyph unicode="&#x3e;" horiz-adv-x="675" d="M156 477l278 275l-270 270l137 37l274 -275l-268 -270z" />
<glyph unicode="?" horiz-adv-x="876" d="M68 1403q59 72 166.5 117t224.5 45q82 0 145.5 -23.5t107.5 -65.5t67.5 -97.5t23.5 -118.5q0 -123 -111 -271l-211 -237q-113 -135 -112 -217q0 -37 82 -201l-60 -21l-143 275q-16 29 -17 65q0 39 28 88.5t70 102.5t91 108.5t91 108.5t69.5 103t27.5 93q0 45 -17.5 88.5 t-50 76t-78.5 53t-102 20.5q-137 0 -247 -139zM322 102q0 57 34.5 89t83.5 32t84 -32t35 -89t-35 -86.5t-84 -29.5t-83.5 29.5t-34.5 86.5z" />
<glyph unicode="@" horiz-adv-x="1333" d="M82 635q0 127 51 238.5t139 194.5t207 131t254 48q109 0 206 -34.5t170 -98t116 -153t43 -195.5q0 -66 -21.5 -128.5t-58.5 -110.5t-86 -76.5t-105 -28.5q-80 0 -149 94q-23 -59 -85.5 -99t-144.5 -40q-84 0 -135 39t-51 102q0 90 90 137l174 74q90 49 90 123 q0 37 -38.5 59.5t-77.5 22.5t-80 -27.5t-55 -62.5l-41 49q104 104 227 104q84 0 141.5 -48t57.5 -120v-254q0 -80 49 -79q70 0 105.5 58t35.5 153q0 94 -31.5 180t-89 149.5t-134.5 101.5t-167 38t-168 -39t-135 -105.5t-89 -153.5t-32 -182q0 -111 39 -208t105.5 -168.5 t157.5 -113.5t196 -42q35 0 71.5 5t73.5 17v-45q-100 -35 -213 -35q-129 0 -240.5 40t-194.5 111t-130 167t-47 211zM586 539q0 -61 86 -62q41 0 64.5 13.5t35.5 34t15.5 47t3.5 55.5v75q-31 -12 -67 -32.5t-66.5 -44t-51 -46t-20.5 -40.5z" />
<glyph unicode="A" d="M14 0v27q72 0 90 53l461 1429l-16 52q45 -2 70.5 -3.5t29.5 -1.5t31 1.5t72 3.5l477 -1487q16 -47 102 -47v-27q-160 6 -182 6q-20 0 -188 -6v27q65 0 65 38q0 9 -2 15l-57 168q-10 29 -17.5 56.5t-11.5 57.5h-672q-2 -10 -8 -39.5t-20 -78.5l-54 -160v-12q0 -45 76 -45 v-27q-117 6 -133 6q-14 0 -113 -6zM281 408h643q-14 27 -56 139l-100 303q-25 70 -47.5 135.5t-44 134t-43 144t-41.5 168.5q-29 -135 -70 -277.5t-90 -296.5l-96 -299q-4 -16 -18.5 -54t-36.5 -97z" />
<glyph unicode="B" horiz-adv-x="1028" d="M29 2v27q31 0 59.5 20.5t28.5 46.5v1370q0 29 -27 48.5t-57 19.5v29h514q76 0 141.5 -34t111.5 -89.5t72.5 -128t26.5 -152.5q0 -57 -19.5 -111.5t-53 -100.5t-82 -82t-103.5 -56h16q55 0 110.5 -37t99.5 -93t72 -125t28 -130q0 -98 -40 -177t-113 -133.5t-176 -83 t-230 -28.5h-379zM307 86q0 -39 66 -39h43q74 0 135 29.5t106 82t70 124t25 153.5q0 147 -75 239.5t-200 92.5h-12q-16 -4 -156 -6q4 -35 6 -63.5t2 -51.5v-442q0 -35 -5 -63.5t-5 -55.5zM309 803l178 6q49 2 90 32.5t71 78t47.5 105t17.5 114.5q0 76 -22.5 144.5 t-62.5 120.5t-94.5 83t-115.5 31h-109q4 -45 6 -75t2 -48v-459q0 -29 -2 -60.5t-6 -72.5z" />
<glyph unicode="C" horiz-adv-x="1214" d="M74 801q0 178 43 320.5t126 241.5t203.5 151.5t276.5 52.5q121 0 231 -99l41 -41q27 -29 43 -28q37 0 37 47h27l22 -307h-28q-23 78 -64 146.5t-95 118.5t-116.5 78.5t-128.5 28.5q-90 0 -163.5 -58t-126 -157.5t-82 -231.5t-29.5 -278q0 -135 30.5 -266t85 -235.5 t128 -168t161.5 -63.5q76 0 154 36t141.5 93.5t103.5 131t40 151.5h26l-20 -307h-29v6q0 25 -22 24q-10 0 -36 -21.5t-75 -62.5q-163 -110 -349 -110h-3q-553 0 -553 807z" />
<glyph unicode="D" horiz-adv-x="1159" d="M12 2v27q31 0 58.5 20.5t27.5 46.5v1370q0 29 -25.5 48.5t-56.5 19.5v29h576q113 0 207 -63.5t163.5 -169t108.5 -244.5t39 -291q0 -215 -41 -367t-127 -246t-221 -137t-322 -43h-387zM293 88q0 -41 67 -41h136q90 0 164.5 56.5t128 156.5t82 237.5t28.5 297.5 q0 143 -37 273t-102.5 230.5t-157.5 160t-203 59.5h-106q4 -47 6 -78t2 -51l2 -1153q0 -33 -5 -70t-5 -78z" />
<glyph unicode="E" horiz-adv-x="1015" d="M25 2v27q31 0 59.5 20.5t28.5 46.5v1370q0 29 -27 48.5t-57 19.5v29h821l16 -209h-18q-29 100 -49.5 132t-57.5 32h-436q4 -47 6 -90.5t2 -77.5v-420q0 -29 -2 -58.5t-6 -64.5h395q66 0 66 106v17h27l22 -295h-27q-10 129 -77 129h-406q4 -37 6 -65.5t2 -51.5v-442 q0 -29 -4 -57.5t-4 -59.5q0 -41 70 -41h473q18 0 31.5 7t24.5 25.5t22.5 50.5t25.5 81h19l-17 -209h-929z" />
<glyph unicode="F" horiz-adv-x="952" d="M33 2v27q31 0 59.5 19.5t28.5 47.5v1370q0 29 -26.5 48.5t-55.5 19.5v29h821l17 -209h-19q-29 100 -49.5 132t-56.5 32h-439q4 -41 6.5 -71t2.5 -52v-469q0 -29 -2.5 -56.5t-6.5 -62.5h396q57 0 57 106v17h27l22 -295h-27q-10 129 -77 129h-398q4 -41 6.5 -75t2.5 -62 v-531q0 -29 26.5 -48t54.5 -19v-27h-370z" />
<glyph unicode="G" horiz-adv-x="1239" d="M57 793q0 180 38 325.5t116 246.5t194.5 155.5t276.5 54.5q137 0 244 -107q4 -8 25.5 -31.5t43.5 -23.5q25 0 25 31l27 2v-307h-27q0 68 -29.5 135t-80 121.5t-116 89.5t-135.5 35q-86 0 -156.5 -52.5t-121.5 -148.5t-79 -231.5t-28 -301.5q0 -168 32 -305t84 -234 t120 -150.5t137 -53.5q70 0 126 33t94 86t58.5 118.5t20.5 131.5v133q0 29 -24.5 47t-55.5 20v27h344v-27q-31 -2 -58.5 -20.5t-27.5 -46.5v-275q0 -152 37 -221l-65 -39q-45 76 -45 236v2q-31 -63 -71 -113.5t-96.5 -84.5t-132 -51t-176.5 -17q-254 0 -386 202.5 t-132 608.5z" />
<glyph unicode="H" horiz-adv-x="1234" d="M45 2v27q29 0 57.5 19.5t28.5 47.5v1370q0 31 -26.5 49.5t-55.5 18.5v29l184 -4q10 0 56.5 1t130.5 3v-29q-31 0 -58.5 -18.5t-27.5 -49.5v-475q0 -35 -2 -74.5t-8 -89.5h596q-4 49 -6.5 93.5t-2.5 85.5v460q0 31 -26.5 49.5t-55.5 18.5v29l189 -4q10 0 55 1t127 3v-29 q-31 0 -59.5 -18.5t-28.5 -49.5v-1370q0 -29 26.5 -48t57.5 -19v-27q-82 2 -128 3t-56 1t-56.5 -1t-132.5 -3v27q31 0 59.5 19.5t28.5 47.5v520q0 31 2 73t7 95h-596q6 -49 8 -91t2 -77v-520q0 -29 25.5 -48t54.5 -19v-27l-183 4q-10 0 -56 -1t-130 -3z" />
<glyph unicode="I" horiz-adv-x="428" d="M35 0v27q31 0 58.5 19.5t27.5 47.5v1372q0 31 -25.5 49.5t-54.5 18.5v29q78 -2 122 -3t54 -1t58.5 1t136.5 3v-29q-31 0 -59.5 -18.5t-28.5 -49.5v-1372q0 -29 25.5 -48t56.5 -19v-27l-187 6q-23 0 -184 -6z" />
<glyph unicode="J" horiz-adv-x="698" d="M-156 -68q0 59 58 60q39 0 69 -51q55 -106 164 -107q113 0 175.5 67.5t62.5 180.5v1384q0 31 -24.5 49.5t-55.5 18.5v29l184 -7l187 7v-29q-29 0 -57.5 -18.5t-28.5 -49.5v-1273q0 -92 -37 -168t-98.5 -131.5t-143.5 -85t-172 -29.5q-49 0 -99.5 11t-91 31.5t-66.5 48.5 t-26 62z" />
<glyph unicode="K" horiz-adv-x="1142" d="M27 2v27q31 0 59.5 19.5t28.5 47.5v1370q0 31 -27 49.5t-55 18.5v29q78 -2 123 -3t55 -1t58 1t134 3v-29q-31 0 -58.5 -18.5t-27.5 -49.5v-450q0 -61 -6 -148q55 25 123 85.5t137.5 143.5t137 182t125.5 202q12 25 12 32q0 20 -41 21h-17v29q57 -2 89 -3t41 -1 q6 0 35.5 1t84.5 3v-29q-35 0 -76.5 -18.5t-60.5 -49.5q-145 -264 -291 -430l-94 -94q12 -16 31.5 -48t46.5 -75l412 -723q14 -25 47.5 -46t62.5 -21v-27l-211 4q-12 0 -59 -1t-131 -3v27q20 0 40.5 14t20.5 33q0 8 -6 18l-397 731l-64 -34q4 -37 6 -71t2 -67v-557 q0 -29 26 -48t56 -19v-27l-192 4q-10 0 -54 -1t-126 -3z" />
<glyph unicode="L" horiz-adv-x="980" d="M39 2v27q29 0 57.5 20.5t28.5 46.5v1370q0 31 -25.5 49.5t-54.5 18.5v29l188 -4q10 0 54.5 1t126.5 3v-29q-31 0 -57.5 -18.5t-26.5 -49.5v-1220q0 -41 -5.5 -79t-5.5 -77q0 -25 29 -43h422q86 0 131 164h29l-47 -209h-844z" />
<glyph unicode="M" horiz-adv-x="1378" d="M4 2v27q31 0 56.5 19.5t27.5 47.5l41 1372q0 29 -28.5 47.5t-53.5 18.5v29q29 -2 59.5 -3t63.5 -1q35 0 65.5 1t57.5 3l330 -945q14 -41 31.5 -110.5t41.5 -167.5q33 141 80 270l322 953q47 -2 73.5 -3t32.5 -1t34 1t79 3v-29q-33 0 -59.5 -19.5t-24.5 -41.5l43 -1377 q0 -29 22.5 -48t57.5 -19v-27l-185 4q-10 0 -56 -1t-130 -3v27q25 0 55.5 19.5t30.5 45.5l-27 805q-2 18 -3 38.5t-1 43.5q0 53 2 120.5t5 147.5l-105 -334l-203 -587q-16 -53 -41.5 -137.5t-60.5 -200.5q-18 63 -47 147t-68 191l-258 706l-59 215l-35 -1155 q-2 -27 25.5 -46t56.5 -19v-27q-55 2 -86 3t-37 1q-8 0 -39 -1t-86 -3z" />
<glyph unicode="N" horiz-adv-x="1200" d="M14 2v27q31 0 57.5 19.5t26.5 47.5v1370q0 31 -24.5 49.5t-55.5 18.5v29q123 -6 140 -7q12 0 123 7l567 -879q33 -51 52.5 -81t23.5 -40l106 -211q-4 123 -7 211t-3 146v757q0 31 -24.5 49.5t-55.5 18.5v29q57 -2 89 -3t38 -1q8 0 38 1t85 3v-29q-29 0 -57.5 -18.5 t-28.5 -49.5v-1544q-18 33 -53 91.5t-90 142.5l-607 913q-23 29 -180 303q12 -219 12 -346v-930q0 -27 25 -47t55 -20v-27q-57 2 -89 3t-38 1q-8 0 -38.5 -1t-86.5 -3z" />
<glyph unicode="O" horiz-adv-x="1251" d="M76 801q0 195 34.5 341t108.5 243.5t190.5 145.5t282.5 48q236 0 359 -194.5t123 -563.5q0 -354 -72 -518q-66 -154 -208 -236.5t-347 -82.5q-125 0 -214 45t-146.5 143t-84 253t-26.5 376zM293 786q0 -160 21.5 -296t61.5 -236t99.5 -156.5t134.5 -56.5q160 0 250 180 t90 547q0 166 -21.5 303t-61.5 237.5t-100 156t-136 55.5q-160 0 -249 -182.5t-89 -551.5z" />
<glyph unicode="P" horiz-adv-x="1030" d="M29 2v27q31 0 59.5 19.5t28.5 47.5v1370q0 29 -25.5 48.5t-56.5 19.5v29h586q74 0 136 -34t107 -92.5t71 -135t26 -160.5v-15q-6 -450 -531 -450h-2h-117q4 -45 6 -89t2 -87v-404q0 -29 26 -48t56 -19v-27l-186 4q-10 0 -56 -1t-130 -3zM311 721h152q61 0 114.5 35 t93.5 92t62.5 129t22.5 145v4q0 80 -24.5 151t-69 125t-104.5 85t-130 31h-117q4 -41 6 -79t2 -79v-488q0 -37 -2 -73.5t-6 -77.5z" />
<glyph unicode="Q" horiz-adv-x="1241" d="M76 801q0 375 117 547q33 47 83 88t113.5 70.5t138 47t156.5 17.5q481 0 481 -750q0 -172 -18.5 -300t-56 -220t-98 -150.5t-146.5 -87.5q82 -66 129 -103.5t79.5 -58t59.5 -27.5t68 -11q-74 -27 -146 -27q-158 0 -286 191q-74 -33 -211 -33q-123 0 -210 43t-143.5 138 t-83 249t-26.5 377zM289 786q0 -158 21.5 -292t62.5 -232t99 -154.5t134 -56.5q160 0 249 177.5t89 539.5q0 164 -20.5 300t-60.5 234.5t-99 153.5t-137 55q-160 0 -249 -180t-89 -545z" />
<glyph unicode="R" horiz-adv-x="1122" d="M47 2v27q29 0 57.5 19.5t28.5 47.5v1370q0 29 -25.5 48.5t-54.5 19.5v29h584q68 0 127 -35t102 -92.5t69 -132t26 -154.5q0 -68 -20.5 -131.5t-56.5 -113.5t-86 -84t-110 -42q115 -4 187.5 -88t72.5 -225v-281q0 -133 133 -155v-27q-66 0 -127 16.5t-108 45t-75 70.5 t-28 91v320q0 33 -17 70.5t-45 70.5t-62.5 54.5t-69.5 21.5h-219q4 -39 6 -72t2 -61v-533q0 -29 24.5 -48t55.5 -19v-27q-80 2 -125 3t-55 1t-57.5 -1t-133.5 -3zM330 803h219q45 0 83 23.5t65.5 64.5t43 97t15.5 122q0 80 -22.5 153.5t-63.5 130t-98.5 90.5t-127.5 34h-114 q4 -43 6 -78t2 -66v-446q0 -29 -2 -59.5t-6 -65.5z" />
<glyph unicode="S" horiz-adv-x="882" d="M80 1217q0 74 33.5 140t91 116.5t132.5 79t157 28.5q164 0 247 -78l21 -258h-35q-6 80 -18.5 131t-37 81t-62.5 41t-95 11q-49 0 -90 -20.5t-70.5 -57t-46 -86t-16.5 -104.5q0 -166 143 -305l268 -231q144 -156 144 -353q0 -76 -35 -143.5t-92 -118.5t-131 -80.5 t-154 -29.5q-41 0 -85 8t-85 30l-158 80l-16 213h35q8 -123 88 -190.5t203 -67.5q98 0 157.5 77t59.5 194q0 193 -144 340q-74 63 -146.5 123.5t-130.5 125t-95 138t-37 166.5z" />
<glyph unicode="T" horiz-adv-x="1011" d="M55 1354l21 252h26v-4q0 -27 9.5 -33t38.5 -6h727q66 0 65 43h27l-21 -252h-26v37q0 127 -41 127h-271q6 -47 8.5 -86t2.5 -74v-1262q0 -29 25.5 -48t55.5 -19v-27h-370v27q29 0 57.5 19.5t28.5 47.5v1262q0 35 2 75t6 85h-276q-12 0 -23.5 -19.5t-22 -45.5t-16.5 -53.5 t-6 -45.5h-27z" />
<glyph unicode="U" horiz-adv-x="1095" d="M41 1534v29l184 -4q10 0 56.5 1t128.5 3v-29q-31 0 -59.5 -18.5t-28.5 -49.5v-1147q0 -51 26.5 -99t70.5 -85t100 -59.5t116 -22.5q49 0 96 17.5t83 49.5t57.5 80t21.5 109v1157q0 31 -24.5 49.5t-55.5 18.5v29q59 -2 91 -3t38 -1q8 0 38 1t83 3v-29q-31 0 -57.5 -18.5 t-26.5 -49.5v-1114q0 -90 -24.5 -157.5t-79 -112.5t-140.5 -68.5t-211 -23.5q-86 0 -159.5 23.5t-128 66.5t-85 102.5t-30.5 130.5v1153q0 31 -25.5 49.5t-54.5 18.5z" />
<glyph unicode="V" horiz-adv-x="1372" d="M20 1534v29l193 -4q10 0 54 1t122 3v-29q-61 0 -61 -41q0 -12 6 -27l368 -1112q16 -59 29.5 -113.5t24.5 -105.5q16 68 44.5 172.5t76.5 249.5l292 909q2 6 2 21q0 47 -71 47v29q61 -2 96 -3t41 -1t32.5 1t73.5 3v-29q-78 0 -96 -68l-444 -1466h-205l-469 1473 q-18 61 -109 61z" />
<glyph unicode="W" horiz-adv-x="1925" d="M25 1534v29l192 -4q10 0 54 1t122 3v-29q-61 0 -61 -41q0 -12 6 -27l369 -1112q33 -115 55 -219q14 68 43 172.5t76 249.5l59 186l-231 730q-18 61 -109 61v29l193 -4h448q6 0 32.5 1t74.5 3v-29q-78 0 -97 -68l-161 -532l192 -580q16 -59 29.5 -113.5t23.5 -105.5 q16 68 45 172.5t76 249.5l293 909q2 6 2 21q0 47 -72 47v29q61 -2 96 -3t42 -1q6 0 32.5 1t73.5 3v-29q-78 0 -96 -68l-445 -1466h-204l-189 596l-182 -596h-205l-469 1473q-18 61 -108 61zM907 1493q0 -12 6 -27l52 -157q23 -66 40 -132.5t39 -138.5q12 49 31 115t47 152 l52 161q2 7 2 21q0 47 -72 47h-135q-61 0 -62 -41z" />
<glyph unicode="X" horiz-adv-x="966" d="M6 0v27q70 0 105 67l305 637l-273 742q-23 61 -100 61v29l190 -4q10 0 54.5 1t124.5 3v-29q-66 0 -66 -39q0 -8 2 -14l101 -264l83 -269q23 55 49.5 123t65.5 146l127 258q2 6 2 16q0 18 -22.5 30.5t-44.5 12.5v29q63 -2 98 -3t43 -1q6 0 33.5 1t81.5 3v-29 q-74 0 -101 -61l-289 -596l302 -811q12 -39 92 -39v-27l-195 6q-20 0 -176 -6v27q66 0 66 41q0 8 -2 10l-105 282q-37 96 -64.5 171t-37.5 133q-20 -88 -117 -285l-137 -287q-4 -12 -4 -16q0 -20 21.5 -34.5t45.5 -14.5v-27q-111 6 -123 6q-16 0 -135 -6z" />
<glyph unicode="Y" horiz-adv-x="964" d="M0 1534v29l197 -4q10 0 53 1t121 3v-29q-18 0 -43 -17.5t-25 -39.5q2 0 19.5 -37t41 -92.5t51 -121t51 -124t39 -99t17.5 -47.5q33 100 87.5 229.5t131.5 289.5q2 6 2 16q0 18 -21.5 30.5t-45.5 12.5v29q57 -2 89 -3t40 -1q6 0 37.5 1t91.5 3v-29q-74 0 -105 -68 l-241 -553v-817q0 -29 25.5 -48t54.5 -19v-27l-183 4q-10 0 -56 -1t-132 -3v27q31 0 58.5 19.5t27.5 47.5v733l-291 670q-16 35 -92 35z" />
<glyph unicode="Z" horiz-adv-x="1015" d="M33 2q29 47 56.5 104.5t55.5 122.5l428 1008q27 63 44.5 103t32 69t28.5 52.5t37 56.5h-518q-18 0 -32.5 -7.5t-26 -26t-23 -50t-25.5 -80.5h-20l20 237h29q0 -29 26 -28h781q-29 -45 -53.5 -98.5t-53.5 -114.5l-485 -1143q-23 -41 -44.5 -81t-45.5 -79h573q68 0 113 164 h20l-16 -209h-901z" />
<glyph unicode="[" horiz-adv-x="520" d="M86 -139v1870h268v-43h-178v-1792h178v-35h-268z" />
<glyph unicode="\" horiz-adv-x="768" d="M76 1563h112l447 -1561h-107z" />
<glyph unicode="]" horiz-adv-x="593" d="M252 -104h178v1792h-178v43h268v-1870h-268v35z" />
<glyph unicode="^" horiz-adv-x="968" d="M90 1223l316 311h157l309 -311h-233l-233 225l-230 -225h-86z" />
<glyph unicode="_" horiz-adv-x="1142" d="M39 -352l162 28q39 6 268 10.5t653 4.5l-164 -29q-35 -6 -222 -10t-529 -4h-168z" />
<glyph unicode="`" horiz-adv-x="1091" d="M381 1462q0 51 68 51q41 0 88 -24l221 -115l-31 -43l-285 72q-61 18 -61 59z" />
<glyph unicode="a" horiz-adv-x="1038" d="M80 276q0 104 40 170t100.5 107t134 65.5t143 47t124 49t78.5 73.5l-6 99q-10 135 -67.5 204.5t-145.5 71.5h-8q-63 0 -100 -39t-72 -120q-18 -45 -74 -46q-75 0 -75 62q0 41 35.5 80t93 68.5t129 48t141.5 18.5q164 0 254 -88t90 -260v-678q0 -90 55 -90q45 0 84 57 q-66 -182 -190 -182q-57 0 -96 49t-39 143q-16 -49 -50 -86t-78 -61.5t-95.5 -37.5t-102.5 -13q-61 0 -115.5 22.5t-96.5 61.5t-66.5 91t-24.5 113zM281 287q0 -47 16 -90t44 -76t62.5 -52.5t73.5 -19.5q57 0 99 34t70 79t42 89t19 66q-2 100 -3.5 199t-1.5 201 q-18 -41 -61 -72t-91 -53.5t-92 -37.5t-65 -28q-53 -27 -82.5 -93t-29.5 -146z" />
<glyph unicode="b" horiz-adv-x="1032" d="M8 1495q0 8 65.5 20.5t223.5 53.5v-387q0 -53 -6 -154q80 207 297 207q358 0 358 -600q0 -139 -28.5 -255t-82 -200t-130 -131t-175.5 -47q-106 0 -221 96q-57 51 -94 52q-70 0 -121 -148v1423q0 23 -13 33t-29.5 14.5t-30 8.5t-13.5 14zM293 319q0 -45 19.5 -92t53 -85 t75.5 -62.5t89 -24.5q102 0 157.5 139.5t55.5 393.5q0 154 -13 260t-43 170.5t-74 93.5t-105 29q-47 0 -87 -23.5t-68.5 -63.5t-44 -92.5t-15.5 -107.5q0 -61 2 -95t2 -44v-264q0 -8 -2 -40t-2 -92z" />
<glyph unicode="c" horiz-adv-x="919" d="M86 584q0 133 37 255t103.5 214t159.5 146t204 54q63 0 120.5 -13t99.5 -34.5t66.5 -49.5t24.5 -58q0 -29 -14.5 -55.5t-46.5 -26.5q-20 0 -31.5 9t-24 27.5t-29 46t-42.5 64.5q-39 39 -95 39q-70 0 -127 -44t-98 -123t-63.5 -186.5t-22.5 -232.5q0 -121 21.5 -221 t62.5 -174t98.5 -114.5t128.5 -40.5q135 0 238 167l41 -18q-135 -219 -371 -219q-100 0 -181 45t-138 124t-89 186.5t-32 232.5z" />
<glyph unicode="d" horiz-adv-x="1034" d="M94 694q0 109 26.5 205t76 167t118 112t152.5 41t154.5 -46.5t111.5 -119.5q-4 41 -6 74.5t-2 56.5v241q0 23 -13.5 33t-28.5 14.5t-28.5 8.5t-13.5 14q0 8 77 24.5t212 49.5v-1434q0 -55 43 -55q16 0 53 10v-37l-209 -49q-23 -6 -37 -6q-55 0 -55 55q0 29 2 57.5t6 57.5 q-74 -172 -297 -172q-78 0 -140.5 54t-107.5 148.5t-69.5 221.5t-24.5 274zM299 754q0 -125 20.5 -247t55.5 -219.5t84 -156.5t104 -59q27 0 57.5 22.5t55 56t41 73.5t16.5 73q0 35 -4 66.5t-4 64.5v289q0 29 2 62.5t6 74.5q0 6 1 12t1 13q0 45 -24.5 93t-61.5 86t-82 62.5 t-84 24.5q-184 0 -184 -391z" />
<glyph unicode="e" horiz-adv-x="970" d="M57 580q0 133 33 254.5t95.5 215t154.5 148.5t211 55q117 0 193.5 -45t121.5 -121.5t62.5 -176t17.5 -208.5h-674q0 -96 9.5 -207.5t41 -206.5t94 -158.5t171.5 -63.5q76 0 150.5 46t121.5 121l49 -22q-135 -215 -413 -215q-98 0 -179 45t-138.5 123t-89.5 185.5 t-32 230.5zM281 778h524q-2 63 -18.5 135t-47 133.5t-74.5 101.5t-100 40q-57 0 -104 -30t-84 -84t-61.5 -129t-34.5 -167z" />
<glyph unicode="f" horiz-adv-x="665" d="M33 1100v45h106q-6 49 -6 90q0 70 25.5 127t68.5 98t102.5 63.5t127.5 22.5q191 0 209 -86q2 -6 2 -18q0 -27 -17.5 -44.5t-44.5 -17.5q-16 0 -31.5 10.5t-25.5 32.5l-27 62q-6 8 -24 8q-53 0 -84 -21.5t-47.5 -64.5t-22.5 -108.5t-12 -153.5h168v-45h-168q6 -47 6 -154 v-864q0 -53 63 -53l2 -27q-74 2 -114.5 3t-50.5 1t-54.5 -1t-122.5 -3v27q72 0 72 53v874q0 102 6 144h-106z" />
<glyph unicode="g" horiz-adv-x="1058" d="M29 -82q0 98 85 169t232 97q-39 8 -74.5 21.5t-63.5 30t-44.5 33t-16.5 32.5q0 49 160 66q-219 123 -219 403q0 96 35 182t98.5 150.5t154.5 102.5t204 38q182 0 290 -121q37 -14 72 -14q89 0 148 90q-6 -51 -16.5 -85t-28 -53.5t-44 -27.5t-69.5 -8h-2q27 -55 41 -119.5 t14 -136.5q0 -451 -475 -451q-74 0 -133 21q-41 -25 -41 -43q0 -41 92 -62q35 -8 93.5 -20t125 -29.5t135 -41t122.5 -55.5t89 -71t35 -88t-49 -97t-130 -86t-186.5 -60.5t-218.5 -22.5q-82 0 -157.5 19.5t-133 53.5t-91 81t-33.5 102zM193 -72q0 -202 255 -202h3 q168 0 270 52t102 138q0 68 -57 120t-145 79l-193 45q-236 -45 -235 -232zM264 866q0 -100 26.5 -188t72 -154.5t103.5 -105.5t122 -39q215 0 215 289q0 111 -24.5 204t-65.5 160.5t-97.5 105.5t-117.5 38q-49 0 -92.5 -23t-75 -64.5t-49 -98t-17.5 -124.5z" />
<glyph unicode="h" horiz-adv-x="987" d="M14 1495q0 8 70 22.5t219 51.5v-369q0 -18 -3 -52t-7 -87q10 43 39.5 75.5t70.5 54t90.5 33t100.5 11.5q59 0 113.5 -25.5t95.5 -68.5t65.5 -98.5t24.5 -116.5v-844q0 -53 65 -53h3v-27q-76 2 -118 3t-52 1t-52.5 -1t-117.5 -3v27q72 0 71 53v813q0 45 -17.5 89t-47 78 t-69.5 54.5t-83 20.5q-41 0 -74.5 -19.5t-57.5 -52.5t-37 -73t-13 -83q0 -39 5 -74.5t5 -78.5v-674q0 -53 66 -53v-27q-74 2 -116 3t-52 1t-52.5 -1t-119.5 -3v27q70 0 69 53v1343q0 23 -13 33t-28.5 14.5t-29 8.5t-13.5 14z" />
<glyph unicode="i" horiz-adv-x="421" d="M39 1147q0 10 75.5 25.5t213.5 50.5v-1141q0 -53 63 -53v-27q-78 2 -120 3t-52 1q-8 0 -50 -1t-118 -3v27q72 0 72 53v997q0 25 -13.5 33t-28.5 11t-28.5 7.5t-13.5 16.5zM111 1473q0 51 31.5 85.5t84.5 34.5q49 0 84 -31.5t35 -88.5t-35 -87t-84 -30q-51 0 -83.5 31.5 t-32.5 85.5z" />
<glyph unicode="j" horiz-adv-x="423" d="M-106 -322q0 10 27.5 17.5t76.5 30.5q37 16 62.5 36.5t41 50t22.5 71.5t7 102v1093q0 23 -13.5 33t-28.5 15.5t-28.5 8.5t-13.5 13q0 8 77 24.5t212 49.5v-1127q0 -84 -16.5 -146.5t-53.5 -108.5t-94 -78.5t-139 -57.5q-16 -6 -55 -21.5t-74 -15.5q-10 0 -10 10z M123 1473q0 57 33.5 88.5t83.5 31.5q49 0 83.5 -31.5t34.5 -88.5t-34.5 -87t-83.5 -30t-83 29.5t-34 87.5z" />
<glyph unicode="k" horiz-adv-x="1026" d="M43 1493q0 10 76 25.5t213 50.5v-776q0 -57 -13 -156l480 528q6 8 6 17q0 23 -37 22v27q88 -6 104 -6q14 0 125 6v-27q-41 -2 -74.5 -11t-52.5 -32l-252 -284q-6 -6 -22 -21.5t-43 -44.5q4 -8 17.5 -27.5t29.5 -52.5l334 -668q16 -34 78 -34h4v-27q-78 2 -120 3t-52 1 t-52 -1t-118 -3v27q45 0 45 22q0 4 -4 12l-258 510l-39 89q-25 -33 -48.5 -60t-47.5 -43q6 -29 8 -53.5t2 -52.5v-371q0 -53 63 -53v-27q-74 2 -114.5 3t-49.5 1q-10 0 -54 -1t-122 -3v27q72 0 72 53v1343q0 25 -13.5 33t-28.5 11.5t-28.5 7.5t-13.5 16z" />
<glyph unicode="l" horiz-adv-x="421" d="M39 1493q0 10 73.5 24.5t215.5 51.5v-1487q0 -53 63 -53v-27q-74 2 -114.5 3t-51.5 1q-10 0 -52 -1t-120 -3v27q70 0 70 53v1343q0 25 -13.5 33t-28.5 12.5t-28.5 7.5t-13.5 15z" />
<glyph unicode="m" horiz-adv-x="1406" d="M27 1147q0 10 74.5 25.5t215.5 50.5q0 -10 -3 -45t-7 -93q39 70 102.5 109t147.5 39q76 0 133.5 -41t75.5 -107q39 68 117 111t159 43q127 0 206 -86t79 -227v-844q0 -53 64 -53h2v-27q-72 2 -112 3t-50 1t-54 -1t-124 -3l2 27q70 0 69 53v813q0 55 -11 104.5t-30.5 86 t-49 58t-66.5 21.5q-63 0 -102.5 -68.5t-39.5 -170.5v-844q0 -53 64 -53l2 -27q-74 2 -115 3t-51 1t-53 -1t-121 -3l2 27q70 0 70 53v813q0 117 -40 191.5t-106 74.5q-35 0 -65.5 -19.5t-54 -52t-38 -73.5t-14.5 -84q0 -41 5 -82t5 -80v-688q0 -53 66 -53l2 -27 q-74 2 -116 3t-52 1t-52 -1t-120 -3v27q72 0 72 53v997q0 20 -13.5 30.5t-31 15.5t-30.5 9.5t-13 12.5z" />
<glyph unicode="n" horiz-adv-x="983" d="M23 1149q0 8 70.5 22.5t217.5 51.5q0 -31 -3 -73t-7 -95q20 78 98 127t181 49q70 0 129 -22.5t102 -62.5t66.5 -96.5t23.5 -123.5v-844q0 -53 66 -53h2v-27q-72 2 -112 3t-50 1t-54 -1t-124 -3v27q72 0 71 53v813q0 113 -53 186.5t-145 73.5q-41 0 -78 -17.5t-64.5 -46 t-43 -65.5t-15.5 -78q0 -45 5 -85t5 -77v-704q0 -53 66 -53v-27q-78 2 -120 3t-50 1q-10 0 -52 -1t-116 -3v27q68 0 67 53v997q0 23 -13 31t-28.5 13t-28.5 9.5t-13 16.5z" />
<glyph unicode="o" horiz-adv-x="1042" d="M86 635q0 242 43 352q25 68 76 118t115.5 84t137 51t142.5 17h1q392 0 392 -626q0 -197 -40 -324t-109.5 -199.5t-161.5 -100t-199 -27.5q-203 0 -300 155.5t-97 499.5zM291 664q0 -618 280 -619q57 0 100.5 23.5t72 83t42 160t13.5 255.5v35q0 129 -22.5 236.5 t-62.5 184.5t-95.5 120t-120.5 43q-53 0 -91 -25.5t-65 -85t-39 -161t-12 -250.5z" />
<glyph unicode="p" horiz-adv-x="1009" d="M31 1149q0 8 74.5 23.5t213.5 50.5q0 -39 -2 -78t-6 -78q37 55 70 87t67.5 48.5t73.5 20.5t86 4q78 0 141.5 -54.5t107.5 -148.5t68.5 -220t24.5 -267q0 -111 -26.5 -209.5t-75.5 -170t-117.5 -113.5t-152.5 -42q-37 0 -80 15.5t-82 43t-68 62.5t-37 76q4 -53 6 -93 t2 -71v-287q0 -53 62 -53h4v-29q-152 6 -170 6q-20 0 -170 -6v29h4q68 0 68 53v1331q0 25 -13.5 35t-30 13t-29.5 6.5t-13 15.5zM309 354q0 -47 22.5 -97t59.5 -90t82 -65.5t90 -25.5q182 0 182 399q0 125 -20 247t-56 218t-83 154.5t-103 58.5q-29 0 -59.5 -23.5t-55 -58.5 t-41 -72.5t-16.5 -68.5q0 -35 3 -70t3 -76v-282q0 -41 -4 -77t-4 -71z" />
<glyph unicode="q" horiz-adv-x="1007" d="M68 594q0 137 28.5 253t81.5 198.5t131 129t174 46.5q41 0 91.5 -22.5t96.5 -50.5t81.5 -50.5t46.5 -22.5q35 0 64.5 35t58.5 119v-1481q0 -53 63 -53h2v-29q-141 6 -158 6q-20 0 -182 -6l2 29q68 0 68 53v320q0 29 2 64.5t6 82.5q-31 -100 -110.5 -159.5t-186.5 -59.5 q-360 0 -360 598zM270 643q0 -156 14.5 -261.5t44 -171t73.5 -94t104 -28.5q45 0 85 21.5t70.5 58.5t48 85t17.5 101q0 39 -4 79t-4 83l-2 303q0 25 2 54.5t6 64.5v16q0 39 -22.5 78t-58.5 68.5t-78 48t-81 18.5q-104 0 -159.5 -140t-55.5 -384z" />
<glyph unicode="r" horiz-adv-x="735" d="M20 1147q0 10 74 25.5t215 50.5v-146q0 -27 -2 -59.5t-6 -75.5q119 299 301 299q29 0 58.5 -11t54 -29.5t40 -42t15.5 -48.5q0 -27 -20.5 -49.5t-47.5 -22.5q-45 0 -67 58q-20 47 -31.5 55t-34.5 8q-45 0 -93 -42t-87 -103.5t-64.5 -131t-25.5 -126.5q0 -41 5 -84t5 -84 v-506q0 -53 64 -53l2 -27q-78 2 -120 3t-52 1t-52 -1t-118 -3l2 27q70 0 69 53v997q0 25 -13 35t-28.5 14.5t-29 6.5t-13.5 12z" />
<glyph unicode="s" horiz-adv-x="860" d="M76 901q0 70 31.5 133.5t85 110.5t122 74.5t142.5 27.5q145 0 243 -39l19 -258h-35q-6 127 -53 174t-152 47q-41 0 -76.5 -15t-63.5 -43t-44 -64.5t-16 -77.5q0 -43 9 -79t32.5 -66.5t63.5 -59.5t101 -57q102 -49 164 -89t94.5 -80t43 -86.5t10.5 -109.5 q0 -72 -33 -137.5t-88 -115.5t-127 -80.5t-148 -30.5q-80 0 -161 28l-146 70l-16 213h35q14 -229 254 -230q41 0 80.5 16.5t71.5 44.5t51.5 65.5t19.5 78.5q0 45 -10.5 81t-36 67.5t-72.5 62.5t-121 68q-80 39 -133 74.5t-84 77.5t-44 91.5t-13 112.5z" />
<glyph unicode="t" horiz-adv-x="579" d="M-31 1139q0 14 29 25.5t94 43.5q168 92 225 344v-254q0 -29 -2 -56.5t-6 -55.5h213v-64h-213q4 -29 6 -53.5t2 -52.5v-731q0 -41 15.5 -81t41 -71t58.5 -50.5t68 -19.5q20 0 53 17q35 23 45 28t18 5q19 -1 19 -17t-20.5 -33.5t-51.5 -32t-65.5 -23.5t-63.5 -9 q-72 0 -130 23.5t-100 64.5t-65.5 99.5t-23.5 127.5v709q0 27 2 51.5t6 48.5h-115q-39 0 -39 17z" />
<glyph unicode="u" horiz-adv-x="1005" d="M20 1149q0 8 76 24.5t211 49.5v-889q0 -119 56.5 -192.5t142.5 -73.5q39 0 75.5 15t64.5 43t44.5 64.5t16.5 79.5q0 39 -5.5 79t-5.5 81v649q0 25 -13 34t-29.5 13t-30 7.5t-13.5 15.5q0 8 77 23.5t212 50.5v-1088q0 -55 43 -55q8 0 55 10v-37l-209 -49q-23 -6 -38 -6 q-53 0 -54 55q0 25 2 52.5t7 56.5q-29 -82 -106 -126t-173 -44q-68 0 -127 22.5t-102 63.5t-68 98t-25 129v774q0 20 -13 30.5t-28.5 15.5t-29 9.5t-13.5 14.5z" />
<glyph unicode="v" horiz-adv-x="925" d="M-2 1202v27l180 -6q16 0 162 6l-2 -27q-47 0 -47 -31q0 -4 1 -9t3 -13l160 -561q10 -35 26.5 -98.5t36.5 -155.5q0 29 21.5 91t52.5 161l182 569q4 12 4 19q0 29 -49 28v27q14 0 48 -3t50 -3t47 3t50 3v-27q-66 0 -82 -53l-361 -1149h-26l-377 1157q-16 45 -80 45z" />
<glyph unicode="w" horiz-adv-x="1355" d="M-4 1202v27q154 -6 170 -6q18 0 170 6v-27q-49 0 -49 -28q0 -6 2 -11l172 -598q10 -33 24.5 -95t32.5 -157q14 82 32.5 144.5t33.5 105.5l63 203l-129 391q-16 45 -80 45v27q154 -6 172 -6q16 0 170 6v-27q-49 0 -49 -31q0 -4 1 -9t3 -13l172 -592q16 -59 28.5 -118.5 t22.5 -123.5q10 53 25.5 112.5t38.5 129.5l190 600q4 16 5 23q0 23 -46 22h-4v27q16 0 47 -3t46 -3q18 0 52 3t52 3v-27q-66 0 -76 -41l-366 -1161h-27l-158 485q-20 61 -32.5 112.5t-22.5 92.5q-4 -25 -17.5 -74t-35.5 -127l-150 -489h-26l-375 1149q-18 53 -82 53z" />
<glyph unicode="x" horiz-adv-x="901" d="M-4 0v27q80 0 102 39l293 485l-289 598q-25 53 -84 53v27l191 -6q18 0 158 6v-27q-51 0 -52 -28q0 -16 12.5 -45t31 -66t41 -80t44.5 -86l70 -164l88 164l160 258q6 8 6 19q0 28 -51 28h-4v27q94 -6 104 -6t88 6v-27q-55 0 -88 -51l-270 -463l293 -608q25 -53 75 -53h5 v-27q-145 6 -158 6q-18 0 -166 -6v27q39 0 39 20q0 6 -2 8l-139 285l-68 160q-10 -16 -33.5 -57.5t-58.5 -104.5l-158 -277q-4 -8 -4 -12q0 -23 37 -22l2 -27q-98 6 -113 6q-10 0 -102 -6z" />
<glyph unicode="y" horiz-adv-x="937" d="M4 -289q0 61 70 62q14 0 28.5 -8.5t28.5 -17.5t24.5 -18.5t16.5 -9.5q10 -4 16.5 -4h14.5q53 0 107.5 65.5t92.5 196.5l37 129l-344 1043q-18 53 -82 53v27q154 -6 172 -6t170 6l-2 -27q-49 0 -49 -26q0 -8 2 -13l170 -565q20 -68 32.5 -133.5t20.5 -130.5q12 76 72 258 l189 563q4 12 4 19q0 29 -47 28l-3 27q88 -6 101 -6q8 0 94 6v-27q-66 0 -78 -45l-375 -1165q-20 -63 -47.5 -127t-69.5 -115t-101.5 -83t-143.5 -32q-57 0 -89 19.5t-32 56.5z" />
<glyph unicode="z" horiz-adv-x="911" d="M41 2q10 23 34.5 67t57.5 109l418 875q6 20 70 131h-420q-18 0 -31.5 -6.5t-26 -24.5t-23.5 -51t-26 -84h-18l18 242h33q0 -31 31 -31h682q-14 -23 -38 -69t-61 -118l-387 -813q-8 -16 -31.5 -62t-62.5 -120h434q68 0 111 164h18l-16 -209h-766z" />
<glyph unicode="{" horiz-adv-x="710" d="M201 600v53q98 16 142 88t44 228q0 20 -2 69t-5 104.5t-5 106.5t-2 76q0 209 76.5 316.5t240.5 140.5v-45q-195 -68 -194 -293q0 -23 4 -76t10 -113.5t10 -116t4 -81.5q0 -301 -252 -426q252 -135 252 -432q0 -29 -4 -84.5t-10 -114.5t-10 -112.5t-4 -75.5 q0 -229 194 -297v-41q-168 31 -242.5 137t-74.5 319q0 25 2 76t5 106.5t5 103.5t2 69q0 154 -43 226.5t-143 88.5z" />
<glyph unicode="|" horiz-adv-x="425" d="M152 -209v1903h75v-1903h-75z" />
<glyph unicode="}" horiz-adv-x="788" d="M201 -485q193 68 192 297q0 23 -4 76t-10 112t-10 114.5t-4 84.5q0 297 253 432q-254 125 -253 426q0 27 4 82t10 115.5t10 113.5t4 76q0 225 -192 293v45q164 -33 239.5 -140.5t75.5 -316.5q0 -25 -2 -76t-5 -106.5t-5 -104.5t-2 -69q0 -156 45 -227.5t143 -88.5v-53 q-100 -16 -144 -89t-44 -226q0 -20 2 -68.5t5 -104t5 -106.5t2 -76q0 -213 -74.5 -319.5t-240.5 -136.5v41z" />
<glyph unicode="&#xa1;" horiz-adv-x="610" d="M127 72q0 29 18.5 89t24.5 130l18 180q10 98 18.5 217t18.5 256l21 287h61q14 -135 23.5 -241.5t17.5 -195.5t14.5 -166t14.5 -153q23 -205 46 -300.5t23 -111.5q0 -51 -44 -78.5t-107 -27.5q-68 0 -118 30.5t-50 84.5zM156 1507q0 55 35.5 86t82.5 31q49 0 83 -31 t34 -86q0 -57 -33.5 -89t-83.5 -32q-53 0 -85.5 35t-32.5 86z" />
<glyph unicode="&#xa2;" horiz-adv-x="972" d="M102 944q0 88 31 167t87 139.5t134 99.5t174 49v168h68v-164h4q57 0 108.5 -12.5t90.5 -30t61.5 -37.5t22.5 -39q0 -39 -54 -39q-18 0 -34 10l-19 23q-10 31 -58 59.5t-108 28.5q-10 0 -14 -2v-782q6 -2 22 -2q133 0 232 120l37 -12q-102 -129 -291 -153v-162h-68v157 q-94 0 -173 32t-135 87.5t-87 131t-31 163.5zM315 967q0 -66 15.5 -127.5t44 -111.5t67.5 -86t86 -50v762q-47 -16 -87 -52t-67.5 -86.5t-43 -115t-15.5 -133.5z" />
<glyph unicode="&#xa5;" horiz-adv-x="1021" d="M0 1534v29l197 -4q10 0 53 1t121 3v-29q-18 0 -43 -17.5t-25 -39.5q2 0 19.5 -37t41 -92.5t51 -121t51 -124t39 -99t17.5 -47.5q33 100 87.5 229.5t131.5 289.5q2 6 2 16q0 18 -21.5 30.5t-45.5 12.5v29q57 -2 89 -3t40 -1q6 0 37.5 1t91.5 3v-29q-74 0 -105 -68 l-241 -553v-290h239v-93h-239v-188h239v-92h-239v-154q0 -29 25.5 -48t54.5 -19v-27l-183 4q-10 0 -56 -1t-132 -3v27q31 0 58.5 19.5t27.5 47.5v154h-248v92h248v188h-248v93h248v206l-291 670q-16 35 -92 35z" />
<glyph unicode="&#xa8;" horiz-adv-x="1001" d="M373 1436q0 51 31.5 78.5t76.5 27.5q43 0 76 -27.5t33 -78.5t-33 -80t-76 -29q-45 0 -76.5 28.5t-31.5 80.5zM668 1436q0 51 31.5 78.5t76.5 27.5t77 -27.5t32 -78.5t-32 -80t-77 -29t-76.5 28.5t-31.5 80.5z" />
<glyph unicode="&#xa9;" horiz-adv-x="1339" d="M23 653q0 135 52 255t141 209t209 141.5t255 52.5t255 -52.5t210 -141.5t142 -209t52 -255t-52 -254.5t-142 -209t-210 -141.5t-255 -52t-255 52t-209 141.5t-141 209t-52 254.5zM86 653q0 -123 47 -231.5t127 -189t188.5 -127t231.5 -46.5t230.5 47.5t189.5 129t129 189 t47 228.5q0 123 -47 230.5t-129 189.5t-189.5 129t-230.5 47t-231.5 -47t-188.5 -128t-127 -189.5t-47 -231.5zM256 621q0 4 4 27.5t12 66.5v53q0 14 4 27q117 322 453 321q49 0 98.5 -9t87 -25.5t62 -40t24.5 -50.5q0 -43 -45 -43q-25 0 -50 19.5t-54 43t-59.5 43 t-63.5 19.5q-84 0 -137 -51t-84 -122t-42 -145.5t-11 -119.5q0 -14 9 -44t11 -44q4 -61 27.5 -114.5t61.5 -94.5t88 -64.5t112 -23.5q49 0 109.5 31.5t95.5 72.5q4 -2 10 -3t10 -5q-6 -29 -41 -55.5t-82 -49t-98 -35.5t-90 -13q-43 0 -94.5 9t-102.5 31.5t-96 60.5t-76 97 l-22 94q-31 76 -31 136z" />
<glyph unicode="&#xab;" horiz-adv-x="897" d="M78 752l268 270l152 41l-279 -279l270 -270l-137 -35zM373 752l268 270l152 41l-279 -279l270 -270l-137 -35z" />
<glyph unicode="&#xad;" horiz-adv-x="714" d="M106 741v109h529v-109h-529z" />
<glyph unicode="&#xae;" horiz-adv-x="833" d="M70 1227q0 72 27.5 135t75.5 110.5t110.5 75t132.5 27.5t133 -27.5t110.5 -76t76 -111.5t28.5 -133t-27.5 -133.5t-75 -110.5t-111 -75.5t-134.5 -28.5q-72 0 -134.5 27.5t-109.5 74.5t-74.5 110.5t-27.5 135.5zM100 1227q0 -63 25 -120.5t68 -100.5t100 -68t123 -25 q63 0 120.5 25t100.5 68t67.5 100.5t24.5 120.5t-24.5 120.5t-67.5 100.5t-100.5 67.5t-120.5 24.5q-66 0 -123 -24.5t-100 -67.5t-68 -100.5t-25 -120.5zM258 1020v10q29 0 29 29v364q0 27 -27 27v10h197q113 0 112 -96q0 -76 -86 -109q45 -8 58.5 -41.5t17.5 -72.5 t11.5 -72t37.5 -39v-10q-82 0 -102 59l-21 111q-12 57 -57 57h-72v-188q0 -29 27 -29v-10q-16 0 -30.5 1t-30.5 1t-32 -1t-32 -1zM356 1268h80q64 0 64 80q0 96 -109 96h-35v-176z" />
<glyph unicode="&#xb4;" horiz-adv-x="526" d="M528 1374l222 115q49 25 88 24q69 0 69 -51q0 -41 -63 -59l-283 -72z" />
<glyph unicode="&#xb8;" horiz-adv-x="1075" d="M676 -346q78 0 126 40t48 103q0 47 -26.5 79t-69.5 32l30 115l78 8l-35 -92q72 0 109 -29t37 -82q0 -43 -24.5 -81t-66.5 -65.5t-95.5 -43t-110.5 -15.5v31z" />
<glyph unicode="&#xbb;" horiz-adv-x="1013" d="M156 477l278 275l-270 270l137 37l274 -275l-268 -270zM494 477l278 275l-270 270l137 37l274 -275l-268 -270z" />
<glyph unicode="&#xbf;" horiz-adv-x="919" d="M80 336q0 119 115 268l208 240q113 127 113 215q0 39 -82 203l60 18l143 -272q14 -29 14 -66q0 -41 -27.5 -89t-69.5 -101.5t-90 -108.5t-90 -108.5t-70 -104.5t-28 -94q0 -45 18.5 -88t50.5 -76t77 -52.5t100 -19.5q139 0 250 140l43 -50q-29 -37 -72 -66.5t-94 -51 t-108.5 -32.5t-114.5 -11q-82 0 -146.5 24.5t-108.5 65.5t-67.5 97.5t-23.5 119.5zM328 1491q0 57 33.5 88t82.5 31t84 -31t35 -88q0 -55 -34.5 -87t-84.5 -32q-49 0 -82.5 32t-33.5 87z" />
<glyph unicode="&#xc0;" d="M14 0v27q72 0 90 53l461 1429l-16 52q45 -2 70.5 -3.5t29.5 -1.5t31 1.5t72 3.5l477 -1487q16 -47 102 -47v-27q-160 6 -182 6q-20 0 -188 -6v27q66 0 65 39q0 8 -2 14l-57 168q-10 29 -17.5 56.5t-11.5 57.5h-672q-2 -10 -8 -39.5t-20 -78.5l-54 -160v-12q0 -45 76 -45 v-27q-117 6 -133 6q-14 0 -113 -6zM281 408h643q-14 27 -56 139l-100 303q-25 70 -47.5 135.5t-44 134t-43 144t-41.5 168.5q-29 -135 -70 -277.5t-90 -296.5l-96 -299q-4 -16 -18.5 -54t-36.5 -97zM469 1796q0 51 68 51q41 0 88 -24l221 -115l-31 -43l-285 72 q-61 18 -61 59z" />
<glyph unicode="&#xc1;" d="M14 0v27q72 0 90 53l461 1429l-16 52q45 -2 70.5 -3.5t29.5 -1.5t31 1.5t72 3.5l477 -1487q16 -47 102 -47v-27q-160 6 -182 6q-20 0 -188 -6v27q66 0 65 39q0 8 -2 14l-57 168q-10 29 -17.5 56.5t-11.5 57.5h-672q-2 -10 -8 -39.5t-20 -78.5l-54 -160v-12q0 -45 76 -45 v-27q-117 6 -133 6q-14 0 -113 -6zM281 408h643q-14 27 -56 139l-100 303q-25 70 -47.5 135.5t-44 134t-43 144t-41.5 168.5q-29 -135 -70 -277.5t-90 -296.5l-96 -299q-4 -16 -18.5 -54t-36.5 -97zM475 1708l222 115q49 25 88 24q69 0 69 -51q0 -41 -63 -59l-283 -72z" />
<glyph unicode="&#xc2;" d="M14 0v27q72 0 90 53l461 1429l-16 52q45 -2 70.5 -3.5t29.5 -1.5t31 1.5t72 3.5l477 -1487q16 -47 102 -47v-27q-160 6 -182 6q-20 0 -188 -6v27q66 0 65 39q0 8 -2 14l-57 168q-10 29 -17.5 56.5t-11.5 57.5h-672q-2 -10 -8 -39.5t-20 -78.5l-54 -160v-12q0 -45 76 -45 v-27q-117 6 -133 6q-14 0 -113 -6zM281 408h643q-14 27 -56 139l-100 303q-25 70 -47.5 135.5t-44 134t-43 144t-41.5 168.5q-29 -135 -70 -277.5t-90 -296.5l-96 -299q-4 -16 -18.5 -54t-36.5 -97zM441 1704q0 47 61 76l156 72l155 -72q62 -29 62 -76q0 -31 -39 -31 q-35 0 -94 41l-84 68l-86 -68q-27 -23 -51.5 -31t-40.5 -10q-39 0 -39 31z" />
<glyph unicode="&#xc3;" d="M14 0v27q72 0 90 53l461 1429l-16 52q45 -2 70.5 -3.5t29.5 -1.5t31 1.5t72 3.5l477 -1487q16 -47 102 -47v-27q-160 6 -182 6q-20 0 -188 -6v27q66 0 65 39q0 8 -2 14l-57 168q-10 29 -17.5 56.5t-11.5 57.5h-672q-2 -10 -8 -39.5t-20 -78.5l-54 -160v-12q0 -45 76 -45 v-27q-117 6 -133 6q-14 0 -113 -6zM281 408h643q-14 27 -56 139l-100 303q-25 70 -47.5 135.5t-44 134t-43 144t-41.5 168.5q-29 -135 -70 -277.5t-90 -296.5l-96 -299q-4 -16 -18.5 -54t-36.5 -97zM389 1675q6 70 51 118t115 48q23 0 64 -17t83 -38.5t76.5 -39t44.5 -17.5 q53 0 70 116h35q0 -35 -14.5 -65.5t-37 -54t-53 -37t-63.5 -13.5q-25 0 -64 17.5t-77.5 39t-70.5 39t-42 17.5q-51 0 -82 -113h-35z" />
<glyph unicode="&#xc4;" d="M14 0v27q72 0 90 53l461 1429l-16 52q45 -2 70.5 -3.5t29.5 -1.5t31 1.5t72 3.5l477 -1487q16 -47 102 -47v-27q-160 6 -182 6q-20 0 -188 -6v27q66 0 65 39q0 8 -2 14l-57 168q-10 29 -17.5 56.5t-11.5 57.5h-672q-2 -10 -8 -39.5t-20 -78.5l-54 -160v-12q0 -45 76 -45 v-27q-117 6 -133 6q-14 0 -113 -6zM281 408h643q-14 27 -56 139l-100 303q-25 70 -47.5 135.5t-44 134t-43 144t-41.5 168.5q-29 -135 -70 -277.5t-90 -296.5l-96 -299q-4 -16 -18.5 -54t-36.5 -97zM402 1770q0 51 31.5 78.5t76.5 27.5q43 0 76 -27.5t33 -78.5t-33 -80 t-76 -29q-45 0 -76.5 28.5t-31.5 80.5zM697 1770q0 51 31.5 78.5t76.5 27.5t77 -27.5t32 -78.5t-32 -80t-77 -29t-76.5 28.5t-31.5 80.5z" />
<glyph unicode="&#xc5;" d="M14 0v27q72 0 90 53l461 1429l-16 52q45 -2 70.5 -3.5t29.5 -1.5t31 1.5t72 3.5l477 -1487q16 -47 102 -47v-27q-160 6 -182 6q-20 0 -188 -6v27q66 0 65 39q0 8 -2 14l-57 168q-10 29 -17.5 56.5t-11.5 57.5h-672q-2 -10 -8 -39.5t-20 -78.5l-54 -160v-12q0 -45 76 -45 v-27q-117 6 -133 6q-14 0 -113 -6zM281 408h643q-14 27 -56 139l-100 303q-25 70 -47.5 135.5t-44 134t-43 144t-41.5 168.5q-29 -135 -70 -277.5t-90 -296.5l-96 -299q-4 -16 -18.5 -54t-36.5 -97zM475 1747q0 59 52 94t130 35q74 0 127 -34t53 -95q0 -63 -53 -97t-127 -34 q-80 0 -131 36t-51 95zM524 1747q0 -41 37 -68.5t96 -27.5q55 0 95 25.5t40 70.5t-40 70.5t-95 25.5t-94 -27.5t-39 -68.5z" />
<glyph unicode="&#xc6;" d="M25 0v27q72 0 94 53l459 1429l-52 54q57 -2 113.5 -3t114.5 -1q25 0 79 1t113.5 1t113.5 1t81 1l16 -209h-18q-14 49 -25.5 80.5t-23 50t-25.5 26t-33 7.5h-215v-900h174q70 0 70 121h24v-295h-24q0 129 -70 129h-174v-477q0 -49 68 -49h254q18 0 31.5 7t24.5 25.5 t22.5 50.5t25.5 81h21l-17 -209l-334 -2q-33 0 -85 1t-128 1h-174v27q29 0 54.5 17t25.5 46v481h-254q-80 -254 -118.5 -384t-38.5 -140q0 -23 75 -22v-27q-117 6 -131 6q-16 0 -114 -6zM367 618h239v750z" />
<glyph unicode="&#xc7;" horiz-adv-x="1214" d="M74 801q0 178 43 320.5t126 241.5t203.5 151.5t276.5 52.5q121 0 231 -99l41 -41q27 -29 43 -28q37 0 37 47h27l22 -307h-28q-23 78 -64 146.5t-95 118.5t-116.5 78.5t-128.5 28.5q-90 0 -163.5 -58t-126 -157.5t-82 -231.5t-29.5 -278q0 -135 30.5 -266t85 -235.5 t128 -168t161.5 -63.5q76 0 154 36t141.5 93.5t103.5 131t40 151.5h26l-20 -307h-29v6q0 25 -22 24q-10 0 -36 -21.5t-75 -62.5q-72 -47 -147.5 -74.5t-159.5 -33.5l-25 -74q70 0 108 -29.5t38 -82.5q0 -43 -25 -80t-67 -64.5t-95 -43t-110 -15.5v31q78 0 125 39.5t47 103.5 q0 47 -26 77.5t-69 30.5l25 105q-524 18 -524 807z" />
<glyph unicode="&#xc8;" horiz-adv-x="1015" d="M25 2v27q31 0 59.5 20.5t28.5 46.5v1370q0 29 -27 48.5t-57 19.5v29h821l16 -209h-18q-29 100 -49.5 132t-57.5 32h-436q4 -47 6 -90.5t2 -77.5v-420q0 -29 -2 -58.5t-6 -64.5h395q66 0 66 106v17h27l22 -295h-27q-10 129 -77 129h-406q4 -37 6 -65.5t2 -51.5v-442 q0 -29 -4 -57.5t-4 -59.5q0 -41 70 -41h473q18 0 31.5 7t24.5 25.5t22.5 50.5t25.5 81h19l-17 -209h-929zM326 1796q0 51 68 51q41 0 88 -24l221 -115l-31 -43l-285 72q-61 18 -61 59z" />
<glyph unicode="&#xc9;" horiz-adv-x="1015" d="M25 2v27q31 0 59.5 20.5t28.5 46.5v1370q0 29 -27 48.5t-57 19.5v29h821l16 -209h-18q-29 100 -49.5 132t-57.5 32h-436q4 -47 6 -90.5t2 -77.5v-420q0 -29 -2 -58.5t-6 -64.5h395q66 0 66 106v17h27l22 -295h-27q-10 129 -77 129h-406q4 -37 6 -65.5t2 -51.5v-442 q0 -29 -4 -57.5t-4 -59.5q0 -41 70 -41h473q18 0 31.5 7t24.5 25.5t22.5 50.5t25.5 81h19l-17 -209h-929zM325 1708l222 115q49 25 88 24q69 0 69 -51q0 -41 -63 -59l-283 -72z" />
<glyph unicode="&#xca;" horiz-adv-x="1015" d="M25 2v27q31 0 59.5 20.5t28.5 46.5v1370q0 29 -27 48.5t-57 19.5v29h821l16 -209h-18q-29 100 -49.5 132t-57.5 32h-436q4 -47 6 -90.5t2 -77.5v-420q0 -29 -2 -58.5t-6 -64.5h395q66 0 66 106v17h27l22 -295h-27q-10 129 -77 129h-406q4 -37 6 -65.5t2 -51.5v-442 q0 -29 -4 -57.5t-4 -59.5q0 -41 70 -41h473q18 0 31.5 7t24.5 25.5t22.5 50.5t25.5 81h19l-17 -209h-929zM297 1704q0 47 61 76l156 72l155 -72q62 -29 62 -76q0 -31 -39 -31q-35 0 -94 41l-84 68l-86 -68q-27 -23 -51.5 -31t-40.5 -10q-39 0 -39 31z" />
<glyph unicode="&#xcb;" horiz-adv-x="1015" d="M25 2v27q31 0 59.5 20.5t28.5 46.5v1370q0 29 -27 48.5t-57 19.5v29h821l16 -209h-18q-29 100 -49.5 132t-57.5 32h-436q4 -47 6 -90.5t2 -77.5v-420q0 -29 -2 -58.5t-6 -64.5h395q66 0 66 106v17h27l22 -295h-27q-10 129 -77 129h-406q4 -37 6 -65.5t2 -51.5v-442 q0 -29 -4 -57.5t-4 -59.5q0 -41 70 -41h473q18 0 31.5 7t24.5 25.5t22.5 50.5t25.5 81h19l-17 -209h-929zM258 1770q0 51 31.5 78.5t76.5 27.5q43 0 76 -27.5t33 -78.5t-33 -80t-76 -29q-45 0 -76.5 28.5t-31.5 80.5zM553 1770q0 51 31.5 78.5t76.5 27.5t77 -27.5t32 -78.5 t-32 -80t-77 -29t-76.5 28.5t-31.5 80.5z" />
<glyph unicode="&#xcc;" horiz-adv-x="428" d="M31 1796q0 51 68 51q41 0 88 -24l221 -115l-31 -43l-285 72q-61 18 -61 59zM35 0v27q31 0 58.5 19.5t27.5 47.5v1372q0 31 -25.5 49.5t-54.5 18.5v29q78 -2 122 -3t54 -1t58.5 1t136.5 3v-29q-31 0 -59.5 -18.5t-28.5 -49.5v-1372q0 -29 25.5 -48t56.5 -19v-27l-187 6 q-23 0 -184 -6z" />
<glyph unicode="&#xcd;" horiz-adv-x="428" d="M30 1708l222 115q49 25 88 24q69 0 69 -51q0 -41 -63 -59l-283 -72zM35 0v27q31 0 58.5 19.5t27.5 47.5v1372q0 31 -25.5 49.5t-54.5 18.5v29q78 -2 122 -3t54 -1t58.5 1t136.5 3v-29q-31 0 -59.5 -18.5t-28.5 -49.5v-1372q0 -29 25.5 -48t56.5 -19v-27l-187 6 q-23 0 -184 -6z" />
<glyph unicode="&#xce;" horiz-adv-x="428" d="M4 1704q0 47 61 76l156 72l155 -72q62 -29 62 -76q0 -31 -39 -31q-35 0 -94 41l-84 68l-86 -68q-27 -23 -51.5 -31t-40.5 -10q-39 0 -39 31zM35 0v27q31 0 58.5 19.5t27.5 47.5v1372q0 31 -25.5 49.5t-54.5 18.5v29q78 -2 122 -3t54 -1t58.5 1t136.5 3v-29 q-31 0 -59.5 -18.5t-28.5 -49.5v-1372q0 -29 25.5 -48t56.5 -19v-27l-187 6q-23 0 -184 -6z" />
<glyph unicode="&#xcf;" horiz-adv-x="428" d="M-37 1770q0 51 31.5 78.5t76.5 27.5q43 0 76 -27.5t33 -78.5t-33 -80t-76 -29q-45 0 -76.5 28.5t-31.5 80.5zM35 0v27q31 0 58.5 19.5t27.5 47.5v1372q0 31 -25.5 49.5t-54.5 18.5v29q78 -2 122 -3t54 -1t58.5 1t136.5 3v-29q-31 0 -59.5 -18.5t-28.5 -49.5v-1372 q0 -29 25.5 -48t56.5 -19v-27l-187 6q-23 0 -184 -6zM258 1770q0 51 31.5 78.5t76.5 27.5t77 -27.5t32 -78.5t-32 -80t-77 -29t-76.5 28.5t-31.5 80.5z" />
<glyph unicode="&#xd1;" horiz-adv-x="1200" d="M14 2v27q31 0 57.5 19.5t26.5 47.5v1370q0 31 -24.5 49.5t-55.5 18.5v29q123 -6 140 -7q12 0 123 7l567 -879q33 -51 52.5 -81t23.5 -40l106 -211q-4 123 -7 211t-3 146v757q0 31 -24.5 49.5t-55.5 18.5v29q57 -2 89 -3t38 -1q8 0 38 1t85 3v-29q-29 0 -57.5 -18.5 t-28.5 -49.5v-1544q-18 33 -53 91.5t-90 142.5l-607 913q-23 29 -180 303q12 -219 12 -346v-930q0 -27 25 -47t55 -20v-27q-57 2 -89 3t-38 1q-8 0 -38.5 -1t-86.5 -3zM338 1675q6 70 51 118t115 48q23 0 64 -17t83 -38.5t76.5 -39t44.5 -17.5q53 0 70 116h35 q0 -35 -14.5 -65.5t-37 -54t-53 -37t-63.5 -13.5q-25 0 -64 17.5t-77.5 39t-70.5 39t-42 17.5q-51 0 -82 -113h-35z" />
<glyph unicode="&#xd2;" horiz-adv-x="1251" d="M76 801q0 195 34.5 341t108.5 243.5t190.5 145.5t282.5 48q236 0 359 -194.5t123 -563.5q0 -354 -72 -518q-66 -154 -208 -236.5t-347 -82.5q-125 0 -214 45t-146.5 143t-84 253t-26.5 376zM293 786q0 -160 21.5 -296t61.5 -236t99.5 -156.5t134.5 -56.5q160 0 250 180 t90 547q0 166 -21.5 303t-61.5 237.5t-100 156t-136 55.5q-160 0 -249 -182.5t-89 -551.5zM436 1796q0 51 68 51q41 0 88 -24l221 -115l-31 -43l-285 72q-61 18 -61 59z" />
<glyph unicode="&#xd3;" horiz-adv-x="1251" d="M76 801q0 195 34.5 341t108.5 243.5t190.5 145.5t282.5 48q236 0 359 -194.5t123 -563.5q0 -354 -72 -518q-66 -154 -208 -236.5t-347 -82.5q-125 0 -214 45t-146.5 143t-84 253t-26.5 376zM293 786q0 -160 21.5 -296t61.5 -236t99.5 -156.5t134.5 -56.5q160 0 250 180 t90 547q0 166 -21.5 303t-61.5 237.5t-100 156t-136 55.5q-160 0 -249 -182.5t-89 -551.5zM444 1708l222 115q49 25 88 24q69 0 69 -51q0 -41 -63 -59l-283 -72z" />
<glyph unicode="&#xd4;" horiz-adv-x="1251" d="M76 801q0 195 34.5 341t108.5 243.5t190.5 145.5t282.5 48q236 0 359 -194.5t123 -563.5q0 -354 -72 -518q-66 -154 -208 -236.5t-347 -82.5q-125 0 -214 45t-146.5 143t-84 253t-26.5 376zM293 786q0 -160 21.5 -296t61.5 -236t99.5 -156.5t134.5 -56.5q160 0 250 180 t90 547q0 166 -21.5 303t-61.5 237.5t-100 156t-136 55.5q-160 0 -249 -182.5t-89 -551.5zM410 1704q0 47 61 76l156 72l155 -72q62 -29 62 -76q0 -31 -39 -31q-35 0 -94 41l-84 68l-86 -68q-27 -23 -51.5 -31t-40.5 -10q-39 0 -39 31z" />
<glyph unicode="&#xd5;" horiz-adv-x="1251" d="M76 801q0 195 34.5 341t108.5 243.5t190.5 145.5t282.5 48q236 0 359 -194.5t123 -563.5q0 -354 -72 -518q-66 -154 -208 -236.5t-347 -82.5q-125 0 -214 45t-146.5 143t-84 253t-26.5 376zM293 786q0 -160 21.5 -296t61.5 -236t99.5 -156.5t134.5 -56.5q160 0 250 180 t90 547q0 166 -21.5 303t-61.5 237.5t-100 156t-136 55.5q-160 0 -249 -182.5t-89 -551.5zM356 1675q6 70 51 118t115 48q23 0 64 -17t83 -38.5t76.5 -39t44.5 -17.5q53 0 70 116h35q0 -35 -14.5 -65.5t-37 -54t-53 -37t-63.5 -13.5q-25 0 -64 17.5t-77.5 39t-70.5 39 t-42 17.5q-51 0 -82 -113h-35z" />
<glyph unicode="&#xd6;" horiz-adv-x="1251" d="M76 801q0 195 34.5 341t108.5 243.5t190.5 145.5t282.5 48q236 0 359 -194.5t123 -563.5q0 -354 -72 -518q-66 -154 -208 -236.5t-347 -82.5q-125 0 -214 45t-146.5 143t-84 253t-26.5 376zM293 786q0 -160 21.5 -296t61.5 -236t99.5 -156.5t134.5 -56.5q160 0 250 180 t90 547q0 166 -21.5 303t-61.5 237.5t-100 156t-136 55.5q-160 0 -249 -182.5t-89 -551.5zM373 1770q0 51 31.5 78.5t76.5 27.5q43 0 76 -27.5t33 -78.5t-33 -80t-76 -29q-45 0 -76.5 28.5t-31.5 80.5zM668 1770q0 51 31.5 78.5t76.5 27.5t77 -27.5t32 -78.5t-32 -80 t-77 -29t-76.5 28.5t-31.5 80.5z" />
<glyph unicode="&#xd8;" horiz-adv-x="1294" d="M78 801q0 326 82 489q66 129 203 209t329 80q238 0 361 -198t123 -560q0 -221 -34 -378.5t-107.5 -260t-193.5 -150.5t-292 -48q-123 0 -212 44t-146.5 141t-85 253t-27.5 379zM295 786q0 -334 86 -544l467 1118q-80 160 -215 160q-80 0 -142.5 -51.5t-106.5 -146.5 t-66.5 -230.5t-22.5 -305.5zM420 166q80 -125 192 -125q80 0 143.5 49t106.5 143.5t65.5 229.5t22.5 305q0 147 -15 272t-50 230z" />
<glyph unicode="&#xd9;" horiz-adv-x="1095" d="M41 1534v29l184 -4q10 0 56.5 1t128.5 3v-29q-31 0 -59.5 -18.5t-28.5 -49.5v-1147q0 -51 26.5 -99t70.5 -85t100 -59.5t116 -22.5q49 0 96 17.5t83 49.5t57.5 80t21.5 109v1157q0 31 -24.5 49.5t-55.5 18.5v29q59 -2 91 -3t38 -1q8 0 38 1t83 3v-29q-31 0 -57.5 -18.5 t-26.5 -49.5v-1114q0 -90 -24.5 -157.5t-79 -112.5t-140.5 -68.5t-211 -23.5q-86 0 -159.5 23.5t-128 66.5t-85 102.5t-30.5 130.5v1153q0 31 -25.5 49.5t-54.5 18.5zM367 1796q0 51 68 51q41 0 88 -24l221 -115l-31 -43l-285 72q-61 18 -61 59z" />
<glyph unicode="&#xda;" horiz-adv-x="1095" d="M41 1534v29l184 -4q10 0 56.5 1t128.5 3v-29q-31 0 -59.5 -18.5t-28.5 -49.5v-1147q0 -51 26.5 -99t70.5 -85t100 -59.5t116 -22.5q49 0 96 17.5t83 49.5t57.5 80t21.5 109v1157q0 31 -24.5 49.5t-55.5 18.5v29q59 -2 91 -3t38 -1q8 0 38 1t83 3v-29q-31 0 -57.5 -18.5 t-26.5 -49.5v-1114q0 -90 -24.5 -157.5t-79 -112.5t-140.5 -68.5t-211 -23.5q-86 0 -159.5 23.5t-128 66.5t-85 102.5t-30.5 130.5v1153q0 31 -25.5 49.5t-54.5 18.5zM366 1708l222 115q49 25 88 24q69 0 69 -51q0 -41 -63 -59l-283 -72z" />
<glyph unicode="&#xdb;" horiz-adv-x="1095" d="M41 1534v29l184 -4q10 0 56.5 1t128.5 3v-29q-31 0 -59.5 -18.5t-28.5 -49.5v-1147q0 -51 26.5 -99t70.5 -85t100 -59.5t116 -22.5q49 0 96 17.5t83 49.5t57.5 80t21.5 109v1157q0 31 -24.5 49.5t-55.5 18.5v29q59 -2 91 -3t38 -1q8 0 38 1t83 3v-29q-31 0 -57.5 -18.5 t-26.5 -49.5v-1114q0 -90 -24.5 -157.5t-79 -112.5t-140.5 -68.5t-211 -23.5q-86 0 -159.5 23.5t-128 66.5t-85 102.5t-30.5 130.5v1153q0 31 -25.5 49.5t-54.5 18.5zM338 1704q0 47 61 76l156 72l155 -72q62 -29 62 -76q0 -31 -39 -31q-35 0 -94 41l-84 68l-86 -68 q-27 -23 -51.5 -31t-40.5 -10q-39 0 -39 31z" />
<glyph unicode="&#xdc;" horiz-adv-x="1095" d="M41 1534v29l184 -4q10 0 56.5 1t128.5 3v-29q-31 0 -59.5 -18.5t-28.5 -49.5v-1147q0 -51 26.5 -99t70.5 -85t100 -59.5t116 -22.5q49 0 96 17.5t83 49.5t57.5 80t21.5 109v1157q0 31 -24.5 49.5t-55.5 18.5v29q59 -2 91 -3t38 -1q8 0 38 1t83 3v-29q-31 0 -57.5 -18.5 t-26.5 -49.5v-1114q0 -90 -24.5 -157.5t-79 -112.5t-140.5 -68.5t-211 -23.5q-86 0 -159.5 23.5t-128 66.5t-85 102.5t-30.5 130.5v1153q0 31 -25.5 49.5t-54.5 18.5zM299 1770q0 51 31.5 78.5t76.5 27.5q43 0 76 -27.5t33 -78.5t-33 -80t-76 -29q-45 0 -76.5 28.5 t-31.5 80.5zM594 1770q0 51 31.5 78.5t76.5 27.5t77 -27.5t32 -78.5t-32 -80t-77 -29t-76.5 28.5t-31.5 80.5z" />
<glyph unicode="&#xdd;" horiz-adv-x="964" d="M0 1534v29l197 -4q10 0 53 1t121 3v-29q-18 0 -43 -17.5t-25 -39.5q2 0 19.5 -37t41 -92.5t51 -121t51 -124t39 -99t17.5 -47.5q33 100 87.5 229.5t131.5 289.5q2 6 2 16q0 18 -21.5 30.5t-45.5 12.5v29q57 -2 89 -3t40 -1q6 0 37.5 1t91.5 3v-29q-74 0 -105 -68 l-241 -553v-817q0 -29 25.5 -48t54.5 -19v-27l-183 4q-10 0 -56 -1t-132 -3v27q31 0 58.5 19.5t27.5 47.5v733l-291 670q-16 35 -92 35zM301 1708l222 115q49 25 88 24q69 0 69 -51q0 -41 -63 -59l-283 -72z" />
<glyph unicode="&#xdf;" horiz-adv-x="1015" d="M61 2v27h5q57 0 57 53v1149q0 332 473 332q72 0 131 -30t102 -84t67 -128t24 -160q0 -61 -14.5 -120.5t-40 -107.5t-63.5 -82t-87 -48q49 -6 90 -38t70.5 -82t45 -114.5t15.5 -132.5q0 -96 -26.5 -175t-76 -135t-118 -88t-152.5 -32v39q35 0 63.5 27.5t50 75t33 108.5 t11.5 127q0 84 -18.5 154.5t-53.5 121t-83 78t-109 27.5q57 16 104 53t81 89t52.5 116.5t18.5 134.5t-20.5 133.5t-53.5 110.5t-74 75.5t-82 28.5q-37 0 -65.5 -20.5t-49 -55t-30.5 -78.5t-10 -94v-1175q0 -53 71 -53h4v-27q-76 2 -117.5 3t-52.5 1q-10 0 -52 -1t-120 -3z " />
<glyph unicode="&#xe0;" horiz-adv-x="1038" d="M80 276q0 104 40 170t100.5 107t134 65.5t143 47t124 49t78.5 73.5l-6 99q-10 135 -67.5 204.5t-145.5 71.5h-8q-63 0 -100 -39t-72 -120q-18 -45 -74 -46q-76 0 -75 64q0 39 35.5 78t93 68.5t129 48t141.5 18.5q164 0 254 -88t90 -260v-678q0 -90 55 -90q45 0 84 57 q-66 -182 -190 -182q-57 0 -96 49t-39 143q-16 -49 -50 -86t-78 -61.5t-95.5 -37.5t-102.5 -13q-61 0 -115.5 22.5t-96.5 61.5t-66.5 91t-24.5 113zM281 287q0 -47 16 -90t44 -76t62.5 -52.5t73.5 -19.5q57 0 99 34t70 79t42 89t19 66q-2 100 -3.5 199t-1.5 201 q-18 -41 -61 -72t-91 -53.5t-92 -37.5t-65 -28q-53 -27 -82.5 -93t-29.5 -146zM336 1462q0 51 68 51q41 0 88 -24l221 -115l-31 -43l-285 72q-61 18 -61 59z" />
<glyph unicode="&#xe1;" horiz-adv-x="1038" d="M80 276q0 104 40 170t100.5 107t134 65.5t143 47t124 49t78.5 73.5l-6 99q-10 135 -67.5 204.5t-145.5 71.5h-8q-63 0 -100 -39t-72 -120q-18 -45 -74 -46q-76 0 -75 64q0 39 35.5 78t93 68.5t129 48t141.5 18.5q164 0 254 -88t90 -260v-678q0 -90 55 -90q45 0 84 57 q-66 -182 -190 -182q-57 0 -96 49t-39 143q-16 -49 -50 -86t-78 -61.5t-95.5 -37.5t-102.5 -13q-61 0 -115.5 22.5t-96.5 61.5t-66.5 91t-24.5 113zM281 287q0 -47 16 -90t44 -76t62.5 -52.5t73.5 -19.5q57 0 99 34t70 79t42 89t19 66q-2 100 -3.5 199t-1.5 201 q-18 -41 -61 -72t-91 -53.5t-92 -37.5t-65 -28q-53 -27 -82.5 -93t-29.5 -146zM335 1374l222 115q49 25 88 24q69 0 69 -51q0 -41 -63 -59l-283 -72z" />
<glyph unicode="&#xe2;" horiz-adv-x="1038" d="M80 276q0 104 40 170t100.5 107t134 65.5t143 47t124 49t78.5 73.5l-6 99q-10 135 -67.5 204.5t-145.5 71.5h-8q-63 0 -100 -39t-72 -120q-18 -45 -74 -46q-76 0 -75 64q0 39 35.5 78t93 68.5t129 48t141.5 18.5q164 0 254 -88t90 -260v-678q0 -90 55 -90q45 0 84 57 q-66 -182 -190 -182q-57 0 -96 49t-39 143q-16 -49 -50 -86t-78 -61.5t-95.5 -37.5t-102.5 -13q-61 0 -115.5 22.5t-96.5 61.5t-66.5 91t-24.5 113zM281 287q0 -47 16 -90t44 -76t62.5 -52.5t73.5 -19.5q57 0 99 34t70 79t42 89t19 66q-2 100 -3.5 199t-1.5 201 q-18 -41 -61 -72t-91 -53.5t-92 -37.5t-65 -28q-53 -27 -82.5 -93t-29.5 -146zM312 1370q0 47 61 76l156 72l155 -72q62 -29 62 -76q0 -31 -39 -31q-35 0 -94 41l-84 68l-86 -68q-27 -23 -51.5 -31t-40.5 -10q-39 0 -39 31z" />
<glyph unicode="&#xe3;" horiz-adv-x="1038" d="M80 276q0 104 40 170t100.5 107t134 65.5t143 47t124 49t78.5 73.5l-6 99q-10 135 -67.5 204.5t-145.5 71.5h-8q-63 0 -100 -39t-72 -120q-18 -45 -74 -46q-76 0 -75 64q0 39 35.5 78t93 68.5t129 48t141.5 18.5q164 0 254 -88t90 -260v-678q0 -90 55 -90q45 0 84 57 q-66 -182 -190 -182q-57 0 -96 49t-39 143q-16 -49 -50 -86t-78 -61.5t-95.5 -37.5t-102.5 -13q-61 0 -115.5 22.5t-96.5 61.5t-66.5 91t-24.5 113zM258 1341q6 70 51 118t115 48q23 0 64 -17t83 -38.5t76.5 -39t44.5 -17.5q53 0 70 116h35q0 -35 -14.5 -65.5t-37 -54 t-53 -37t-63.5 -13.5q-25 0 -64 17.5t-77.5 39t-70.5 39t-42 17.5q-51 0 -82 -113h-35zM281 287q0 -47 16 -90t44 -76t62.5 -52.5t73.5 -19.5q57 0 99 34t70 79t42 89t19 66q-2 100 -3.5 199t-1.5 201q-18 -41 -61 -72t-91 -53.5t-92 -37.5t-65 -28q-53 -27 -82.5 -93 t-29.5 -146z" />
<glyph unicode="&#xe4;" horiz-adv-x="1038" d="M80 276q0 104 40 170t100.5 107t134 65.5t143 47t124 49t78.5 73.5l-6 99q-10 135 -67.5 204.5t-145.5 71.5h-8q-63 0 -100 -39t-72 -120q-18 -45 -74 -46q-76 0 -75 64q0 39 35.5 78t93 68.5t129 48t141.5 18.5q164 0 254 -88t90 -260v-678q0 -90 55 -90q45 0 84 57 q-66 -182 -190 -182q-57 0 -96 49t-39 143q-16 -49 -50 -86t-78 -61.5t-95.5 -37.5t-102.5 -13q-61 0 -115.5 22.5t-96.5 61.5t-66.5 91t-24.5 113zM271 1436q0 51 31.5 78.5t76.5 27.5q43 0 76 -27.5t33 -78.5t-33 -80t-76 -29q-45 0 -76.5 28.5t-31.5 80.5zM281 287 q0 -47 16 -90t44 -76t62.5 -52.5t73.5 -19.5q57 0 99 34t70 79t42 89t19 66q-2 100 -3.5 199t-1.5 201q-18 -41 -61 -72t-91 -53.5t-92 -37.5t-65 -28q-53 -27 -82.5 -93t-29.5 -146zM566 1436q0 51 31.5 78.5t76.5 27.5t77 -27.5t32 -78.5t-32 -80t-77 -29t-76.5 28.5 t-31.5 80.5z" />
<glyph unicode="&#xe5;" horiz-adv-x="1038" d="M80 276q0 104 40 170t100.5 107t134 65.5t143 47t124 49t78.5 73.5l-6 99q-10 135 -67.5 204.5t-145.5 71.5h-8q-63 0 -100 -39t-72 -120q-18 -45 -74 -46q-76 0 -75 64q0 39 35.5 78t93 68.5t129 48t141.5 18.5q164 0 254 -88t90 -260v-678q0 -90 55 -90q45 0 84 57 q-66 -182 -190 -182q-57 0 -96 49t-39 143q-16 -49 -50 -86t-78 -61.5t-95.5 -37.5t-102.5 -13q-61 0 -115.5 22.5t-96.5 61.5t-66.5 91t-24.5 113zM281 287q0 -47 16 -90t44 -76t62.5 -52.5t73.5 -19.5q57 0 99 34t70 79t42 89t19 66q-2 100 -3.5 199t-1.5 201 q-18 -41 -61 -72t-91 -53.5t-92 -37.5t-65 -28q-53 -27 -82.5 -93t-29.5 -146zM344 1413q0 59 52 94t130 35q74 0 127 -34t53 -95q0 -63 -53 -97t-127 -34q-80 0 -131 36t-51 95zM393 1413q0 -41 37 -68.5t96 -27.5q55 0 95 25.5t40 70.5t-40 70.5t-95 25.5t-94 -27.5 t-39 -68.5z" />
<glyph unicode="&#xe6;" horiz-adv-x="1656" d="M102 305q0 100 32 167t97 108q29 16 91.5 36.5t169.5 45.5q160 39 202 122v111q0 51 -18.5 99t-50 85t-74.5 59.5t-92 22.5q-123 0 -215 -123l-66 31q31 37 73 67.5t92 52t104.5 34t109.5 12.5q213 0 303 -156q131 147 320 148q88 0 161.5 -41t126 -113t81 -167 t28.5 -204h-664q-2 -18 -2 -36.5v-38.5q0 -125 20.5 -227.5t60.5 -175t97.5 -112.5t131.5 -40q131 0 229 141l47 -23q-127 -182 -297 -182q-299 0 -422 340q-23 -162 -119 -250t-237 -88q-61 0 -118.5 22.5t-101.5 62.5t-72 94.5t-28 115.5zM305 334q0 -49 13.5 -93t38 -79 t58.5 -55.5t74 -20.5q47 0 85 28.5t65 80t41 122t14 156.5v242q-18 -39 -67 -72t-101.5 -57.5t-94.5 -39t-44 -16.5q-82 -59 -82 -196zM922 778h508q0 80 -17.5 150.5t-48.5 122t-74 81t-94 29.5t-95 -27.5t-80 -78.5t-61.5 -121t-37.5 -156z" />
<glyph unicode="&#xe7;" horiz-adv-x="919" d="M86 584q0 133 37 255t103.5 214t159.5 146t204 54q63 0 120.5 -13t99.5 -34.5t66.5 -49.5t24.5 -58q0 -29 -14.5 -55.5t-46.5 -26.5q-20 0 -31.5 9t-24 27.5t-29 46t-42.5 64.5q-39 39 -95 39q-70 0 -127 -44t-98 -123t-63.5 -186.5t-22.5 -232.5q0 -121 21.5 -221 t62.5 -174t98.5 -114.5t128.5 -40.5q135 0 238 167l41 -18q-121 -195 -315 -215l-21 -61q70 0 108 -29t38 -82q0 -43 -25 -81t-67 -65.5t-95 -43t-110 -15.5v31q78 0 125 40t47 103q0 47 -26 79t-69 32l21 88q-96 4 -174 51t-133.5 126t-85 184.5t-29.5 226.5z" />
<glyph unicode="&#xe8;" horiz-adv-x="970" d="M57 580q0 133 33 254.5t95.5 215t154.5 148.5t211 55q117 0 193.5 -45t121.5 -121.5t62.5 -176t17.5 -208.5h-674q0 -96 9.5 -207.5t41 -206.5t94 -158.5t171.5 -63.5q76 0 150.5 46t121.5 121l49 -22q-135 -215 -413 -215q-98 0 -179 45t-138.5 123t-89.5 185.5 t-32 230.5zM281 778h524q-2 63 -18.5 135t-47 133.5t-74.5 101.5t-100 40q-57 0 -104 -30t-84 -84t-61.5 -129t-34.5 -167zM303 1462q0 51 68 51q41 0 88 -24l221 -115l-31 -43l-285 72q-61 18 -61 59z" />
<glyph unicode="&#xe9;" horiz-adv-x="970" d="M57 580q0 133 33 254.5t95.5 215t154.5 148.5t211 55q117 0 193.5 -45t121.5 -121.5t62.5 -176t17.5 -208.5h-674q0 -96 9.5 -207.5t41 -206.5t94 -158.5t171.5 -63.5q76 0 150.5 46t121.5 121l49 -22q-135 -215 -413 -215q-98 0 -179 45t-138.5 123t-89.5 185.5 t-32 230.5zM281 778h524q-2 63 -18.5 135t-47 133.5t-74.5 101.5t-100 40q-57 0 -104 -30t-84 -84t-61.5 -129t-34.5 -167zM303 1374l222 115q49 25 88 24q69 0 69 -51q0 -41 -63 -59l-283 -72z" />
<glyph unicode="&#xea;" horiz-adv-x="970" d="M57 580q0 133 33 254.5t95.5 215t154.5 148.5t211 55q117 0 193.5 -45t121.5 -121.5t62.5 -176t17.5 -208.5h-674q0 -96 9.5 -207.5t41 -206.5t94 -158.5t171.5 -63.5q76 0 150.5 46t121.5 121l49 -22q-135 -215 -413 -215q-98 0 -179 45t-138.5 123t-89.5 185.5 t-32 230.5zM277 1370q0 47 61 76l156 72l155 -72q62 -29 62 -76q0 -31 -39 -31q-35 0 -94 41l-84 68l-86 -68q-27 -23 -51.5 -31t-40.5 -10q-39 0 -39 31zM281 778h524q-2 63 -18.5 135t-47 133.5t-74.5 101.5t-100 40q-57 0 -104 -30t-84 -84t-61.5 -129t-34.5 -167z" />
<glyph unicode="&#xeb;" horiz-adv-x="970" d="M57 580q0 133 33 254.5t95.5 215t154.5 148.5t211 55q117 0 193.5 -45t121.5 -121.5t62.5 -176t17.5 -208.5h-674q0 -96 9.5 -207.5t41 -206.5t94 -158.5t171.5 -63.5q76 0 150.5 46t121.5 121l49 -22q-135 -215 -413 -215q-98 0 -179 45t-138.5 123t-89.5 185.5 t-32 230.5zM236 1436q0 51 31.5 78.5t76.5 27.5q43 0 76 -27.5t33 -78.5t-33 -80t-76 -29q-45 0 -76.5 28.5t-31.5 80.5zM281 778h524q-2 63 -18.5 135t-47 133.5t-74.5 101.5t-100 40q-57 0 -104 -30t-84 -84t-61.5 -129t-34.5 -167zM531 1436q0 51 31.5 78.5t76.5 27.5 t77 -27.5t32 -78.5t-32 -80t-77 -29t-76.5 28.5t-31.5 80.5z" />
<glyph unicode="&#xec;" horiz-adv-x="421" d="M29 1462q0 51 68 51q41 0 88 -24l221 -115l-31 -43l-285 72q-61 18 -61 59zM39 1147q0 10 75.5 25.5t213.5 50.5v-1141q0 -53 63 -53v-27q-78 2 -120 3t-52 1q-8 0 -50 -1t-118 -3v27q72 0 72 53v997q0 25 -13.5 33t-28.5 11t-28.5 7.5t-13.5 16.5z" />
<glyph unicode="&#xed;" horiz-adv-x="421" d="M28 1374l222 115q49 25 88 24q69 0 69 -51q0 -41 -63 -59l-283 -72zM39 1147q0 10 75.5 25.5t213.5 50.5v-1141q0 -53 63 -53v-27q-78 2 -120 3t-52 1q-8 0 -50 -1t-118 -3v27q72 0 72 53v997q0 25 -13.5 33t-28.5 11t-28.5 7.5t-13.5 16.5z" />
<glyph unicode="&#xee;" horiz-adv-x="421" d="M0 1370q0 47 61 76l156 72l155 -72q62 -29 62 -76q0 -31 -39 -31q-35 0 -94 41l-84 68l-86 -68q-27 -23 -51.5 -31t-40.5 -10q-39 0 -39 31zM39 1147q0 10 75.5 25.5t213.5 50.5v-1141q0 -53 63 -53v-27q-78 2 -120 3t-52 1q-8 0 -50 -1t-118 -3v27q72 0 72 53v997 q0 25 -13.5 33t-28.5 11t-28.5 7.5t-13.5 16.5z" />
<glyph unicode="&#xef;" horiz-adv-x="421" d="M-39 1436q0 51 31.5 78.5t76.5 27.5q43 0 76 -27.5t33 -78.5t-33 -80t-76 -29q-45 0 -76.5 28.5t-31.5 80.5zM39 1147q0 10 75.5 25.5t213.5 50.5v-1141q0 -53 63 -53v-27q-78 2 -120 3t-52 1q-8 0 -50 -1t-118 -3v27q72 0 72 53v997q0 25 -13.5 33t-28.5 11t-28.5 7.5 t-13.5 16.5zM256 1436q0 51 31.5 78.5t76.5 27.5t77 -27.5t32 -78.5t-32 -80t-77 -29t-76.5 28.5t-31.5 80.5z" />
<glyph unicode="&#xf1;" horiz-adv-x="983" d="M23 1149q0 8 70.5 22.5t217.5 51.5q0 -31 -3 -73t-7 -95q20 78 98 127t181 49q70 0 129 -22.5t102 -62.5t66.5 -96.5t23.5 -123.5v-844q0 -53 66 -53h2v-27q-72 2 -112 3t-50 1t-54 -1t-124 -3v27q72 0 71 53v813q0 113 -53 186.5t-145 73.5q-41 0 -78 -17.5t-64.5 -46 t-43 -65.5t-15.5 -78q0 -45 5 -85t5 -77v-704q0 -53 66 -53v-27q-78 2 -120 3t-50 1q-10 0 -52 -1t-116 -3v27q68 0 67 53v997q0 23 -13 31t-28.5 13t-28.5 9.5t-13 16.5zM227 1341q6 70 51 118t115 48q23 0 64 -17t83 -38.5t76.5 -39t44.5 -17.5q53 0 70 116h35 q0 -35 -14.5 -65.5t-37 -54t-53 -37t-63.5 -13.5q-25 0 -64 17.5t-77.5 39t-70.5 39t-42 17.5q-51 0 -82 -113h-35z" />
<glyph unicode="&#xf2;" horiz-adv-x="1042" d="M86 635q0 242 43 352q25 68 76 118t115.5 84t137 51t142.5 17q393 1 393 -626q0 -197 -40 -324t-109.5 -199.5t-161.5 -100t-199 -27.5q-203 0 -300 155.5t-97 499.5zM291 664q0 -618 280 -619q57 0 100.5 23.5t72 83t42 160t13.5 255.5v35q0 129 -22.5 236.5 t-62.5 184.5t-95.5 120t-120.5 43q-53 0 -91 -25.5t-65 -85t-39 -161t-12 -250.5zM338 1462q0 51 68 51q41 0 88 -24l221 -115l-31 -43l-285 72q-61 18 -61 59z" />
<glyph unicode="&#xf3;" horiz-adv-x="1042" d="M86 635q0 242 43 352q25 68 76 118t115.5 84t137 51t142.5 17q393 1 393 -626q0 -197 -40 -324t-109.5 -199.5t-161.5 -100t-199 -27.5q-203 0 -300 155.5t-97 499.5zM291 664q0 -618 280 -619q57 0 100.5 23.5t72 83t42 160t13.5 255.5v35q0 129 -22.5 236.5 t-62.5 184.5t-95.5 120t-120.5 43q-53 0 -91 -25.5t-65 -85t-39 -161t-12 -250.5zM338 1374l222 115q49 25 88 24q69 0 69 -51q0 -41 -63 -59l-283 -72z" />
<glyph unicode="&#xf4;" horiz-adv-x="1042" d="M86 635q0 242 43 352q25 68 76 118t115.5 84t137 51t142.5 17q393 1 393 -626q0 -197 -40 -324t-109.5 -199.5t-161.5 -100t-199 -27.5q-203 0 -300 155.5t-97 499.5zM291 664q0 -618 280 -619q57 0 100.5 23.5t72 83t42 160t13.5 255.5v35q0 129 -22.5 236.5 t-62.5 184.5t-95.5 120t-120.5 43q-53 0 -91 -25.5t-65 -85t-39 -161t-12 -250.5zM314 1370q0 47 61 76l156 72l155 -72q62 -29 62 -76q0 -31 -39 -31q-35 0 -94 41l-84 68l-86 -68q-27 -23 -51.5 -31t-40.5 -10q-39 0 -39 31z" />
<glyph unicode="&#xf5;" horiz-adv-x="1042" d="M86 635q0 242 43 352q25 68 76 118t115.5 84t137 51t142.5 17q393 1 393 -626q0 -197 -40 -324t-109.5 -199.5t-161.5 -100t-199 -27.5q-203 0 -300 155.5t-97 499.5zM260 1341q6 70 51 118t115 48q23 0 64 -17t83 -38.5t76.5 -39t44.5 -17.5q53 0 70 116h35 q0 -35 -14.5 -65.5t-37 -54t-53 -37t-63.5 -13.5q-25 0 -64 17.5t-77.5 39t-70.5 39t-42 17.5q-51 0 -82 -113h-35zM291 664q0 -618 280 -619q57 0 100.5 23.5t72 83t42 160t13.5 255.5v35q0 129 -22.5 236.5t-62.5 184.5t-95.5 120t-120.5 43q-53 0 -91 -25.5t-65 -85 t-39 -161t-12 -250.5z" />
<glyph unicode="&#xf6;" horiz-adv-x="1042" d="M86 635q0 242 43 352q25 68 76 118t115.5 84t137 51t142.5 17q393 1 393 -626q0 -197 -40 -324t-109.5 -199.5t-161.5 -100t-199 -27.5q-203 0 -300 155.5t-97 499.5zM273 1436q0 51 31.5 78.5t76.5 27.5q43 0 76 -27.5t33 -78.5t-33 -80t-76 -29q-45 0 -76.5 28.5 t-31.5 80.5zM291 664q0 -618 280 -619q57 0 100.5 23.5t72 83t42 160t13.5 255.5v35q0 129 -22.5 236.5t-62.5 184.5t-95.5 120t-120.5 43q-53 0 -91 -25.5t-65 -85t-39 -161t-12 -250.5zM568 1436q0 51 31.5 78.5t76.5 27.5t77 -27.5t32 -78.5t-32 -80t-77 -29t-76.5 28.5 t-31.5 80.5z" />
<glyph unicode="&#xf8;" horiz-adv-x="1042" d="M78 635q0 236 43 350q25 68 76 119t115.5 85t137 51t142.5 17q393 1 393 -626q0 -182 -33.5 -307t-98.5 -202t-160 -109.5t-218 -32.5q-203 0 -300 154.5t-97 500.5zM283 664q0 -225 34 -369l388 731q-84 160 -216 160q-53 0 -91 -25.5t-64.5 -85t-38.5 -161t-12 -250.5z M344 217q70 -172 219 -172q57 0 100.5 23.5t71 82t42 159t14.5 251.5v41q0 209 -56 354z" />
<glyph unicode="&#xf9;" horiz-adv-x="1005" d="M20 1149q0 8 76 24.5t211 49.5v-889q0 -119 56.5 -192.5t142.5 -73.5q39 0 75.5 15t64.5 43t44.5 64.5t16.5 79.5q0 39 -5.5 79t-5.5 81v649q0 25 -13 34t-29.5 13t-30 7.5t-13.5 15.5q0 8 77 23.5t212 50.5v-1088q0 -55 43 -55q8 0 55 10v-37l-209 -49q-23 -6 -38 -6 q-53 0 -54 55q0 25 2 52.5t7 56.5q-29 -82 -106 -126t-173 -44q-68 0 -127 22.5t-102 63.5t-68 98t-25 129v774q0 20 -13 30.5t-28.5 15.5t-29 9.5t-13.5 14.5zM320 1462q0 51 68 51q41 0 88 -24l221 -115l-31 -43l-285 72q-61 18 -61 59z" />
<glyph unicode="&#xfa;" horiz-adv-x="1005" d="M20 1149q0 8 76 24.5t211 49.5v-889q0 -119 56.5 -192.5t142.5 -73.5q39 0 75.5 15t64.5 43t44.5 64.5t16.5 79.5q0 39 -5.5 79t-5.5 81v649q0 25 -13 34t-29.5 13t-30 7.5t-13.5 15.5q0 8 77 23.5t212 50.5v-1088q0 -55 43 -55q8 0 55 10v-37l-209 -49q-23 -6 -38 -6 q-53 0 -54 55q0 25 2 52.5t7 56.5q-29 -82 -106 -126t-173 -44q-68 0 -127 22.5t-102 63.5t-68 98t-25 129v774q0 20 -13 30.5t-28.5 15.5t-29 9.5t-13.5 14.5zM319 1374l222 115q49 25 88 24q69 0 69 -51q0 -41 -63 -59l-283 -72z" />
<glyph unicode="&#xfb;" horiz-adv-x="1005" d="M20 1149q0 8 76 24.5t211 49.5v-889q0 -119 56.5 -192.5t142.5 -73.5q39 0 75.5 15t64.5 43t44.5 64.5t16.5 79.5q0 39 -5.5 79t-5.5 81v649q0 25 -13 34t-29.5 13t-30 7.5t-13.5 15.5q0 8 77 23.5t212 50.5v-1088q0 -55 43 -55q8 0 55 10v-37l-209 -49q-23 -6 -38 -6 q-53 0 -54 55q0 25 2 52.5t7 56.5q-29 -82 -106 -126t-173 -44q-68 0 -127 22.5t-102 63.5t-68 98t-25 129v774q0 20 -13 30.5t-28.5 15.5t-29 9.5t-13.5 14.5zM293 1370q0 47 61 76l156 72l155 -72q62 -29 62 -76q0 -31 -39 -31q-35 0 -94 41l-84 68l-86 -68 q-27 -23 -51.5 -31t-40.5 -10q-39 0 -39 31z" />
<glyph unicode="&#xfc;" horiz-adv-x="1005" d="M20 1149q0 8 76 24.5t211 49.5v-889q0 -119 56.5 -192.5t142.5 -73.5q39 0 75.5 15t64.5 43t44.5 64.5t16.5 79.5q0 39 -5.5 79t-5.5 81v649q0 25 -13 34t-29.5 13t-30 7.5t-13.5 15.5q0 8 77 23.5t212 50.5v-1088q0 -55 43 -55q8 0 55 10v-37l-209 -49q-23 -6 -38 -6 q-53 0 -54 55q0 25 2 52.5t7 56.5q-29 -82 -106 -126t-173 -44q-68 0 -127 22.5t-102 63.5t-68 98t-25 129v774q0 20 -13 30.5t-28.5 15.5t-29 9.5t-13.5 14.5zM252 1436q0 51 31.5 78.5t76.5 27.5q43 0 76 -27.5t33 -78.5t-33 -80t-76 -29q-45 0 -76.5 28.5t-31.5 80.5z M547 1436q0 51 31.5 78.5t76.5 27.5t77 -27.5t32 -78.5t-32 -80t-77 -29t-76.5 28.5t-31.5 80.5z" />
<glyph unicode="&#xfd;" horiz-adv-x="937" d="M4 -289q0 61 70 62q14 0 28.5 -8.5t28.5 -17.5t24.5 -18.5t16.5 -9.5q10 -4 16.5 -4h14.5q53 0 107.5 65.5t92.5 196.5l37 129l-344 1043q-18 53 -82 53v27q154 -6 172 -6t170 6l-2 -27q-49 0 -49 -26q0 -8 2 -13l170 -565q20 -68 32.5 -133.5t20.5 -130.5q12 76 72 258 l189 563q4 12 4 19q0 29 -47 28l-3 27q88 -6 101 -6q8 0 94 6v-27q-66 0 -78 -45l-375 -1165q-20 -63 -47.5 -127t-69.5 -115t-101.5 -83t-143.5 -32q-57 0 -89 19.5t-32 56.5zM286 1374l222 115q49 25 88 24q69 0 69 -51q0 -41 -63 -59l-283 -72z" />
<glyph unicode="&#xff;" horiz-adv-x="937" d="M4 -289q0 61 70 62q14 0 28.5 -8.5t28.5 -17.5t24.5 -18.5t16.5 -9.5q10 -4 16.5 -4h14.5q53 0 107.5 65.5t92.5 196.5l37 129l-344 1043q-18 53 -82 53v27q154 -6 172 -6t170 6l-2 -27q-49 0 -49 -26q0 -8 2 -13l170 -565q20 -68 32.5 -133.5t20.5 -130.5q12 76 72 258 l189 563q4 12 4 19q0 29 -47 28l-3 27q88 -6 101 -6q8 0 94 6v-27q-66 0 -78 -45l-375 -1165q-20 -63 -47.5 -127t-69.5 -115t-101.5 -83t-143.5 -32q-57 0 -89 19.5t-32 56.5zM219 1436q0 51 31.5 78.5t76.5 27.5q43 0 76 -27.5t33 -78.5t-33 -80t-76 -29q-45 0 -76.5 28.5 t-31.5 80.5zM514 1436q0 51 31.5 78.5t76.5 27.5t77 -27.5t32 -78.5t-32 -80t-77 -29t-76.5 28.5t-31.5 80.5z" />
<glyph unicode="&#x152;" horiz-adv-x="1892" d="M92 801q0 186 26.5 319t85 223.5t148.5 142.5t217 79q33 6 68 10t70 4q164 0 266 -90v74h741l17 -209h-19q-29 100 -49.5 132t-56.5 32h-437q4 -49 6.5 -91.5t2.5 -76.5v-328q4 -47 7 -96t3 -105v-14h377q66 0 65 106v17h27l22 -295h-26q-10 129 -78 129h-387 q-2 -51 -4 -97t-6 -89v-373q0 -31 -5.5 -62.5t-5.5 -56.5q0 -39 72 -39h473q18 0 31.5 7t25 25.5t22.5 50.5t26 81h18l-16 -209h-846v109q-76 -63 -188.5 -95t-223.5 -32q-127 0 -216 47t-145.5 146t-82 254t-25.5 370zM309 786q0 -162 21.5 -298t61.5 -235t99.5 -155.5 t137.5 -56.5q160 0 248 179t88 548q0 166 -20.5 304t-61.5 237.5t-100.5 155t-137.5 55.5q-160 0 -248 -181.5t-88 -552.5z" />
<glyph unicode="&#x153;" horiz-adv-x="1792" d="M115 635q0 172 29.5 290.5t91 192.5t159 106.5t232.5 32.5q217 0 317 -198q68 88 153 141t193 53q86 0 158 -35.5t124 -105.5t81.5 -173t29.5 -237h-665q-2 -14 -2 -26v-27q0 -98 20.5 -204.5t60.5 -195.5t97 -146.5t131 -57.5q78 0 150.5 56.5t123.5 131.5l48 -22 q-68 -109 -169.5 -172.5t-242.5 -63.5q-102 0 -180 51.5t-137 133.5q-35 -55 -82.5 -90t-101.5 -54.5t-111.5 -27.5t-112.5 -8q-104 0 -179 36.5t-123 116.5t-70.5 204t-22.5 298zM315 664q0 -618 283 -619q57 0 100 23.5t71 83t42 161t14 254.5q0 139 -21.5 253t-61.5 196 t-95 126t-123 44q-53 0 -92 -25.5t-65.5 -86t-39 -161t-12.5 -249.5zM1020 778h483q-4 70 -14 142.5t-32.5 132t-59.5 97.5t-92 38q-106 0 -171 -106.5t-114 -303.5z" />
<glyph unicode="&#x178;" horiz-adv-x="964" d="M0 1534v29l197 -4q10 0 53 1t121 3v-29q-18 0 -43 -17.5t-25 -39.5q2 0 19.5 -37t41 -92.5t51 -121t51 -124t39 -99t17.5 -47.5q33 100 87.5 229.5t131.5 289.5q2 6 2 16q0 18 -21.5 30.5t-45.5 12.5v29q57 -2 89 -3t40 -1q6 0 37.5 1t91.5 3v-29q-74 0 -105 -68 l-241 -553v-817q0 -29 25.5 -48t54.5 -19v-27l-183 4q-10 0 -56 -1t-132 -3v27q31 0 58.5 19.5t27.5 47.5v733l-291 670q-16 35 -92 35zM234 1770q0 51 31.5 78.5t76.5 27.5q43 0 76 -27.5t33 -78.5t-33 -80t-76 -29q-45 0 -76.5 28.5t-31.5 80.5zM529 1770q0 51 31.5 78.5 t76.5 27.5t77 -27.5t32 -78.5t-32 -80t-77 -29t-76.5 28.5t-31.5 80.5z" />
<glyph unicode="&#x2c6;" horiz-adv-x="1093" d="M410 1370q0 47 61 76l156 72l155 -72q62 -29 62 -76q0 -31 -39 -31q-35 0 -94 41l-84 68l-86 -68q-27 -23 -51.5 -31t-40.5 -10q-39 0 -39 31z" />
<glyph unicode="&#x2dc;" horiz-adv-x="1038" d="M350 1341q6 70 51 118t115 48q23 0 64 -17t83 -38.5t76.5 -39t44.5 -17.5q53 0 70 116h35q0 -35 -14.5 -65.5t-37 -54t-53 -37t-63.5 -13.5q-25 0 -64 17.5t-77.5 39t-70.5 39t-42 17.5q-51 0 -82 -113h-35z" />
<glyph unicode="&#x2000;" horiz-adv-x="938" />
<glyph unicode="&#x2001;" horiz-adv-x="1876" />
<glyph unicode="&#x2002;" horiz-adv-x="938" />
<glyph unicode="&#x2003;" horiz-adv-x="1876" />
<glyph unicode="&#x2004;" horiz-adv-x="625" />
<glyph unicode="&#x2005;" horiz-adv-x="469" />
<glyph unicode="&#x2006;" horiz-adv-x="312" />
<glyph unicode="&#x2007;" horiz-adv-x="312" />
<glyph unicode="&#x2008;" horiz-adv-x="234" />
<glyph unicode="&#x2009;" horiz-adv-x="375" />
<glyph unicode="&#x200a;" horiz-adv-x="104" />
<glyph unicode="&#x2010;" horiz-adv-x="714" d="M106 741v109h529v-109h-529z" />
<glyph unicode="&#x2011;" horiz-adv-x="714" d="M106 741v109h529v-109h-529z" />
<glyph unicode="&#x2012;" horiz-adv-x="714" d="M106 741v109h529v-109h-529z" />
<glyph unicode="&#x2013;" horiz-adv-x="643" d="M39 741v109h545v-109h-545z" />
<glyph unicode="&#x2014;" horiz-adv-x="1277" d="M100 741v109h1063v-109h-1063z" />
<glyph unicode="&#x2018;" horiz-adv-x="374" d="M70 1460q0 29 15 62.5t40 65.5t55.5 57.5t63.5 40.5q-49 -72 -49 -138q0 -109 110 -108q-43 -98 -127 -99q-43 0 -75.5 33t-32.5 86z" />
<glyph unicode="&#x2019;" horiz-adv-x="329" d="M45 1579q43 98 125 98q45 0 78 -32.5t33 -85.5q0 -33 -15.5 -67t-41 -64.5t-57.5 -57.5t-63 -41q51 72 52 139q0 111 -111 111z" />
<glyph unicode="&#x201c;" horiz-adv-x="577" d="M68 1473q0 29 15 62.5t39.5 66t56.5 59.5t63 41q-49 -74 -49 -139q0 -111 106 -111v21q0 29 15.5 62.5t40 66t56 59.5t64.5 41q-51 -72 -51 -139q0 -111 111 -111q-43 -98 -125 -98q-41 0 -71 25.5t-38 66.5q-43 -92 -125 -92q-43 0 -75.5 32.5t-32.5 86.5z" />
<glyph unicode="&#x201d;" horiz-adv-x="538" d="M23 1599q45 98 127 99q39 0 68.5 -25.5t39.5 -68.5q43 94 123 94q45 0 78 -33t33 -86q0 -29 -15.5 -62.5t-40 -65.5t-56.5 -58.5t-65 -40.5q51 70 52 139q0 104 -109 108q2 -6 2 -20q0 -29 -15.5 -62.5t-40 -65.5t-56 -58.5t-64.5 -40.5q51 70 51 139q0 109 -112 108z " />
<glyph unicode="&#x2022;" horiz-adv-x="827" d="M139 846q0 59 22.5 111.5t61.5 91t90.5 61.5t110.5 23q57 0 109.5 -23t92.5 -62.5t62.5 -92t22.5 -109.5q0 -59 -22.5 -110.5t-61.5 -90.5t-91.5 -61.5t-111.5 -22.5t-111.5 22.5t-90.5 60.5t-60.5 90t-22.5 112z" />
<glyph unicode="&#x2026;" horiz-adv-x="3569" d="M678 102q0 57 36 89t85 32q47 0 83 -32t36 -89t-36 -86.5t-83 -29.5q-49 0 -85 29.5t-36 86.5zM1675 102q0 57 36 89t85 32q47 0 83 -32t36 -89t-36 -86.5t-83 -29.5q-49 0 -85 29.5t-36 86.5zM2672 102q0 57 36 89t85 32q47 0 83 -32t36 -89t-36 -86.5t-83 -29.5 q-49 0 -85 29.5t-36 86.5z" />
<glyph unicode="&#x202f;" horiz-adv-x="375" />
<glyph unicode="&#x205f;" horiz-adv-x="469" />
<glyph unicode="&#x20ac;" horiz-adv-x="913" d="M-49 631v65h100q-6 45 -6 99q0 10 1 17t1 17h-96v66h98q8 123 32.5 215t72.5 162q68 100 115.5 160.5t90.5 93.5t87.5 44t103.5 11q23 0 71 -6t96 -19.5t85 -34t37 -48.5q0 -47 -45 -48q-25 0 -50 27q-72 92 -176 92q-160 0 -261 -170t-113 -479h620v-66h-620 q0 -33 1 -66.5t3 -66.5h616v-65h-612q23 -279 114 -433.5t236 -154.5q72 0 143.5 30.5t116.5 76.5l23 -33q-25 -20 -64 -43t-83 -42.5t-92 -31.5t-93 -12q-84 0 -158 47t-133 131t-99 202.5t-57 262.5h-106z" />
<glyph unicode="&#x25fc;" horiz-adv-x="1228" d="M0 0v1229h1229v-1229h-1229z" />
<glyph unicode="&#xfb01;" horiz-adv-x="1011" d="M33 1100v45h100v86q0 70 24.5 128t67.5 99t102.5 64.5t129.5 23.5q139 0 231 -94q37 37 88 37q49 0 83 -32t34 -89t-34 -88t-83 -31q-31 0 -51 10.5t-34.5 27t-25 36.5t-20.5 39q-45 47 -80 88t-69 41q-160 0 -160 -289v-31q2 -10 2 -16v-10h162v-45h-162v-1018 q0 -53 63 -53l2 -27q-74 2 -114.5 3t-50.5 1t-54.5 -1t-122.5 -3v27q72 0 72 53v1018h-100zM586 1147q0 10 76.5 25.5t211.5 50.5v-1141q0 -53 66 -53v-27q-78 2 -120 3t-52 1t-51 -1t-119 -3v27q72 0 72 53v997q0 25 -13.5 33t-29 11t-28.5 7.5t-13 16.5z" />
<glyph unicode="&#xfb02;" horiz-adv-x="1005" d="M33 1100v45h100v86q0 70 24.5 128t67.5 99t102.5 64.5t129.5 23.5q16 0 48 -2t65.5 -4t64.5 -4t47 -2q35 0 83 8t109 27v-1487q0 -53 66 -53v-27q-74 2 -115 3t-51 1t-53 -1t-121 -3v27q70 0 70 53v1280q0 129 -174 129q-160 0 -160 -281l2 -65h162v-45h-162v-1018 q0 -55 57 -55q4 2 8 2v-27q-74 2 -114.5 3t-50.5 1t-54.5 -1t-122.5 -3l2 27q70 0 70 53v1018h-100z" />
</font>
</defs>
</svg>
